<?xml version="1.0" standalone="no"?>
<!DOCTYPE svg PUBLIC "-//W3C//DTD SVG 1.1//EN" "http://www.w3.org/Graphics/SVG/1.1/DTD/svg11.dtd" >
<svg xmlns="http://www.w3.org/2000/svg">
<metadata></metadata>
<defs>
<font id="alte_schwabacherdemibold" horiz-adv-x="1597" >
<font-face units-per-em="2048" ascent="1638" descent="-410" />
<missing-glyph horiz-adv-x="632" />
<glyph horiz-adv-x="0" />
<glyph unicode="&#xd;" horiz-adv-x="1024" />
<glyph unicode=" "  horiz-adv-x="632" />
<glyph unicode="&#x09;" horiz-adv-x="632" />
<glyph unicode="&#xa0;" horiz-adv-x="632" />
<glyph unicode="!" horiz-adv-x="464" d="M33 193l73 -66q51 -45 127 -147q45 61 95.5 117.5t103.5 105.5q-51 41 -87 73.5t-58 59.5q-4 4 -8.5 9t-10.5 15q-10 12 -14 18.5t-8 14.5h-31q-88 -113 -182 -200zM35 1221q16 -43 28.5 -74t14.5 -35q63 -186 102 -504q4 -29 6 -58.5t4 -68.5q2 -10 3.5 -30.5t3.5 -32.5 h73q41 424 105 641h-2q10 35 26.5 78t32.5 84q-123 106 -194 223q-47 -66 -96.5 -121t-106.5 -102z" />
<glyph unicode="&#x22;" horiz-adv-x="569" d="M35 1372q0 -18 2 -26v2l53 -482h68l61 506q0 4 1 9t1 10q0 4 -1 9t-1 9q-18 66 -90 66q-33 0 -57 -19q-37 -27 -37 -84zM350 1372q0 -18 2 -26v2l54 -482h67l62 506v23q0 10 -3 16q-18 63 -86 64q-35 0 -59 -19h2q-39 -23 -39 -84z" />
<glyph unicode="#" horiz-adv-x="1230" d="M31 524h336l-74 -526h127l72 526h190l-74 -526h119l76 526h354v119h-338l27 184h354v121h-338l70 494h-123l-70 -494h-188l70 494h-127l-68 -494h-348v-121h330l-25 -184h-352v-119zM506 643l29 184h190l-29 -184h-190z" />
<glyph unicode="$" horiz-adv-x="1005" d="M33 143l422 -118v-199h145v184q373 262 373 568q0 213 -144 372l-229 -123v308l191 -56l92 211q-166 70 -283 92v91h-145v-84q-53 -8 -99.5 -20.5t-85.5 -35.5q-227 -129 -227 -397q0 -59 12.5 -113.5t40.5 -101.5q18 -31 54 -75t92 -103l213 110v-374l-291 81zM229 1057 q0 84 47 170l179 -49v-428l-29 -17q-197 140 -197 324zM600 238v495l31 17q71 -37 114 -119q23 -41 34.5 -83t11.5 -89q0 -66 -23 -129.5t-63 -122.5z" />
<glyph unicode="%" horiz-adv-x="1325" d="M35 971q0 -123 71 -213q16 -20 33 -35.5t27 -26.5l10 -8q111 -109 139 -158q4 4 15.5 16.5t15.5 16.5q8 10 17.5 19.5t19.5 23.5l61 56q43 39 72 66.5t45 45.5q86 100 86 236q0 166 -147 288q-59 49 -92 79t-37 36l2 -4l-8 14l-23 47q-4 -8 -16.5 -31.5t-16.5 -27.5 q-2 -4 -8 -10l2 2q-29 -37 -58.5 -70t-58.5 -63q-49 -49 -73 -84q-78 -109 -78 -215zM176 0h127l862 1450h-121zM184 1061q0 82 74 180q55 -40 92 -67q88 -76 121 -130q14 -25 21.5 -50t7.5 -58v-6q0 -82 -84 -191q-20 12 -32.5 21.5t-23.5 17.5q-4 2 -8 6q-29 23 -47 40.5 t-33 31.5q-61 72 -79 137q-4 20 -6.5 38t-2.5 30zM678 410q0 -137 133 -258q18 -18 35 -31q6 -4 10 -8t6 -4t6 -5q20 -20 38 -37.5t34 -33.5q6 -10 12 -21.5t15 -34.5q29 39 57.5 72t58.5 60l62 61q106 106 131 190q14 49 14 109q0 92 -45 172q-18 29 -46 58.5t-66 60.5h2 q-10 8 -19.5 15t-17.5 13q-6 4 -10.5 7.5t-8.5 7.5q-31 23 -54.5 53.5t-39.5 58.5q-16 -20 -29.5 -39.5t-19.5 -33.5l4 4q-16 -16 -22 -25q-12 -14 -20.5 -23.5t-16.5 -17.5q-6 -8 -17 -18q-18 -20 -27.5 -31.5t-13.5 -15.5q-37 -37 -63 -74q-82 -113 -82 -231zM825 514 q0 74 78 180q82 -59 133 -106t74 -78h-2q16 -29 26.5 -60.5t10.5 -60.5q0 -94 -55 -162q-6 -8 -12.5 -16t-12.5 -18q-23 14 -40 26t-30 23q-111 82 -147 170q-23 55 -23 102z" />
<glyph unicode="&#x26;" horiz-adv-x="1417" d="M33 496q0 -27 35 -97q53 -102 107 -185t112 -148v2q61 -68 98 -68q25 0 59.5 19.5t75.5 60.5q61 74 107.5 130t74.5 95l238 -321q111 96 208 179t155 130l-46 69l-157 -124q-63 74 -121.5 152.5t-118.5 160.5l55 108q27 -4 56.5 -6t58.5 -4q16 -2 33 -2h35h41q20 0 39 2 q29 66 81 144.5t125 177.5l-67 51l-66 -86q-35 -10 -66.5 -15.5t-58.5 -5.5q-53 0 -178 19q-20 -47 -42.5 -95t-41.5 -85q-10 -23 -20 -40.5t-21 -33.5q-8 -14 -13 -26.5l-9 -22.5q-53 78 -93 138t-69 103q66 39 114 72t76 60q16 16 27.5 28t22.5 25q47 63 47 139 q0 66 -36 130.5t-104 125.5l-32 -10q-66 -20 -121 -44t-103 -52q-68 -37 -113.5 -73t-73.5 -73t-39 -76t-11 -84q0 -100 61 -200q8 -18 11 -21q-76 -43 -137.5 -88t-108.5 -88q-86 -80 -86 -147zM293 596q0 90 119 152q47 -76 80 -129t53 -82v2q18 -29 34.5 -53.5 t30.5 -47.5v2q10 -16 22.5 -32.5t18.5 -28.5q-74 -104 -100 -121v2q-12 -6 -21 -6q-14 0 -20 2h2q-23 12 -74 78q-33 39 -41 55q-104 141 -104 207zM502 1163q0 51 65 105q16 8 23 12l10 6q21 -24 23 -26q53 -80 65 -121l-2 2q6 -25 6 -49q0 -27 -4 -35q-4 -10 -8 -21.5 t-12 -21.5q-12 -18 -29.5 -34.5t-40.5 -33.5q-4 10 -9 18.5t-9 16.5q-10 16 -17.5 30.5t-13.5 24.5q-47 90 -47 127z" />
<glyph unicode="'" horiz-adv-x="229" d="M35 1372q0 -18 2 -26v2l47 -482h55l56 506q0 33 -7 49v-2q-18 55 -71 56q-31 0 -51 -19q-31 -25 -31 -84z" />
<glyph unicode="(" horiz-adv-x="589" d="M33 489q0 -295 164 -536q16 -25 34.5 -49.5t40.5 -46.5q35 -41 91.5 -87t136.5 -100l55 101q-66 47 -110 80.5t-66 56.5q-74 76 -124 164t-79 196q-31 111 -31 213q0 141 41 275q49 152 156 276q80 94 205 174l-53 103q-205 -127 -324 -320q-16 -29 -32.5 -62.5 t-35.5 -80.5l-4 -12v2q-35 -86 -50 -172t-15 -175z" />
<glyph unicode=")" horiz-adv-x="579" d="M33 1206q51 -31 91 -63.5t75 -65.5q49 -49 88 -102t65 -113q84 -178 84 -366q0 -193 -78 -365q-25 -57 -65 -115q-86 -127 -254 -241l49 -101q59 41 103.5 74t72.5 57q86 84 146.5 181.5t95.5 216.5h-2q45 135 45 268q0 113 -21.5 218.5t-66.5 201.5q-33 72 -60 115 q-115 174 -319 305z" />
<glyph unicode="*" horiz-adv-x="825" d="M31 1124q121 -47 205 -104q53 47 81 47q2 0 4.5 -1t6.5 -1q-4 -4 -5 -7t-6 -7q-20 -10 -37.5 -18.5t-35.5 -12.5q0 -104 -31 -248q119 98 197 135q-6 31 -7.5 37t-1.5 17q0 27 15 49q6 -10 10 -19.5t4 -21.5q0 -14 -12 -47q49 -27 96 -58q10 -8 35.5 -28.5t62.5 -55.5 q-27 121 -26 234q2 -6 8 -8q35 25 86 49t115 49q-33 10 -53.5 18t-35 14.5t-23.5 11.5t-19 9q-6 4 -16.5 10.5t-26.5 16.5l-33 20q-4 -4 -4 -6q0 10 1 21.5t1 19.5q2 16 2 29v22q4 33 8 57.5t8 41.5l-33 18q-23 -23 -43 -38t-39 -28q-10 -8 -27.5 -17t-43.5 -24 q12 -47 12 -51q0 -29 -16 -45h2l-4 -4q-6 14 -6 31q0 23 12 63q-35 20 -82 58.5t-105 87.5q10 -59 16.5 -105.5t6.5 -77.5v-32q-51 -29 -83 -44.5t-44 -19.5q-23 -10 -51.5 -20.5t-44.5 -16.5zM256 1219q31 -10 51.5 -26t24.5 -36q-10 0 -23.5 7t-25.5 22q-14 10 -27 33z M485 1153q18 31 95 43q-47 -47 -78 -47h-4t-13 4zM500 1061q4 2 12 2q23 0 51 -25l4 -4q4 -8 15 -18q-64 12 -82 45z" />
<glyph unicode="+" horiz-adv-x="1163" d="M29 557h444v-440h217v440h445v219h-445v445h-217v-445h-444v-219z" />
<glyph unicode="," horiz-adv-x="372" d="M33 -307l90 -6q8 18 19.5 49t23.5 61q8 20 15 43t18 47q31 76 49 129q8 18 13 34t11 30l43 115q14 35 20.5 58t6.5 34q0 96 -104 96q-43 0 -74 -27.5t-41 -101.5q-29 -180 -51.5 -325.5t-38.5 -235.5z" />
<glyph unicode="-" horiz-adv-x="454" d="M33 496l387 200v160l-387 -203v-157zM35 182l387 201v164l-387 -201v-164z" />
<glyph unicode="." horiz-adv-x="471" d="M31 180q8 -10 25.5 -25.5t29.5 -27.5q8 -4 12 -8q45 -45 78 -80t60 -70q43 55 94 107.5t110 103.5q-61 45 -106 90t-80 92l-29 3q-98 -111 -194 -185z" />
<glyph unicode="/" horiz-adv-x="638" d="M29 0h151l430 1446h-147z" />
<glyph unicode="0" horiz-adv-x="1024" d="M33 645q0 -115 49 -213t164 -207q18 -16 37.5 -32.5t38.5 -32.5q14 -10 23 -21.5t24 -23.5q61 -55 123 -129q20 23 45.5 50t46.5 48q70 70 137 131q37 37 63.5 62.5t46 47t36 43t32.5 46.5q4 4 5 9t5 9q8 16 15.5 29.5t15.5 30.5q6 12 14.5 36.5t16.5 56t14 70.5t6 80 q0 27 -2 52.5t-6 48.5q-14 86 -49 151.5t-78 112.5q-35 37 -69.5 66.5t-69.5 60.5q-6 4 -11.5 8t-11.5 8q-72 59 -108.5 98t-61.5 68l-30 -2q-39 -49 -79 -100.5t-87 -104.5q-16 -18 -31.5 -34.5t-32.5 -32.5q-45 -47 -83 -91.5t-68 -101.5q-29 -49 -45.5 -95t-23.5 -86 t-9 -69.5t-2 -46.5zM238 815q0 78 21.5 133.5t29.5 65.5q16 31 43.5 66.5t44.5 56.5q45 -31 77.5 -55.5t60.5 -47t52 -44t51 -46.5q20 -20 43 -42.5t44.5 -51.5t40 -65.5t30.5 -86.5q10 -35 13.5 -60.5t3.5 -35.5q0 -47 -10.5 -89t-26 -78t-31.5 -63.5t-27 -41.5 q-14 -18 -26.5 -36t-28.5 -34q-61 41 -101 71.5t-75 59.5q-25 23 -44.5 42.5l-35.5 35.5l-4 4q-12 14 -36.5 46t-49.5 76t-42 99.5t-17 120.5z" />
<glyph unicode="1" horiz-adv-x="739" d="M31 35l47 -72q35 27 67.5 50.5t65.5 39.5q29 18 53.5 33.5t52.5 30.5q16 12 23 14q23 10 41 19.5t41 19.5q33 14 66.5 24.5t63.5 18.5t51.5 12t31.5 4q12 2 16 2h8h17l8 33q-27 14 -54.5 29.5t-50 34t-33.5 48.5t-11 95v578q4 82 13 150.5t52 121.5q25 31 52.5 48 t56.5 34l-23 80q-82 -31 -144.5 -54.5t-111.5 -39t-89 -23.5t-79 -10h-86l-4 -76h25q10 -2 26.5 -6t32.5 -21q23 -23 27 -70.5t6 -86.5v-647q-2 -41 -5 -59.5t-8 -41.5q0 -2 -1 -4t-1 -4q-8 -37 -17 -60.5t-24 -46.5q-29 -53 -71.5 -93t-89.5 -74q-4 -4 -14.5 -11.5 t-26.5 -19.5z" />
<glyph unicode="2" horiz-adv-x="1116" d="M35 31l57 -41q94 53 172 88t164 35q33 0 104.5 -11.5t157.5 -54.5q29 -12 63.5 -32.5t61.5 -37.5q10 25 22.5 59t22.5 56v-2l35 66l-2 -2q6 10 12 19t13 20q20 35 40.5 68.5t42.5 68.5q16 25 39 57.5t41 56.5l-69 52l-29 -39q-12 -16 -25 -35q-4 -4 -6 -7t-4 -7 q-18 -27 -49 -56.5t-90 -29.5q-23 0 -43.5 5t-42.5 9q-8 2 -16.5 4t-18.5 4q-76 18 -131 24.5t-86 6.5q-45 0 -88 -6q10 12 19.5 20t19.5 17l-2 -3q33 27 85 67t124 87l20 12t21 13h-2q59 39 116.5 78.5t104.5 89.5q29 27 59.5 72.5t30.5 117.5q0 45 -13.5 83t-34 69.5 t-43 56.5t-42.5 41q-29 25 -61.5 45t-62.5 34.5t-55.5 25t-37.5 14.5q-8 4 -17.5 6t-19.5 6q-29 10 -54.5 18.5t-52.5 30.5q-16 16 -23 44t-13 69q-12 -14 -38 -45t-38 -45q-31 -39 -61.5 -79t-63.5 -79v2q-47 -53 -100.5 -112.5t-102.5 -110.5l59 -60q16 14 41 32t43 30h-2 q66 41 125.5 54t96.5 13q84 0 164.5 -32.5t121.5 -106.5q18 -29 22.5 -52.5t4.5 -35.5q0 -49 -26.5 -89t-80.5 -85q-10 -8 -18 -14t-16 -13q4 4 1 1t-9.5 -8t-12.5 -11t-10 -8q-18 -12 -49 -38t-70 -60.5t-83 -77.5t-87 -95q-27 -31 -53.5 -65.5t-49 -65t-38 -54 t-17.5 -30.5q-16 -23 -33.5 -53.5t-33.5 -58.5z" />
<glyph unicode="3" horiz-adv-x="833" d="M33 1122l51 -67q37 29 63.5 47t46 30.5t37 19.5t35.5 11q35 10 58 11q29 0 51 -10.5t45 -22.5q39 -29 61.5 -73t22.5 -79q0 -18 -5 -46t-30 -62q-16 -18 -48 -44t-79 -55q-25 -14 -48.5 -27.5t-45.5 -25.5l-53 -29q-12 -8 -33 -18t-35 -18l33 -76l30 14q25 12 71 28.5 t95 16.5q39 0 84 -22q29 -16 45.5 -36t26.5 -30q0 -4 6 -10q35 -49 40 -88t5 -58q0 -70 -17.5 -110.5t-41.5 -71.5q-35 -49 -65.5 -73.5t-49.5 -32.5q-10 -4 -16 -4h-11q-29 0 -39 12t-14 29l-2 4q-4 16 -26.5 42.5t-65.5 26.5q-35 0 -55.5 -15t-30.5 -30v2q-23 -27 -26 -49 t-3 -33q0 -59 37 -99t96 -40q35 0 71 7t46 12v-3q86 27 137.5 63t73.5 54q2 2 4 3t6 5q12 10 35 27.5t47 44.5q27 25 46.5 51.5t25.5 36.5q53 86 64.5 151.5t11.5 100.5q0 84 -22.5 144.5t-47.5 93.5q-33 47 -70.5 76.5t-76.5 52.5q39 43 62.5 74.5t36.5 56t18.5 46 t5.5 48.5q0 25 -4.5 48.5t-14.5 49.5v-2q-8 29 -37.5 72t-91.5 88q-53 37 -103 55.5t-116 34.5q-43 -59 -76 -100t-64.5 -76t-70.5 -70t-96 -84z" />
<glyph unicode="4" horiz-adv-x="1097" d="M29 559h604l2 -203v-34t-4 -37q-6 -35 -18.5 -58.5t-20.5 -38.5l-2 -2q-12 -23 -27.5 -40t-37 -34.5t-54.5 -36t-80 -40.5l39 -76q4 4 19.5 9t21.5 9q31 14 57.5 27.5t49.5 26.5q16 8 32.5 19t32.5 22q10 6 15.5 11t28 15.5t46 22.5t45.5 22q76 33 129.5 44.5t89.5 17.5 q4 0 8.5 1t8.5 1l6 39q-39 10 -62.5 24.5t-39.5 42.5q-23 43 -30 83t-7 104v59h163v135q0 18 2.5 49t5.5 65t7 65.5t6 54.5q-31 -39 -55.5 -64.5t-46 -42t-42 -27t-40.5 -16.5l-2 232q0 72 3 122t11 86.5t22.5 63.5t36.5 51q33 35 61.5 47.5t45.5 16.5l-6 37h-404 q-150 -211 -310.5 -437.5t-309.5 -437.5zM274 764l361 502v-502h-361z" />
<glyph unicode="5" horiz-adv-x="724" d="M33 797q4 -2 17 -7.5t18 -7.5v2q47 -16 112.5 -44.5t118.5 -69.5q18 -14 28.5 -25.5t20.5 -19.5q4 -8 6 -11v2q20 -29 42 -70.5t22 -107.5q0 -61 -17.5 -105t-31.5 -67q-29 -43 -59.5 -70.5t-45.5 -37.5q-12 -12 -33 -23q-4 -4 -8 -5t-8 -5l2 2q-49 -29 -77.5 -38 t-63.5 -19l24 -80q12 2 48 11t83.5 26.5t100.5 46t102 69.5q35 31 61.5 65t45 62.5t31 51t16.5 32.5q27 63 33 114.5t6 76.5q0 10 -2 41.5t-11 64.5q-16 59 -40.5 98t-53.5 74l-6 6q-10 10 -24.5 23.5t-30.5 28.5q-10 8 -59.5 40.5t-112.5 67.5q-16 6 -29.5 12.5t-26.5 10.5 q-25 10 -43 19t-22 22q-8 14 -8 30t4 26.5t8 14.5q16 18 37.5 22.5t46.5 4.5h350q4 16 10.5 37.5t10.5 38l8 33t8 32.5q8 23 13 46.5t16 45.5q4 12 11 36t11 34l-78 23l-24 -70h-414q-12 -29 -29.5 -75t-37 -106.5t-38 -131t-28.5 -148.5q-4 -29 -6 -65.5t-4 -83.5z" />
<glyph unicode="6" horiz-adv-x="897" d="M31 362q0 -68 13 -110.5t40 -83.5q14 -23 32.5 -42.5t28.5 -27.5h-2q27 -23 55.5 -40t55.5 -28.5t47.5 -18.5t28.5 -9h8q20 -4 31 -8q2 0 8 -1t8 -1q16 14 34.5 30.5t35.5 30.5l-2 -2q14 12 30.5 27.5t32.5 32.5q29 25 58.5 51t58.5 53l88 88q14 14 25.5 27.5t25.5 29.5 v-2q29 35 60.5 92.5t31.5 143.5q0 14 -3 41t-13 61.5t-30.5 74.5t-57.5 77q-18 20 -55 51t-89 57q-10 6 -22 12.5t-31 14.5q-41 -41 -87 -83t-89 -77q-23 -20 -50.5 -41.5t-51.5 -44.5q18 43 37.5 77t31.5 52q14 23 34 49.5t44 57.5q59 78 114.5 133t82.5 80 q16 16 30.5 27.5t30.5 27.5q6 6 10 8q23 23 53.5 49.5t53.5 47.5l-156 133q-10 -16 -26.5 -43t-26.5 -43q-16 -27 -31.5 -53.5t-31.5 -53.5q10 12 9 10t-7.5 -10t-13.5 -19.5t-11 -17.5q-12 -23 -26.5 -40t-28.5 -40q-16 -23 -33.5 -47t-34.5 -49q-39 -55 -77 -111.5 t-72 -111.5q-29 -47 -56.5 -94t-54.5 -94q-41 -80 -69.5 -148t-28.5 -152zM231 528q0 47 10.5 86t14.5 52q2 10 10 30l37 -49l119 86q27 -8 75 -26.5t97 -71.5q16 -16 22.5 -25.5t12.5 -17.5q0 -4 4 -8l-4 4q23 -37 28 -76t5 -49q0 -41 -12.5 -74t-20.5 -47 q-10 -16 -22.5 -28.5l-16.5 -16.5q-35 -33 -66.5 -38t-42.5 -5q-29 0 -66.5 11t-68.5 36q-16 12 -31.5 27.5t-27.5 31.5q-18 27 -37 68t-19 100z" />
<glyph unicode="7" horiz-adv-x="1040" d="M33 938l73 -35q39 63 71 106.5t61 55.5h-2q16 6 39.5 7t35.5 1h4q35 0 67 -1t64 -3l326 -6q-10 -16 -18.5 -28.5t-18.5 -26.5v2q-14 -23 -27.5 -42.5t-25.5 -41.5q-51 -78 -90 -143.5t-69.5 -129t-58.5 -128t-56 -140.5q-16 -47 -34 -94t-32 -94q-12 -41 -24.5 -96.5 t-22.5 -98.5h264q0 31 1 49.5t3 36.5v6q4 51 12 99q0 2 1.5 4t1.5 6q6 47 16 96t22.5 102.5t26.5 112.5t41 132t67 162t101 204q35 68 74 135t84 141v33q-82 4 -172 6t-172 4h-84q-98 0 -170 3t-101 18q-23 10 -50.5 42.5t-57.5 78.5v-15q0 -10 -1 -22.5t-1 -24.5v-12v4 q-10 -51 -25 -96q-16 -49 -31.5 -91t-31.5 -79q-14 -35 -28.5 -71t-29.5 -71q-4 -10 -11 -28.5t-11 -28.5z" />
<glyph unicode="8" horiz-adv-x="1001" d="M33 420q0 -43 12 -79t30.5 -64.5t38 -50t36.5 -33.5q23 -14 43 -27.5t40 -26.5q14 -8 28.5 -15t27.5 -15q35 -18 67.5 -37t61.5 -43q10 -10 28.5 -27.5t28.5 -28.5q41 47 74 84t69 64q33 23 64 42t63 38h-2q14 6 29 16l-2 -2q14 10 32.5 21.5t35.5 27.5q8 6 26.5 22.5 t36.5 43.5q25 33 46.5 79t21.5 119q0 72 -28 120t-64 83q-25 20 -66 42t-104 50q33 16 64.5 39t66.5 56q25 23 46 56.5t21 90.5q0 53 -21.5 89t-43.5 54q-4 4 -18.5 16.5t-35.5 28.5q-31 18 -57.5 29.5t-52.5 24.5q-23 10 -48.5 22t-56.5 29v-2q-31 20 -47 37.5t-24 27.5 l-35 -2q-4 -8 -8 -13t-11 -11q-20 -20 -59 -48t-74 -53l-47 -30q-76 -57 -111.5 -105.5t-52.5 -95.5h2q-10 -31 -12 -52.5t-2 -31.5q0 -49 12.5 -90t28.5 -71t33.5 -50t30.5 -31v2q10 -10 18 -17t16 -13q-55 -41 -104 -85t-74 -106q-4 -10 -11 -36.5t-7 -61.5zM221 508 q0 35 16.5 68.5t38.5 56.5q6 6 13.5 12t15.5 12q2 2 4 3.5t4 3.5q14 -6 30 -12.5t30 -10.5q23 -8 43 -15.5t43 -11.5l53 -16l61 -20q2 0 3.5 -1.5t3.5 -1.5h-7q16 -6 45 -16t59 -23.5t56.5 -31t38.5 -35.5h-2q12 -16 12 -51q0 -31 -8 -49.5t-14 -28.5q-16 -29 -47 -53.5 t-60 -42.5q-16 8 -34.5 14t-34.5 14q-31 12 -58.5 22.5t-54.5 20.5q-45 14 -84 29.5t-86 46.5l4 -4q-8 4 -22.5 14.5t-27.5 25.5t-23.5 35.5t-10.5 45.5zM238 1073q0 47 29.5 80t49.5 45q18 -8 39.5 -17.5t44.5 -19.5q8 -4 18.5 -8t20.5 -8q59 -18 126 -46t102 -63 q20 -23 24 -38t4 -23q0 -23 -16 -52.5t-70 -62.5q-29 10 -52 17.5t-46 15.5v-2q-8 4 -15.5 5t-17.5 5q-61 16 -121.5 40t-97.5 71q-4 6 -13 23.5t-9 37.5z" />
<glyph unicode="9" horiz-adv-x="921" d="M35 834q0 -53 14 -93.5t25 -58.5q10 -14 22.5 -30.5t28.5 -35.5q14 -16 30.5 -30.5t26.5 -20.5q43 -35 84 -57.5t66 -34.5q4 -2 12 -5t16 -7q37 37 79 75.5t79 73.5q31 29 68 60.5t67 58.5l-49 68l-115 -90q-53 18 -111.5 49.5t-98.5 109.5q-23 43 -27 71t-4 40v4 q0 74 34.5 114t67.5 54q10 4 28.5 9t45.5 5q57 0 105.5 -25.5t82.5 -56.5q59 -57 73.5 -111.5t14.5 -84.5q0 -53 -17 -105.5t-38.5 -95.5t-42 -73.5t-27.5 -39.5q-49 -74 -104 -143.5t-107.5 -128.5t-96.5 -106.5t-72 -75.5q-6 -6 -20.5 -21.5t-18.5 -19.5l129 -99 q10 16 24.5 38t24.5 34q12 18 23.5 35.5t23.5 34.5q16 25 32.5 49.5t32.5 50.5q14 20 26.5 38.5t25.5 39.5q8 12 16 23.5t14 23.5v-2q33 47 65 95t62 95q23 33 52.5 83.5t59.5 102.5t55.5 102t37.5 85q16 45 21.5 87t5.5 71q0 86 -38 141.5t-91 98.5q-55 43 -107.5 76.5 t-103.5 62.5l-35 -35q-8 -8 -25 -21q-12 -10 -26.5 -22t-26.5 -23q-27 -20 -48 -38.5t-32 -28.5l-30 -23q-16 -12 -34 -27.5t-34 -29.5v2q-20 -16 -41.5 -38.5t-46.5 -49.5q-45 -49 -70.5 -89t-40 -74t-18.5 -61.5t-4 -49.5z" />
<glyph unicode=":" horiz-adv-x="462" d="M31 784q53 -47 100 -102t90 -121q47 59 100.5 113.5t110.5 101.5q-117 104 -186 201h-29q-27 -35 -50.5 -61.5t-45.5 -49.5q-10 -10 -26.5 -24.5t-41.5 -32.5q-2 -2 -12 -12.5t-10 -12.5zM33 188q106 -100 194 -217q94 119 199 209q-55 51 -100 100.5t-84 100.5h-29 q-37 -47 -82 -96t-98 -97z" />
<glyph unicode=";" horiz-adv-x="552" d="M31 168q49 8 69.5 9t40.5 1q41 0 71 -10t62 -37q63 -45 64 -125q0 -35 -16 -80v2q-10 -23 -19.5 -38t-15.5 -25q-23 -33 -57.5 -63.5t-82.5 -55.5l46 -74q82 45 143 92q29 23 74 78q111 135 110 279q0 57 -22 121q-43 119 -201 202q-16 -16 -34.5 -37.5t-33.5 -35.5 l-28 -31zM94 807q53 -45 102.5 -98.5t98.5 -114.5q47 63 98 115.5t105 97.5q-53 45 -99.5 94t-85.5 103l-30 2q-41 -53 -89.5 -102.5t-99.5 -96.5z" />
<glyph unicode="&#x3c;" horiz-adv-x="1503" d="M31 485q0 -248 168 -413q23 -20 43 -36t37 -28q8 -6 32 -31q16 16 37 38t31 32l12 12q41 35 81 64t75 55q145 -72 266 -205q20 20 43 41t33 31h-2q8 4 18 12.5t13 10.5q14 10 23 19t20 17q31 23 54 40.5t40 31.5q23 18 37 29.5t20 15.5l-51 68l-92 -66q-37 18 -66 41 l-2 475l66 62q78 -78 125 -130.5t67 -76.5q84 -111 84 -225q0 -156 -147 -340q-4 -4 -7.5 -9.5t-5.5 -9.5q-18 -23 -32.5 -41t-10.5 -14l-53 -66v2q-55 -66 -105.5 -121t-80.5 -89l65 -48q33 33 64 65t47 50l129 129q182 182 274 318q47 68 66 110q25 68 24 160 q0 123 -53 225q-29 53 -82 115.5t-127 134.5l-110 104q-33 -35 -65 -66.5t-50 -47.5q-37 -37 -80 -74v350q0 98 39 137q31 31 143 84l-34 76q-141 -63 -246 -96t-174 -35q-12 0 -30.5 2t-41.5 6l-12 -34q41 -27 66.5 -45.5t33.5 -30.5q14 -20 15 -84v-268q-59 35 -121 69.5 t-109 63.5q-4 -4 -14 -10.5t-15 -10.5q-23 -16 -38 -27.5t-27 -21.5q-94 -68 -154.5 -120t-85.5 -91q-33 -53 -50 -124t-17 -161zM276 621q0 78 5.5 131t15.5 82q2 8 8 14l234 -150l123 144v-451q0 -41 -2.5 -68.5t-6.5 -46.5l-39 58q-109 -84 -168 -84q-53 0 -90 61 q-80 119 -80 310zM555 184q20 16 39 30t37 24q-14 -12 -32.5 -25.5t-43.5 -28.5z" />
<glyph unicode="=" horiz-adv-x="1173" d="M37 324h1104v213h-1104v-213zM37 770h1104v213h-1104v-213z" />
<glyph unicode="&#x3e;" horiz-adv-x="1355" d="M33 492q0 -80 18 -156q16 -66 46 -124t75 -108q23 -29 57.5 -58.5t81.5 -63.5q10 10 23.5 25.5t19.5 21.5l15 12q61 57 266 199l-29 -31q57 -35 136 -89t184 -136l18 18q14 14 31.5 28.5t40.5 32.5q37 31 63.5 51.5t46.5 35.5q23 16 44.5 30.5t39.5 28.5q12 10 32 23.5 t30 21.5l-41 72l-172 -117l-66 51q-23 16 -40 27.5t-31 21.5h-2v479h290q10 29 22.5 52.5t24.5 44.5q14 23 35 55.5t29 42.5h-127q80 72 104 113v-2q10 18 15.5 39.5t5.5 44.5q0 106 -158 215q-4 2 -9 7l-11 11q-35 -31 -67 -62.5t-48 -48.5l-111 -102v21v8q0 61 37 102 q31 27 57.5 45.5t61.5 36.5l-33 70q-43 -16 -105.5 -38t-125.5 -44q-43 -16 -72.5 -23.5t-42.5 -9.5q-18 -4 -43.5 -8t-51.5 -9.5t-46.5 -8.5t-30.5 -5q45 -25 74 -40t37 -23v2q51 -47 51 -154v-215q-78 41 -144.5 78t-101.5 59q-35 -23 -87 -59.5t-109 -81.5 q-133 -102 -168 -184q-39 -96 -39 -225zM276 616q0 78 7.5 132.5t19.5 87.5v-2q2 4 3 5t3 5l244 -156l129 148v-447q0 -92 -31 -129l-41 72q-23 -16 -39 -28.5t-30 -20.5q-59 -33 -101 -33q-51 0 -86 61h2q-39 66 -59.5 140.5t-20.5 164.5zM915 983l3 104l106 99 q102 -68 102 -123q0 -35 -55 -80h-156z" />
<glyph unicode="?" horiz-adv-x="917" d="M31 985l57 -61q8 10 23.5 23.5t21.5 19.5q12 10 18.5 16t10.5 10q45 35 88 54.5t88 27.5h-2q39 6 55 6q100 0 168 -63q53 -51 53 -127q0 -82 -77 -178q-90 -113 -138 -281l78 -22q25 47 49.5 84.5t48.5 62.5q80 76 123 111q16 14 32.5 29.5t35.5 33.5q123 135 123 273 q0 190 -158 276v-2q-14 8 -30.5 16.5t-39.5 16.5h3q-8 4 -16.5 6t-16.5 6q-29 10 -50.5 18.5t-37.5 16.5h2q-16 10 -27.5 18t-21.5 19q-4 4 -11 16q-4 4 -9 13.5t-19 37.5q-70 -86 -126.5 -152.5t-84.5 -97.5q-66 -72 -122 -132t-91 -95zM225 197q55 -47 109.5 -100.5 t105.5 -110.5q49 59 102.5 116.5t112.5 112.5q-49 35 -101 82t-105 104h-29q-47 -53 -95.5 -105t-99.5 -99z" />
<glyph unicode="@" horiz-adv-x="1847" d="M35 446q0 -385 250 -630q248 -248 635 -248q311 0 540.5 165t351.5 470h-102q-96 -258 -309 -400q-106 -72 -226 -105.5t-253 -33.5q-330 0 -539 209q-207 211 -207 539q0 238 113 452q113 211 304 320.5t427 109.5q266 0 436 -163.5t170 -434.5q0 -78 -17.5 -151.5 t-49.5 -145.5q-49 -106 -142 -188q-102 -100 -192 -100q-25 0 -42.5 16t-17.5 39q0 41 31 149l186 643l-282 -12l-17 -59q-37 94 -139 94q-59 0 -110 -27q-100 -57 -193 -155q-221 -244 -221 -566q0 -88 39 -153q55 -80 143 -80q115 0 229 131q12 12 29 35.5t37 56.5v-35 q0 -94 61.5 -141t157.5 -47q154 0 291 84v-2q152 90 238 278q78 172 77 357q0 182 -84 340q-90 172 -270 262q-166 78 -369 78q-270 0 -493 -121q-115 -59 -201 -147.5t-149 -200.5q-121 -219 -121 -482zM711 289q0 86 49 233h-2q23 63 45 119.5t51 106.5q66 122 115 122 t49 -104q0 -61 -16.5 -130t-45.5 -142q-33 -76 -68.5 -134.5t-78.5 -101.5q-39 -39 -59 -39q-39 0 -39 70z" />
<glyph unicode="A" d="M33 1069q0 -68 57 -133l191 74q-39 47 -59.5 82.5t-26.5 58.5v-2q-2 4 -2 10q-2 8 -3 17q0 35 58 41q14 2 27.5 3t23.5 1q119 0 199 -78q25 -25 44 -51.5t36 -53.5q27 -53 41 -117.5t14 -140.5q0 -102 -33 -196q-16 -39 -51 -88q-16 -23 -30.5 -41.5t-29.5 -34.5 q-59 -53 -101 -86t-66 -49q-47 -33 -119 -64l8 -35q131 -4 227 -43q6 -4 11.5 -5t11.5 -5q16 -6 31.5 -14t29.5 -15v2q63 -41 109.5 -72.5t73.5 -53.5q29 20 61.5 42.5t56.5 38.5q57 39 105.5 72t83.5 57q43 -98 145 -206l406 223l-37 65q-109 -43 -140 -43q-20 0 -28 7 q-29 14 -43 36q-35 51 -35 168v660q0 131 66 221q33 41 57 67.5t37 36.5l-21 33q-94 -51 -169.5 -95t-139.5 -85h2q-29 -18 -44 -30.5t-21 -18.5q-51 -49 -52 -133v-822l-106 -69q-92 59 -171 104t-149 74q53 51 89 87t59 62q186 223 186 443q0 248 -205 393q-92 68 -215 84 l-30 -12q-166 -70 -301 -176q-119 -98 -119 -195z" />
<glyph unicode="B" horiz-adv-x="1712" d="M37 416l24 -82q199 41 326 74.5t186 66.5q201 100 297 268q76 27 121 27q111 0 228 -63q88 -53 143 -116t78 -140v2q4 -18 7 -36t3 -36q0 -80 -45 -154q-31 -55 -84 -84q-55 -32 -130 -32h-5q-131 0 -271 65q-51 23 -105 57.5t-114 77.5q-51 39 -98 68t-90 45 q-51 -14 -99.5 -26.5t-95.5 -22.5q-61 -14 -128.5 -26.5t-118.5 -20.5l18 -78l84 10q10 0 17.5 -1t17.5 -3h2t4 -2q55 -27 99 -49.5t83 -40.5q322 -174 619 -174q307 0 495 180q168 156 168 369q0 63 -12 104q-68 238 -336 334q4 4 10 6t11 6l-3 -2q16 10 40 26.5t57 39.5 q2 2 4 2t4 2q53 37 68 51l90 74q-41 23 -56.5 32t-19.5 11q-20 12 -35.5 22t-26.5 19q-86 63 -217 221q-72 -61 -165 -139t-197 -162q-14 29 -27.5 47t-25.5 35q-47 57 -107.5 100t-138.5 78q-29 8 -52.5 13t-39.5 9q-129 -74 -234.5 -134t-171.5 -101l14 -35 q57 14 100.5 20.5t65.5 6.5q180 0 287 -103q94 -94 94 -239q0 -141 -106 -260q-29 -31 -62.5 -55.5t-76.5 -47.5q-23 -12 -44.5 -21.5t-37.5 -15.5v2q-66 -20 -138.5 -37.5t-150.5 -31.5zM909 850q23 96 23 137q0 39 -17 117l146 110q45 -4 121 -63q2 -2 13 -12.5t28 -22.5 q16 -16 34.5 -29.5t38.5 -29.5q-76 -49 -149.5 -92t-149.5 -78q-25 -12 -47 -21.5t-41 -15.5z" />
<glyph unicode="C" horiz-adv-x="1263" d="M35 657q0 -221 119 -395q137 -195 370 -254h-2q76 -20 170 -20q86 0 161 25.5t144 72.5q88 61 146.5 151.5t83.5 186.5l-31 16q-25 -31 -66 -61q-133 -102 -327 -103q-113 0 -199 25v-2q-4 2 -8 3t-8 3h2q-12 4 -21.5 7t-13.5 5q-61 27 -92 43l211 129q12 143 12 211v471 q72 -16 125 -16t110.5 8t120.5 27q10 12 18.5 24.5t14.5 24.5q16 31 21 49l-2 -4l28 72l7.5 22.5t7.5 20.5q6 16 16 49t12 43q-143 -47 -231 -57q-47 -6 -86 -7q-72 0 -201 41q-104 -55 -187 -110t-151 -111q-68 -53 -102 -94q-172 -201 -172 -496zM229 838q0 170 72 270 q23 33 49.5 60.5t59.5 56.5v-660q0 -86 -21 -147q-16 16 -27.5 28.5t-17.5 20.5q-115 145 -115 371z" />
<glyph unicode="D" horiz-adv-x="1673" d="M37 1165q96 -68 156 -84q57 -10 99 -17t79 -9q14 -2 28 -2t27 -2q18 -2 32.5 -3t26.5 -4q-74 -53 -132 -109t-105 -116q-41 -53 -79 -127t-67 -168q49 6 80 10.5t39 4.5q74 0 139 -35q70 -37 101 -113v2q4 -16 9 -34.5t9 -39.5q-78 -72 -143.5 -128t-114.5 -97 q-14 -12 -34.5 -28.5t-30.5 -26.5l55 -62q86 59 111 72q68 29 198 31h17q86 0 177 -14.5t189 -40.5q33 -10 61.5 -20.5t55.5 -20.5q16 10 36.5 21t35.5 20q16 10 29.5 16t23.5 12q100 53 168.5 96.5t105.5 71.5q51 43 90 93.5t68 105.5q14 33 25.5 63.5t21.5 63.5 q14 55 14 127q0 252 -155 401q-20 20 -43 36.5t-45 31.5q-74 43 -173.5 75.5t-226.5 53.5q-199 27 -344 44t-245 27q-72 10 -120 23.5t-77 32.5l2 -2q-18 14 -41 30.5t-29 22.5q-12 -29 -29.5 -70t-27.5 -67l-29 -90q-4 -14 -9 -30.5t-9 -27.5zM393 762q0 109 185 250 q14 12 24 18q2 2 4 2l121 -10q-16 -14 -29.5 -24.5t-23.5 -18.5q-25 -18 -40.5 -29.5t-19.5 -15.5q-23 -18 -43 -36.5t-43 -41.5q-10 -8 -22 -19.5t-27 -25.5l13 -25q16 -25 35.5 -57.5t41.5 -71.5q41 -72 65.5 -116.5t29.5 -67.5l-97 -82v27q0 164 -112 262v-2 q-47 37 -58 59q-4 16 -4 25zM670 362q70 53 142.5 95.5t150.5 79.5q-16 39 -33 72.5t-39 68.5q-106 174 -111 188q-6 12 -6 37q0 51 68 105q92 -14 157.5 -26t112.5 -26q53 -14 98 -30.5t78 -38.5q18 -12 35.5 -25.5t26.5 -21.5h-2q74 -61 106 -140q6 -16 13.5 -38.5 t13.5 -51.5q8 -35 8 -82q0 -102 -45 -159q-12 -16 -26.5 -30.5t-35.5 -25.5q-74 -49 -200 -49q-211 0 -512 98z" />
<glyph unicode="E" horiz-adv-x="1529" d="M35 395l31 -71q53 23 98 44t65 31q66 35 115 64t84 57q106 82 107 254v432q0 43 5 72t13 45l-2 -2q12 14 76 59q6 4 12 7.5t10 7.5h27l-45 82q-236 -133 -346 -232q-27 -61 -27 -196v-404q0 -37 -2 -59.5t-6 -32.5v2q-20 -49 -62 -76l2 2q-53 -35 -91 -55t-64 -31z M104 244l35 -68q182 88 269 88q76 0 208 -74q12 -6 47 -26.5t91 -52.5h-2q12 -8 24 -16.5t25 -14.5q80 -47 134 -66.5t118 -19.5q82 0 178 43q131 57 262 174l-39 76l-18.5 -18.5t-12.5 -10.5q-10 -8 -14 -12t-2 -2q-35 -23 -55 -29q-53 -25 -103 -25q-68 0 -133 33 q-14 8 -45 27.5t-84 54.5q-176 121 -317 139q-4 0 -9.5 1t-9.5 1q49 27 80 43q143 86 162 109q25 27 33 86q2 10 3 24.5t3 36.5h403l107 224h-225q121 86 147 131l-2 -2q31 45 31 106q0 37 -19 80q-29 68 -162 156l-276 -146q13 41 25 70v-2q12 20 20 38.5t16 33.5q2 4 9 10 l-21 29q-104 -43 -202.5 -92.5t-194.5 -102.5q2 -2 13 -12.5t13 -12.5q4 -6 11 -10q31 -20 39 -74q2 -10 3 -40.5t1 -77.5v-361q0 -94 -50 -149h3q-16 -16 -36 -34t-42 -34l2 2q-14 -8 -37 -21.5t-53 -33.5q-111 -59 -203 -105.5t-148 -70.5zM932 965v235q9 2 29 2 q86 0 141 -47h-2q33 -25 37 -80v-4q0 -49 -52 -106h-153z" />
<glyph unicode="F" horiz-adv-x="1224" d="M31 127q80 -35 106 -78h-2q12 -18 17 -29q14 -18 18 -32q29 -55 69 -101.5t85 -85.5q155 -120 316 -120h3q129 0 240 73q41 27 71.5 58.5t55.5 66.5v-2q47 74 71.5 155t24.5 167q0 225 -150 450v-2q-16 27 -31.5 50.5t-25.5 43.5h195l94 224h-449q-135 192 -135 276 q0 70 45 109l-2 -2q32 30 77 30h3q72 0 121 -57q16 -16 27.5 -38.5t19.5 -47.5v4q4 -31 7 -66.5t5 -48.5q86 23 144 23l133 -8q-10 59 -15.5 101t-5.5 65q0 49 21 125q-57 2 -95 6t-63 10q-43 10 -73.5 19.5t-53.5 15.5q-41 6 -76 6q-123 0 -211 -64q-113 -76 -143 -233 q-18 -133 -25 -199q-6 -47 -17 -83t-30 -60q-25 -41 -121 -107h228q240 -311 282 -405q74 -147 74 -299q0 -180 -84 -246q-16 -12 -35.5 -17t-38.5 -5q-98 0 -167 86q-53 61 -91 161v-2q-8 25 -16 54.5t-15 58.5t-13.5 53.5t-8.5 40.5q-139 -24 -249 -24h-9q-23 0 -51.5 1 t-46.5 3z" />
<glyph unicode="G" horiz-adv-x="1624" d="M35 631q0 -266 237 -443q127 -92 297 -145q160 -47 291 -47q199 0 381 100q66 33 117 78q70 57 119 126t79 155q31 94 31 172q0 139 -82 264q-27 43 -61.5 79t-75.5 68q-23 18 -82 43q-10 -8 -19.5 -14t-17.5 -12q47 45 87 88t75 86q18 29 32.5 48t24.5 34q41 57 41 80 q0 63 -63 63q-55 0 -55 -55v-13q0 -6 2 -12q2 -4 2 -8t2 -6q-4 -27 -72 -27q-59 0 -188 31h2q-117 35 -205 59.5t-148 44.5q-39 -25 -75.5 -48t-65.5 -42q-63 -41 -105 -66.5t-63 -39.5q-29 -20 -53.5 -36.5t-42.5 -31.5q-31 -29 -37 -30q-117 -90 -172 -158 q-137 -168 -137 -385zM307 817q0 66 17.5 126.5t58.5 115.5q18 31 44 58.5t54 49.5v-2q14 14 30.5 25.5t39.5 26.5q18 -4 40.5 -9.5t47.5 -11.5q51 -14 112.5 -30.5t133.5 -35.5l-23 -24q-51 -47 -174 -125v-504q0 -98 -8 -129q-10 -35 -43 -84q-109 61 -191 166 q-20 27 -32.5 46.5t-18.5 31.5q-14 23 -24.5 42t-18.5 38q-23 55 -34 112.5t-11 116.5zM709 221q53 51 114.5 101.5t126.5 103.5q6 29 8.5 56.5t4.5 60.5q2 27 2 80v133q45 39 104 39q88 0 156 -68q61 -55 90 -143q18 -55 18 -121q0 -131 -47 -209l2 2q-14 -20 -25.5 -33.5 t-23.5 -23.5h2q-27 -16 -43 -25.5t-22 -13.5h2q-37 -14 -76 -21.5t-86 -7.5q-117 0 -307 90zM965 860v133q0 31 3 58.5t7 56.5q53 -12 124.5 -25.5t149.5 -27.5q-98 -72 -158.5 -112t-91.5 -60q-10 -8 -19 -13.5t-15 -9.5z" />
<glyph unicode="H" horiz-adv-x="1503" d="M31 696q117 -137 205 -334q186 86 327.5 141.5t245.5 78.5q45 10 77 15t50 5q76 0 139 -47q80 -70 101 -195v2q2 -14 3 -31.5t1 -33.5q0 -94 -29 -168q-70 -170 -262 -211q-35 -6 -64 -6q-72 0 -131 35q-57 29 -57 76q0 31 55 51q63 37 66 116q0 57 -37 96.5t-98 39.5 q-104 0 -144 -111v2q-6 -14 -8 -31.5t-2 -38.5q0 -104 70 -192q63 -74 145 -109q49 -18 102 -30q20 -4 48 -6.5t61 -2.5q127 0 254 62q49 23 89 51.5t71 56.5q92 92 129 213q29 90 28 160q0 143 -63 262q-25 47 -66 99.5t-100 109.5l-12 13q-10 10 -24.5 22t-20.5 18 q-180 -76 -316.5 -135t-224.5 -98q-37 -16 -77 -31.5t-87 -31.5q-23 43 -36 69.5t-17 34.5q-4 4 -5 9t-5 9l2 -2q-10 16 -18.5 30.5t-16.5 29.5q303 127 463 223q29 18 60.5 39.5t62.5 44.5q98 78 191 179.5t183 232.5q-16 2 -42.5 4t-36.5 4q-8 0 -13 2l-28 6 q-29 6 -53.5 11t-47.5 9h2q-109 29 -192.5 53.5t-126.5 39.5l-25 -82l160 -54q-6 -16 -13.5 -29.5t-13.5 -23.5q-16 -31 -36.5 -61.5t-45.5 -61.5q-43 -59 -102 -118.5t-133 -122.5q-217 -186 -408 -285h2q-43 -18 -88 -39.5t-67 -32.5z" />
<glyph unicode="I" horiz-adv-x="1458" d="M33 258l67 -65q102 90 152 90q31 0 72 -13l-2 2q27 -12 47 -22t41 -23q16 -10 29.5 -16t23.5 -12l-4 2q4 -2 7 -3t5 -3q14 -10 26.5 -16.5t22.5 -14.5l19 -12q10 -10 22 -17q18 -10 34.5 -18t29.5 -17l-2 2q59 -41 107 -72.5t77 -52.5q68 47 130 91.5t105 74.5 q168 123 226 185q106 113 106 237q0 35 -16.5 95.5t-50.5 150.5v-2q-29 86 -45.5 155.5t-16.5 122.5q0 104 88 213q8 8 14.5 15.5t12.5 15.5q14 18 31.5 35.5t29.5 30.5l-61 61l-107 -110q-57 -59 -101 -113.5t-75 -104.5q-84 -125 -84 -227q0 -78 45 -211 q35 -98 50.5 -170.5t15.5 -122.5q0 -100 -60 -141q-27 -20 -69 -20q-23 0 -43 6q-76 25 -166 82q-123 82 -260 211q-16 14 -41 38.5t-45 42.5q-109 -109 -205 -198.5t-182 -161.5zM178 1223q0 -51 45 -117l176 108q-47 68 -47 95q0 59 74 59q37 0 131 -47h-2 q20 -10 37.5 -18.5t30.5 -16.5q23 -10 38 -17t23 -12q209 -114 280 -114h1q47 0 114 45q16 10 32.5 25.5t35.5 33.5l207 215l-62 62q-76 -78 -104 -94q-35 -27 -88 -27q-141 0 -342 158l-92 73q-78 -41 -149 -83t-114 -70q-6 -4 -8 -5t-8 -6q-23 -16 -38 -26t-30 -21 q-47 -37 -78.5 -66.5t-43.5 -58.5q-18 -35 -19 -75z" />
<glyph unicode="J" horiz-adv-x="1646" d="M37 -115l63 -67q20 23 36 36t24 17q63 47 137 47q100 0 240 -63q49 -23 75.5 -36.5t30.5 -15.5q12 -6 22.5 -12t20.5 -12q66 -35 122 -64.5t91 -48.5l219 131q227 141 361 275q68 68 92 110q23 35 31 77t8 91q0 102 -54 248l-77 215q-63 180 -64 240q0 59 47 141 q16 31 47 72t76 96l-65 51q-47 -53 -93.5 -107.5t-78.5 -95.5q-16 -20 -30.5 -35.5t-25.5 -29.5q-23 -29 -39 -48.5t-12 -15.5q-47 -72 -65 -133v2q-12 -47 -13 -92q0 -59 24.5 -127.5t49.5 -134.5l12 -31q45 -117 68.5 -205t23.5 -151q0 -133 -86 -207q-61 -55 -147 -55 q-109 0 -287 90q-98 45 -174 98q-37 25 -86 61.5t-112 90.5q-90 -96 -192.5 -195.5t-219.5 -206.5zM139 1137q0 -53 64 -121l172 110q-53 76 -53 95q0 20 18 39q19 26 58 26h3q41 0 135.5 -32.5t260.5 -110.5q90 -43 160.5 -63.5t119.5 -20.5q31 0 57.5 8t49.5 23 q20 14 71 75v-2l236 271l-68 53q-84 -102 -147 -125q-43 -16 -72 -16q-139 0 -399 122q-29 14 -69 37t-87 47q-117 -59 -211 -117.5t-166 -111.5q-49 -37 -76.5 -66.5t-39.5 -54.5q-16 -35 -17 -65z" />
<glyph unicode="K" horiz-adv-x="1806" d="M35 1151q27 -45 71 -80q82 -63 183 -63q29 0 58.5 7t66.5 21q16 10 63 44t123 94v-711q0 -53 -6 -80q-12 -66 -52 -117t-104 -92q-41 -29 -114.5 -53.5t-176.5 -48.5l17 -88l211 51q106 25 180 38t115 13q63 0 131.5 -16.5t142.5 -44.5q10 -4 19.5 -8.5t17.5 -8.5l59 -31 q47 53 113 114t152 128q41 -70 80.5 -128t74.5 -105l312 202q-72 27 -91 39q-63 41 -148 167t-187 306q-45 72 -79 133.5t-61 110.5l334 230q-45 16 -69.5 27t-45.5 24q-12 6 -25.5 16t-29.5 23q-76 66 -176 225q-59 -47 -109.5 -84t-72.5 -53q-33 -23 -62.5 -44.5 t-58.5 -39.5v256q-104 -92 -173 -148.5t-97 -77.5q-41 -31 -74 -44t-62 -13q-78 0 -143 59v-2q-6 6 -15.5 18.5t-31.5 41.5q-90 -84 -145 -127q-16 -12 -45 -32.5t-70 -47.5zM639 229q49 63 84 109.5t53 79.5q57 92 84 186h-2q8 25 14.5 48.5t12.5 52.5l82 65l315 -512 q-53 4 -97 8.5t-81 14.5q-49 12 -120 37.5t-136 56.5q-57 -47 -105.5 -82t-89.5 -55q-6 -4 -14 -9zM891 815v352l108 76q25 -41 51.5 -72.5t55.5 -60.5q10 -8 16 -14t15 -13l49 -49z" />
<glyph unicode="L" horiz-adv-x="1361" d="M33 334l28 -72l332 119q137 49 236.5 92t158.5 82q88 55 132 109q10 10 17 24t17 33q25 43 35 92t10 109v233q0 51 3.5 84t7.5 51v-2q16 63 71 96h-2l54 27l-33 76q-45 -23 -77 -35t-52 -20v2q-16 -4 -29.5 -8.5t-26.5 -8.5q-16 -4 -29.5 -8t-23.5 -8 q-59 -16 -118.5 -29.5t-118.5 -28.5q-94 -27 -160 -59q-29 -18 -45.5 -31.5t-26.5 -23.5q-23 -18 -41 -53q-49 -78 -49 -203v-219q0 -213 -49 -283q-16 -23 -38.5 -43t-55.5 -37q-47 -27 -127 -57zM72 244l28 -80q162 61 201 61q80 0 254 -114q33 -23 53.5 -36.5t32.5 -19.5 h-2q119 -61 238 -61q176 0 337 125q39 31 113 100l-59 57q-112 -110 -207 -110h-2q-72 0 -160 57q-51 35 -111 70q-145 84 -249 84q-82 0 -220 -45q-76 -29 -143 -52.5t-104 -35.5zM494 504q66 94 88 211q4 25 6 49t2 53v236q0 59 2 94t6 45q8 23 29 39q31 31 155 67 l-12 -24q-47 -94 -47 -242v-203q0 -121 -12 -151q-18 -51 -76 -94q-23 -20 -59.5 -40t-81.5 -40z" />
<glyph unicode="M" horiz-adv-x="2179" d="M37 190q53 -2 89 -6t52 -8q131 -39 238 -194l338 411l-64 53l-133 -153q-109 88 -182 121l-45 18q49 72 82.5 122t50.5 81q86 147 86 287v22t-2 29q0 4 -1 9t-1 9q63 55 108 86t72 41q43 12 72 12q78 0 118 -51q31 -43 31 -127v-981q168 94 285 135l2 922q61 55 135 105 q53 37 95 53t73 16q49 0 76 -20q4 -4 7 -7.5t7 -7.5l10 -10q37 -41 80 -70q25 -16 60 -32l2 -2q2 0 4 -2q-66 -57 -99.5 -117t-44.5 -121q-6 -37 -6 -90v-53q0 -29 2 -66q0 -14 1 -28.5t1 -30.5q6 -117 6 -174q0 -90 -6 -147.5t-16 -88.5q-16 -37 -38.5 -63.5t-37.5 -38.5 l51 -72q117 86 267 170q20 12 59 33.5t94 50.5q25 14 60.5 33.5t66.5 36.5l-45 80q-41 -25 -67.5 -38.5t-42.5 -17.5q-4 -2 -25 -2q-12 0 -29 8q-24 19 -24 144v10l-2 393q0 74 10 119v-2q16 61 72.5 116.5t152.5 123.5l-43 69q-47 -28 -78 -28h-2q-39 0 -166 83 q-55 47 -91 71t-58 30q-12 2 -30.5 4t-43.5 2q-94 -78 -194.5 -158t-206.5 -159q-6 137 -60 206q-47 63 -114 93q-35 18 -88 28q-127 -113 -241 -208t-208 -167q-4 10 -6 17.5t-6 13.5q-16 29 -26.5 47.5t-18.5 26.5q-6 10 -11.5 17t-9.5 16q-10 16 -19 29.5t-18 25.5v-2 q-38 58 -38 88q0 31 43 78l-48 61l-172 -125q-37 -29 -68.5 -53.5l-49.5 -38.5q10 -33 24.5 -62.5t32.5 -52.5q39 -39 70.5 -91t60.5 -122q57 -129 57 -235q0 -39 -7 -79t-19 -83h2q-12 -43 -43 -96v2q-37 -66 -64.5 -105.5t-44.5 -60.5q-23 -27 -46 -53.5t-56 -57.5z" />
<glyph unicode="N" horiz-adv-x="1755" d="M37 334q72 -25 127 -49.5t102 -51.5v3q8 -6 24.5 -17.5t47.5 -34.5q47 -37 101.5 -88t113.5 -121q18 25 39.5 53.5t32.5 45.5q4 8 9 14t9 10q104 139 189.5 251t138.5 181l-68 54l-223 -285q-117 68 -187.5 121t-93.5 88q-32 50 -32 138v5q0 66 22.5 140.5t63.5 156.5 q25 47 52 84t56 70q98 100 225 100q94 0 168 -41q123 -68 216.5 -112.5t158.5 -69.5q-20 -25 -33.5 -45.5t-21.5 -30.5q-117 -186 -117 -399q0 -129 43 -277q4 -12 10.5 -23t10.5 -24q6 -18 13 -37.5t13 -36.5q16 -43 17 -157q166 141 280.5 235.5t175.5 134.5l-49 76 q-86 -59 -121 -59q-57 0 -94 90q-59 147 -59 313q0 72 22.5 145.5t63.5 145.5q27 41 70.5 97.5t109.5 125.5l-47 62q-137 -70 -178 -70q-14 0 -52 16.5t-104 45.5q-111 53 -179.5 83.5t-92.5 34.5h2q-16 4 -37 6.5t-43 2.5q-70 0 -152 -35q-16 -8 -34.5 -17.5t-32.5 -19.5 q-102 -66 -203 -184v2q-16 -18 -33.5 -39t-34.5 -43l-51 92q-53 100 -69 166q-6 27 -7 39l50 63l-60 60q-43 -47 -111.5 -114t-140.5 -132q18 -59 45 -119q23 -43 37.5 -70.5t26.5 -50.5q76 -152 102 -237q12 -43 12 -74q0 -162 -124 -295q-23 -23 -51.5 -46.5t-63.5 -45.5z " />
<glyph unicode="O" horiz-adv-x="1515" d="M37 688q0 -137 53 -266q23 -51 49.5 -96t65.5 -86q23 -29 53.5 -53.5t67.5 -51.5q29 -18 52 -32.5t44 -24.5q168 -84 295 -84q57 0 106 18q27 12 43.5 19.5t30.5 15.5q23 12 53.5 31.5t71.5 48.5q170 119 258 217q133 150 182 320q16 55 17 120q0 162 -154 353 q-31 41 -57.5 69.5t-42.5 46.5h2q-39 45 -62.5 78t-29.5 55q-6 20 -10.5 39t-8.5 48l-299 -277v274q-59 -33 -119.5 -62.5t-93.5 -45.5q-88 -41 -145.5 -68.5t-85.5 -46.5q-80 -53 -141.5 -111.5t-102.5 -123.5q-66 -104 -86 -224q-6 -31 -6 -100zM367 1077q61 86 170 152 l2 -615q0 -115 -23 -163q-4 -12 -11 -24.5t-16 -23.5q-27 18 -51 43q-155 149 -155 343q0 168 84 288zM561 352l254 279v444l92 84q43 -63 90 -110q10 -14 20.5 -25.5t20.5 -22.5q14 -12 24.5 -24t16.5 -23q162 -176 162 -331q0 -90 -20.5 -158t-63.5 -113q-57 -63 -172 -86 q-39 -8 -88 -8h-18q-6 0 -18.5 1t-29.5 3q-102 8 -202 55q-16 8 -33.5 15.5t-34.5 19.5z" />
<glyph unicode="P" horiz-adv-x="1462" d="M35 227l51 -63q82 45 143 45h11q2 0 7 -1t9 -1q2 -2 8 -2q0 -141 13.5 -250t41.5 -186q8 -23 23.5 -61t42.5 -91q23 43 45.5 89t28.5 61q43 102 67 241q4 16 7.5 48t9.5 79q143 -53 288 -151q55 61 103.5 111t89.5 89q86 80 133 125t57 60l-2 -2q82 92 133.5 187 t69.5 196q8 35 11.5 68.5t3.5 66.5q0 78 -15 119q-4 27 -15 58.5t-30 72.5q-51 98 -158 180q-63 47 -145 84t-186 71l-351 -299q-8 29 -16 48.5t-14 35.5v-2q-16 37 -44 71t-63 69q-16 16 -40.5 34.5t-65.5 42.5q-16 -23 -37 -48t-37 -42q-25 -31 -45 -57v2 q-20 -23 -35.5 -41t-30.5 -35q-10 -10 -24.5 -27.5t-20.5 -25.5q12 -10 33 -23.5t29 -17.5t10 -6q18 -14 37.5 -31.5t36.5 -40.5q39 -55 53 -104q8 -27 8 -103v-417q-6 -6 -14 -13.5t-19 -17.5q-8 -8 -20 -16l-27 -29q-12 -12 -28 -25q-35 -35 -69 -70.5t-52 -54.5zM547 438 v627q12 14 25.5 25.5t25.5 21.5q18 12 30.5 20.5t18.5 10.5q70 33 123 33q147 0 268 -95q23 -18 39.5 -35.5t26.5 -35.5q23 -35 34 -56.5t15 -29.5q33 -84 33 -191q0 -168 -62 -297q-47 -100 -108 -133q-29 -14 -49 -14q-41 0 -146 35h2q-96 39 -164.5 66.5t-111.5 47.5z " />
<glyph unicode="Q" horiz-adv-x="1660" d="M37 692q0 -166 61 -297q27 -55 59.5 -103t75.5 -89q37 -35 86.5 -69t108.5 -62h-2q158 -82 305 -82q41 0 76 12q29 10 62.5 27.5t78.5 46.5q57 35 110.5 71.5t100.5 75.5q-25 -31 -48.5 -69.5t-49.5 -81.5l69 -39q23 29 38.5 48t25.5 28q75 65 152 65h2q45 0 116 -45 q29 86 69 168t93 164q-78 14 -104 14q-80 0 -158 -47q-10 -6 -17.5 -13t-11.5 -12q147 197 148 379q0 154 -166 361q-6 8 -12.5 14t-12.5 14q-47 57 -93 113.5t-64 97.5q-10 25 -11 95q-20 -20 -54 -52t-48 -47q-20 -18 -34.5 -30.5t-24.5 -22.5l-146 -131v272 q-53 -29 -113.5 -59.5t-101.5 -48.5q-121 -53 -205 -100.5t-131 -90.5h2q-23 -16 -46 -40.5t-52 -59.5q-20 -29 -35.5 -51.5t-28.5 -40.5q-70 -127 -69 -283zM281 788q0 203 125 334q25 27 56.5 52.5t74.5 50.5l2 -641q0 -106 -52 -183q-57 51 -57 52q-76 88 -92 118 q-57 104 -57 217zM561 348q47 53 78 89t47 52l131 138v446l90 82q25 -33 51.5 -65.5t57.5 -63.5q98 -111 112 -125q63 -78 90 -148.5t27 -144.5q0 -2 -3 -30.5t-11 -83.5v2q-47 -188 -244 -232q-29 -6 -54.5 -8t-49.5 -2q-143 0 -283 76q-23 8 -39 18z" />
<glyph unicode="R" horiz-adv-x="1603" d="M35 1190l45 -66q47 16 82 26.5t63 10.5l66 -6l-4 2l35 -12h-3q10 -2 20.5 -3t16.5 -3l-2 2q141 -51 215 -170h-2q55 -90 56 -195q0 -51 -16.5 -100t-53.5 -98q-29 -41 -68 -75t-86 -63q-41 -25 -95 -48t-122 -46q14 -6 47 -21.5t43 -19.5l13 -6h-2q31 -23 64.5 -49.5 t68.5 -61.5q63 -61 151 -208l477 342l-53 63l-227 -158q-29 35 -54.5 61.5t-45.5 49.5q-37 35 -65 62.5t-50 48.5q33 23 49 34t27 19q121 92 188 200q12 23 20.5 42.5t16.5 35.5q51 -10 71.5 -26.5t36.5 -48.5q8 -14 19 -41h-2q31 -104 53.5 -181t36.5 -131 q12 -53 24.5 -100t22.5 -86q14 -51 25.5 -103.5t19.5 -80.5l193 102q37 20 95 47t124 55l-33 93q-35 -35 -70 -35q-23 0 -45 16q-16 16 -39 59v-2q-35 74 -41 97q-16 41 -32.5 96t-36.5 125q-25 78 -41.5 148.5t-28.5 136.5q125 96 160 188q16 53 16 82q0 123 -147 209 q-33 20 -70 36.5t-80 26.5q-78 -78 -148.5 -143.5t-133.5 -118.5l-35 35l-47 55q-16 14 -35.5 29.5t-44.5 32.5q-119 78 -313 114q-135 -141 -289 -276zM838 928h39q0 78 -37 188q69 37 135 37q115 0 155 -68q14 -29 15 -45q0 -53 -47 -94v2q-16 -14 -43 -28.5t-55.5 -24.5 t-57.5 -17.5t-51 -7.5q-6 0 -11.5 -1t-9.5 -1h-2q-4 29 -16 43.5t-14 16.5z" />
<glyph unicode="S" horiz-adv-x="1654" d="M37 756q0 -305 153 -492q90 -111 232 -176q72 -37 139 -51q119 -33 258 -33q98 0 187.5 13.5t169.5 37.5q137 43 213 103q20 16 33.5 27.5t23.5 21.5q49 43 72 76q100 135 100 272q0 55 -21 109q-43 127 -186 186q-63 29 -115 37l2 -2l-16 2t-31 4q6 6 11.5 14t9.5 17 q10 18 20.5 34.5t26.5 38.5q39 61 67 105v-2q6 10 11.5 16t9.5 12q29 47 70 103.5t82 111.5l-70 52q-27 -37 -41 -52q-61 -55 -141 -55q-37 0 -82 17q-31 10 -63 21t-62 24q-20 6 -35.5 11t-26.5 9q-2 0 -5 1t-5 1l4 -2q-215 76 -350 76q-162 0 -301 -70q-115 -57 -174 -123 q-170 -182 -170 -495zM154 610q10 -10 20.5 -16t18.5 -10q158 -96 385 -97q162 0 344 45l163 41h-2q70 16 105 17q123 0 166 -90q18 -37 18 -74q0 -76 -67 -158q-39 -45 -86 -71q-166 -98 -412 -99q-305 0 -492 174q-86 78 -131 195q-25 68 -30 143zM180 1006v4q0 59 34 107 t75 71q70 35 174 35q57 0 115.5 -10.5t119.5 -28.5l-2 2q23 -10 48.5 -19.5t48.5 -19.5q25 -10 50 -19.5t50 -17.5q90 -35 146.5 -53.5t82.5 -26.5q18 -6 44 -11t55 -11l-78 -121q-41 -6 -72 -11.5t-49 -9.5q-25 -6 -45.5 -13t-36.5 -11q-10 -4 -17.5 -5t-13.5 -3 q-188 -47 -336 -48q-190 0 -288 58q-35 18 -58 49q-43 49 -47 113z" />
<glyph unicode="T" horiz-adv-x="1523" d="M35 1094l65 -41q90 121 183 135q12 2 29.5 3t35.5 1h137q-41 -39 -67.5 -64.5t-40.5 -42.5v2q-176 -203 -176 -450q0 -188 118 -338q31 -39 71 -76t91 -71q115 -78 236 -115q74 -18 110 -25q39 -8 77 -12t73 -8q14 -2 31 -2h39h49q31 0 59 2q53 72 93 123t59 73 q29 33 74.5 86.5t99.5 112.5l-60 59q-61 -57 -116 -90q-35 -18 -68 -30h2q-47 -16 -97 -24.5t-108 -8.5q-68 0 -140.5 14.5t-152.5 40.5h2q-53 20 -79 37q29 25 50 42t38 32l67.5 50t91.5 64v617h275q74 0 164 -19l63 189v-2q8 25 19.5 53.5t21.5 56t19.5 51t13.5 35.5 q-145 -84 -260 -84h-735h-50t-45 3q-59 2 -123 12q-4 0 -16 1t-16 1q-37 -98 -75 -176t-77 -137v2q-6 -10 -11 -17.5t-9 -15.5q-10 -10 -18.5 -23.5t-16.5 -25.5zM414 797q0 139 92 270q49 68 110 123h15v-635q0 -25 -3 -42t-7 -32q-8 -16 -31 -47q-27 23 -45.5 40.5 t-28.5 29.5q-18 27 -29.5 45t-17.5 29q-55 106 -55 219z" />
<glyph unicode="U" horiz-adv-x="1613" d="M35 1143q53 10 66.5 12t19.5 2q109 0 133 -80q10 -35 10 -88v-553q0 -74 -49 -112q-16 -12 -45 -28.5t-76 -37.5q68 -18 110 -30.5t52 -18.5q37 -16 62.5 -31.5t46.5 -25.5q4 -2 8 -4.5t0 2.5q39 -20 65.5 -36t42.5 -26h-2q4 0 8.5 -3t8.5 -5l18 -12q39 -23 75 -44.5 t58 -35.5q37 35 74 70.5t61 58.5q18 16 35 31.5t29 29.5q8 6 15 11.5t16 13.5v-2q55 47 98 86t78 67v-182v-51q0 -20 -2 -36.5t-2 -31.5q0 -14 -2 -24q0 -6 -1.5 -5t-2.5 -3.5t-1 -18.5v-49q49 37 103.5 81t110 89t109.5 90t101 86l-16 33q-12 -4 -18 -4h-11q-18 0 -39 8h2 q-53 25 -53 160v542q0 74 47 121q47 43 201 74q-2 0 -11 5t-20.5 9t-20.5 9.5t-11 5.5q-23 8 -34.5 11t-15.5 5l2 -2q-150 51 -208 133q-8 10 -19.5 33.5t-26.5 52.5q-12 -29 -14 -33t-6 -6q-12 -16 -29 -33q-16 -12 -22 -18q-10 -6 -19.5 -13.5t-7.5 -9.5 q-88 -61 -311 -137q184 -47 215 -84q33 -31 33 -162v-534l-269 -227l-233 143v653q0 164 -21 223q-43 113 -211 218q-37 -47 -78.5 -96.5t-80.5 -94.5t-72 -82t-53 -59z" />
<glyph unicode="V" horiz-adv-x="1505" d="M35 1231q109 -59 151 -98q31 -37 51.5 -61.5t28.5 -41.5q84 -145 84 -354q0 -211 -78 -361q-6 -12 -17 -28.5t-28 -36.5q-4 -4 -15 -17.5t-13 -15.5q135 -23 253.5 -63.5t227.5 -98.5q23 -12 47.5 -26.5t52.5 -30.5l-2 2q6 -4 14.5 -8t12.5 -8q16 8 35.5 17t36.5 19l12 6 q12 7 18 11q70 41 133.5 91t122.5 110q305 295 305 630q0 274 -213 455h2q-43 39 -102 75t-135 75l-21 -3q-68 -47 -116.5 -81.5t-83.5 -59.5l-256 -174q-35 72 -76 131q-35 47 -86 97.5t-117 101.5q-16 -20 -37.5 -44t-33.5 -40q-33 -35 -48 -60l2 2q-31 -33 -57.5 -59.5 t-54.5 -52.5zM578 1073q139 107 239 107q137 0 258 -111q164 -145 164 -401q0 -63 -14 -115q-37 -152 -168 -293q-4 -4 -10.5 -9t-10.5 -9q-10 -10 -18 -17.5t-14 -15.5q-147 82 -211 115q-14 6 -28.5 12t-29.5 12q-90 39 -147 62q18 90 28.5 162.5t10.5 132.5 q0 190 -33 309l-5 15t-5 18q-4 4 -4 10t-2 16z" />
<glyph unicode="W" horiz-adv-x="2240" d="M37 1231q66 -27 114 -50.5t74 -43.5q49 -37 77 -85t38 -108q6 -37 6 -72v-389q0 -61 -36 -100t-107 -74q154 -86 278 -198q37 -37 72 -71t55 -54q45 35 88 64.5t70 49.5q8 6 15 11.5t14 9.5q16 10 29.5 20.5t27.5 20.5l156 104l-47 70l-166 -109q-59 51 -101.5 85 t-66.5 53v636q117 117 190 144q20 4 42 8t46 4q141 0 182 -115l-2 2q8 -35 11.5 -58t5.5 -40v-815q98 -4 135 -12h-2q41 -12 67.5 -21.5t38.5 -13.5l37 -18q47 -23 88 -46.5t64 -37.5q10 10 25.5 22t25.5 21q29 23 53.5 42t40.5 31q43 35 78 61.5t57 45.5q66 57 126.5 124.5 t111.5 145.5q100 143 135 264q10 35 15.5 72t5.5 78q0 129 -66 252q-16 31 -31.5 57.5t-33.5 46.5q-115 147 -297 228q-98 -90 -198.5 -178.5t-201.5 -170.5q-10 94 -26 131q-12 29 -32 53.5t-46 49.5q-111 94 -283 115l-133 -132q-16 -18 -31.5 -33.5l-29.5 -29.5 q-20 -18 -37 -34.5t-33 -31.5q-37 -35 -66.5 -61.5t-52.5 -48.5q-43 139 -132 225t-230 148q-68 -84 -126.5 -153t-80.5 -91zM1384 367v651q148 127 248 127q94 0 170 -70q16 -12 43 -46t49 -68q66 -121 66 -246q0 -63 -27 -150q-31 -111 -102 -200q-37 -49 -67.5 -79 t-53.5 -46q-6 -6 -8 -11q-164 88 -318 138z" />
<glyph unicode="X" horiz-adv-x="1466" d="M37 1176q68 8 113 13t61 5q82 0 149 -23v3q86 -31 143.5 -93.5t84.5 -160.5v2q6 -39 12 -58l-131 -2q-16 0 -29.5 -1t-23.5 -1h-39q-14 0 -31 -4q-47 -86 -91 -171t-73 -144l66 -43q20 27 33.5 44t23.5 27q51 51 187 52h126q0 -33 -1 -55.5t-3 -33.5q-4 -37 -17 -69.5 t-32 -67.5q-65 -116 -148 -116h-1q-63 0 -133 94l-39 -41q-55 -61 -103.5 -114.5t-79.5 -86.5q96 -129 211 -133q63 0 115 29q33 14 84 65q10 10 19.5 20.5t21.5 24.5l6 6q35 41 66.5 90.5t54.5 106.5q6 12 12 26.5t13 28.5q12 -39 25 -70.5t30 -60.5q125 -215 411 -270 q49 49 124 113.5t176 148.5l-64 61q-78 -55 -137 -55q-98 0 -176 66q-16 10 -32.5 29.5t-39.5 43.5v-2q-31 39 -53.5 92.5t-36.5 124.5l170 2q18 0 39.5 1.5t48.5 1.5h29q41 90 76.5 162.5t66.5 125.5l-64 45q-66 -78 -106 -88q-10 -4 -25 -4h-36h-213v8v21q2 102 38 162h-2 q10 12 20.5 26.5t27.5 30.5q61 55 129 55q51 0 139 -78q35 51 66.5 96.5t56 81t41 58.5t22.5 29q-23 23 -38 37t-27 24q-31 16 -66 26.5t-74 10.5q-100 0 -188 -86q-57 -53 -101 -119.5t-79 -150.5q-6 -10 -6 -17q-4 8 -7.5 14.5t-5.5 12.5q-8 23 -12 33t-6 14 q-74 135 -176 211q-35 29 -73 47t-75 29q-41 10 -116 20q-33 -31 -75 -67.5t-87 -75.5t-88 -75t-78 -64z" />
<glyph unicode="Y" horiz-adv-x="1544" d="M35 1251l35 -73q91 34 148 34h3q162 0 281 -118q98 -96 133 -254q18 -96 18 -322v-72q0 -35 -2 -73q-27 4 -55.5 6t-56.5 2q-221 0 -324 -86q-88 -78 -90 -191v-6q0 -43 17.5 -79.5t52.5 -63.5q20 -23 45 -33q55 -28 132 -28h5q123 0 295 77q45 20 84 42t69 42 q49 35 87 60.5t65 46.5q70 -27 122 -58.5t89 -66.5q16 -16 24.5 -27.5t12.5 -21.5q-8 -6 -13.5 -13.5t-11.5 -15.5q-25 -29 -24 -76q0 -49 31.5 -85t80.5 -36q57 0 103 39q59 47 59 129q0 41 -16.5 74t-63.5 82q-41 41 -86 76t-98 63q-18 10 -39 20.5t-45 20.5l84 84 q147 147 211 256q76 123 100 264q4 29 7 54.5t3 54.5q0 33 -3 65.5t-13 63.5q-27 70 -41 94h2q-10 27 -23.5 45.5t-27.5 34.5q-16 20 -33.5 37.5t-36.5 34.5q-31 29 -76 57.5t-104 58.5q-35 -29 -67.5 -56.5t-57.5 -47.5l-21.5 -21.5t-19.5 -17.5q-6 0 -12 -6 q-35 -29 -80 -61.5t-102 -75.5q-4 6 -7.5 11t-7.5 11q-23 29 -42 54l-19 24q-18 20 -42 39.5t-52 42.5q-35 27 -67 44t-60 34q-8 4 -21.5 8t-32.5 10h2q-8 4 -19 6t-22 7q-78 -49 -174 -107.5t-192 -116.5zM213 100v4q0 80 100 127q63 31 162 31q47 0 90 -4t84 -12l-2 -166 q-174 -90 -278 -90q-152 0 -156 110zM836 1112q29 25 57.5 39t50.5 23q25 8 57 8q66 0 125 -54q98 -92 99 -245q0 -203 -176 -463q-18 -27 -38 -53.5t-42 -55.5l-45 15l6 247q0 369 -94 539z" />
<glyph unicode="Z" horiz-adv-x="1062" d="M37 233q0 -137 139 -233q102 -72 250 -72q27 0 50.5 2t43.5 7q74 16 125 43q197 109 275 335q30 89 30 169v5q0 195 -147 334q-35 33 -79 58.5t-103 48.5q109 98 210 181t197 153l-53 67q-63 -39 -101 -39q-37 0 -59 8q-80 18 -199 95q-86 57 -106 63h6q-53 31 -110 31 q-78 0 -193 -96q-47 -37 -81 -67t-42 -38l51 -59q39 10 57.5 16t22.5 6q16 0 51 -13t88 -36q29 -14 59 -29.5t64.5 -34t64.5 -31.5t52 -24q10 -4 21.5 -7t21.5 -7l-287 -252q-35 -31 -69.5 -58.5t-69.5 -53.5l62 -66q63 45 127 45q63 0 122.5 -30.5t110.5 -94.5 q76 -88 76 -209q0 -166 -123 -270q-74 -61 -164 -66q-25 0 -48.5 7.5t-45.5 17.5q-47 27 -47 70q0 20 20 43q47 53 47 118q0 92 -88 136q-29 14 -61 14q-121 0 -160 -123q-4 -16 -6 -31.5t-2 -32.5z" />
<glyph unicode="[" horiz-adv-x="354" d="M39 -303h280v108h-176v1358h179v111h-283v-1577z" />
<glyph unicode="\" horiz-adv-x="806" d="M33 788h117v-112q0 -10 3 -63.5t11 -151.5q4 -86 10 -165t12 -155q2 -23 4.5 -43t4.5 -43q18 -236 30 -276q4 -12 11.5 -30.5t29.5 -65.5q27 55 39 87.5t17 51.5l-3 -2q6 16 11.5 50t11.5 83q0 2 1 4t1 6q35 289 54.5 494t19.5 331q0 100 -25 148q-8 14 -14 28.5 t-12 24.5v-2q-6 12 -11.5 22.5t-9.5 16.5q-45 84 -45 143q0 63 53 88q12 6 31 7q35 0 102 -39q41 -23 125 -88l164 295l-65 41l-43 -66q-55 35 -98.5 52.5t-69.5 17.5q-78 0 -144.5 -55.5t-109.5 -141.5q-20 -43 -34.5 -95t-29.5 -116q-14 -59 -22 -96t-19 -47 q-29 -41 -104 -62z" />
<glyph unicode="]" horiz-adv-x="352" d="M31 -180v-109h282v1579h-282v-112h178v-1358h-178z" />
<glyph unicode="^" horiz-adv-x="892" d="M35 702h151l265 533l256 -533h151l-346 703h-119z" />
<glyph unicode="_" horiz-adv-x="1142" d="M39 -190v-93h1065v93h-1065z" />
<glyph unicode="`" horiz-adv-x="415" d="M31 1348l266 -373h82l-90 373h-258z" />
<glyph unicode="a" horiz-adv-x="929" d="M35 412q0 -170 133 -310q55 -55 141 -114q59 53 109.5 101t91.5 93q70 -117 160 -209l225 209q-47 27 -79 45.5t-42 28.5q-16 16 -28.5 30.5t-22.5 35.5q-23 31 -31 63.5t-8 67.5q0 139 98 256h-2q29 29 54.5 53t60.5 51q-66 31 -143.5 85t-171.5 136 q-53 -41 -95.5 -70.5t-58.5 -39.5q-49 -35 -89 -64t-73 -53q-29 -23 -49 -41t-33 -31q-147 -158 -147 -323zM225 539q0 25 6 49q14 63 66 121l37 36q59 53 96 78l219 -153q-12 -29 -23.5 -54t-17.5 -43q-8 -27 -16 -48t-14 -40h2q-4 -14 -7.5 -25t-7.5 -20v2 q-10 -29 -18 -49t-17 -35h2q-8 -12 -14 -22t-10 -19q-2 -2 -2 -4l-2 -2q-16 -25 -33.5 -47t-34.5 -39q-90 55 -153 150q-20 29 -33.5 55.5t-18.5 52.5q-6 31 -6 56z" />
<glyph unicode="b" horiz-adv-x="1054" d="M35 188q229 -61 360 -153q16 -14 31.5 -26.5t28.5 -26.5q41 27 77.5 50t57.5 38q186 129 293 274q104 143 104 264q0 176 -164 336q-23 23 -54.5 50.5t-70.5 58.5q-10 -10 -25.5 -21.5t-25.5 -17.5q-43 -37 -65 -53q-37 -27 -68 -49.5t-57 -41.5q-8 -4 -15.5 -10 t-15.5 -12l-2 303q0 45 5 81t15 64q18 57 154 129l-33 78q-127 -66 -243.5 -98.5t-223.5 -36.5l-8 -78q53 -12 72.5 -33.5t23.5 -66.5v-766q0 -100 -51 -160q-23 -27 -100 -76zM426 319v426l123 84q29 -23 52.5 -43t39.5 -38q119 -125 119 -256q0 -109 -66 -209v2 q-16 -23 -31.5 -45.5t-31.5 -38.5z" />
<glyph unicode="c" horiz-adv-x="716" d="M35 477q0 -86 18 -160q18 -68 51 -127t86 -112l29 -23l24.5 -21t19.5 -18.5t20.5 -17.5t27.5 -21q76 82 129 129l33 25q10 8 25.5 19.5t38.5 27.5q35 25 64.5 45.5t64.5 38.5l-54 78q-70 -59 -127 -82q-16 -6 -28.5 -10t-20.5 -4h-4q-41 0 -80 57q-80 117 -80 309 q0 152 25 213q0 6 2 11l240 -154l166 194q-84 45 -163 89.5t-120 68.5l-111 -78q-78 -57 -133 -106t-67 -70q-31 -41 -50 -98q-12 -43 -19 -94t-7 -109z" />
<glyph unicode="d" horiz-adv-x="944" d="M35 475q0 -59 20.5 -112.5t75.5 -126.5q45 -61 108.5 -123t143.5 -125q29 20 74 39.5t104 42.5h-2q100 35 137 61q88 70 111 100q18 18 29.5 36t21.5 34q53 96 53 205q0 31 -7 66.5t-21 78.5q-49 135 -172 236q-61 47 -107.5 83t-77.5 58q-82 59 -96 80q-18 23 -25.5 43 t-7.5 43q0 59 54 94v-2q33 18 65 25l-18 84q-162 -45 -219 -76q-129 -74 -129 -191q0 -51 28 -106q20 -43 47 -77t60 -62l51 -39q-37 -20 -65.5 -36.5t-47.5 -31.5q-51 -35 -96 -86q-92 -102 -92 -215zM285 571q0 84 51 154q29 35 76 61q51 -35 86.5 -62t58.5 -50 q25 -23 43 -42.5t35 -37.5q88 -113 88 -236q0 -158 -133 -161q-47 0 -113 41l2 -2q-37 23 -71 57q-82 88 -113 209q-10 41 -10 69z" />
<glyph unicode="e" horiz-adv-x="716" d="M37 446q0 -201 88 -319q55 -66 89 -91.5t56 -41.5l385 246l-49 71q-16 -12 -32.5 -23.5t-36.5 -21.5h2q-78 -33 -107 -33q-72 0 -117 93v-4q-29 86 -34 131l403 243q-170 219 -223 328q-47 -23 -104.5 -51.5t-108.5 -57t-84 -51t-47 -37.5q-66 -66 -72 -190 q-4 -74 -6 -121t-2 -70zM270 580v14q0 18 1 35.5t3 38.5q4 33 7.5 66.5t9.5 68.5q12 -14 22.5 -28.5t20.5 -29.5q8 -10 14 -18t14 -18q16 -23 31 -40.5t25 -31.5l-146 -88v8q-2 14 -2 23z" />
<glyph unicode="f" horiz-adv-x="843" d="M33 795h133l18 -455q8 -238 49 -408q10 -66 20.5 -114.5t27.5 -83.5q8 -18 25.5 -50t21.5 -40q25 78 44 162.5t29 179.5q6 43 9.5 78.5t7.5 68.5l6 49q4 74 7 130.5t3 93.5l15 387l167 2v180h-57q-37 0 -65.5 2t-47.5 6q-72 14 -106 76q-23 43 -23 88q0 104 107 104 q43 0 92 -24h-2l76 -41q2 -2 35 -12h-2l13 -6.5l13 -6.5q8 12 21.5 34t23.5 38q8 12 18.5 28.5t20.5 32.5q6 10 9 15.5t10 15.5q16 25 33.5 52.5t27.5 41.5l-74 41l-41 -57q-8 4 -12 5t-8 3l4 -2q-33 16 -64.5 29.5t-54.5 23.5q-8 2 -20.5 3t-30.5 1q-168 0 -252 -202 q-12 -29 -22.5 -63t-20.5 -75q-43 -176 -121 -229q-6 -6 -63 -23v-79z" />
<glyph unicode="g" horiz-adv-x="993" d="M-53 -299q66 -16 102.5 -26.5t50.5 -14.5h-2l84 -37q29 -12 50.5 -18t37.5 -11q20 -4 41 -6t37 -2q182 0 385 207q33 33 53.5 58.5t34.5 42.5q74 111 74 219q0 41 -10.5 82t-32.5 81q-16 29 -29.5 50.5t-23.5 35.5h2q-10 25 -17.5 66t-7.5 98v160h121q6 35 13.5 68.5 t11.5 52.5v-2q8 25 19 57.5t28 71.5q-47 -4 -99.5 -6t-83.5 -4q-4 0 -10 -1t-10 -1q-23 23 -48.5 50t-53.5 66q-35 -43 -65 -71.5t-58 -51.5l-209 -4q-29 23 -58.5 51.5t-58.5 65.5q-35 -45 -70.5 -84t-76.5 -72q16 -43 22 -91t6 -101v-352q0 -84 13 -127q14 -51 63 -113 q23 -29 52.5 -57.5t47.5 -44.5l301 231q23 -35 37.5 -56.5t18.5 -25.5v2q73 -99 73 -180q0 -82 -69 -143q-55 -49 -127 -50q-43 0 -92 17q-96 37 -193 190q-33 -35 -70.5 -72.5l-74.5 -74.5t-71 -68.5t-58 -54.5zM322 438v250h219v-309v-45q0 -19 4 -33l-131 -88h-2 q-57 47 -72 98q-18 45 -18 127z" />
<glyph unicode="h" horiz-adv-x="1028" d="M35 1386q31 -29 48 -43t44 -30h-2q29 -18 41 -37q24 -34 24 -102v-5v-831q0 -18 -2 -32.5t-6 -24.5q-8 -10 -12 -18.5t-8 -12.5q-20 -16 -38 -28.5t-54 -35.5q6 -4 16 -9t22.5 -11t21.5 -10t13 -6q2 0 7 -5q45 -25 93 -64.5t103 -94.5q29 25 56.5 48t41.5 36v-2 q8 10 14.5 14t10.5 8q8 6 15.5 11t13.5 12q41 33 80.5 64.5t62.5 47.5l-51 70l-92 -68q-18 10 -36 20.5t-32 22.5v473l64 60l92 -94q141 -150 170 -244q14 -45 14 -90q0 -86 -41 -178q-10 -25 -25.5 -52.5t-37.5 -58.5q-10 -16 -26.5 -39.5t-43.5 -56.5 q-51 -70 -115.5 -146.5t-140.5 -160.5l63 -50q59 59 114.5 118t98.5 106q35 35 64 66.5t53 56.5q33 37 63.5 73.5t59.5 73.5q106 143 127 250v-2q12 39 12 94q0 119 -59 227q-14 23 -42 61t-69 87q-33 37 -83 90t-121 119q-43 -47 -93.5 -95.5t-97.5 -93.5v396q0 66 51 104 l-2 -2q31 20 66 40.5t57 33.5l-33 77q-104 -53 -191 -85.5t-159 -43.5q-41 -6 -80 -6q-12 0 -31.5 1t-72.5 7z" />
<glyph unicode="i" horiz-adv-x="638" d="M33 825q111 -27 127 -71q6 -16 6 -92v-353q0 -33 -4 -49q-14 -41 -94 -100q59 -31 117.5 -74t123.5 -100q33 37 74 72.5t94 74.5l129 94l-45 72l-102 -70l-66 37v404q0 102 45 127q10 6 37 9t62 3q-178 135 -256 238q-43 -49 -105.5 -105.5t-142.5 -116.5zM217 1073 l29 -20q143 88 215 161q47 49 47 82q0 74 -98 74q-55 0 -95 -39q-39 -53 -47 -80q-16 -35 -28.5 -80t-22.5 -98z" />
<glyph unicode="j" horiz-adv-x="520" d="M33 852q33 -16 54.5 -29.5t31.5 -23.5q16 -16 24.5 -49t8.5 -86v-588q0 -66 -4.5 -115t-12.5 -84q-16 -55 -80 -190l64 -47q72 106 121 175.5t82 104.5q12 14 24 25q8 8 19.5 16t15.5 12v689q0 98 41 149q6 6 22.5 16.5l38.5 24.5q-100 66 -211 201q-29 -25 -60.5 -52.5 t-64 -55t-62.5 -51.5t-52 -42zM211 1106l27 -25q133 66 196 127q53 53 53 90q0 80 -92 80q-74 0 -123 -100q-16 -37 -32.5 -81t-28.5 -91z" />
<glyph unicode="k" horiz-adv-x="849" d="M35 1346q135 -82 145 -138q2 -10 3 -29.5t1 -48.5v-204q-63 -82 -145 -156l147 -2v-385q0 -33 -8 -60.5t-31 -54.5l-53 -55q72 -37 154 -94.5t178 -136.5q117 113 344 272l-41 72l-168 -117q-14 12 -26.5 22.5t-22.5 18.5q-4 2 -10 6t-17 10q-31 20 -49 37q-4 4 -7 6 t-7 4v459h278q33 68 62 118t45 77h-135q102 86 131 145q8 16 10 32.5t2 35.5q0 70 -55 135q-37 45 -123 96q-74 -74 -128 -127t-87 -84q0 43 5 70.5t13 42.5l-2 -4q18 23 31.5 36t24.5 19q23 14 46 29.5t33 21.5l-32 68q-154 -57 -278 -92t-228 -45zM422 967v120l104 97 q101 -58 101 -117q0 -41 -76 -98z" />
<glyph unicode="l" horiz-adv-x="606" d="M35 193q98 -72 231 -211q29 33 48.5 51t29.5 26q43 35 97.5 75t131.5 87l-43 74l-100 -64l-59 58v870q0 102 42 161.5t128 104.5l-25 72q-66 -27 -122 -46t-103 -36q-61 -20 -121.5 -29.5t-120.5 -11.5v-80q66 -14 82 -55q6 -23 6 -117v-780q-2 -18 -2 -31q0 -10 -4 -14 q-8 -35 -96 -104z" />
<glyph unicode="m" horiz-adv-x="1503" d="M37 795q72 -25 92 -45q6 -6 16 -27q20 -47 21 -145v-605q61 31 133 67t115 54v631l133 80q35 -25 49 -45q27 -33 27 -203v-582q53 27 123.5 60t123.5 55v641l121 72l88 -86v-750q29 23 74 59.5t80 59.5l119 88q31 23 63.5 45.5t50.5 36.5l-47 63q-49 -28 -68 -28h-1 q-6 0 -19 10q-10 10 -10 105v258q0 63 68 104l4 2t10 6q2 2 12 11.5t12 11.5q-20 12 -40.5 28.5t-28.5 22.5q-59 41 -105.5 84t-83.5 90q-63 -47 -110 -79t-78 -48q-14 -10 -28.5 -19.5t-28.5 -19.5h2q-16 -10 -29.5 -18.5t-26.5 -16.5q0 41 -2 51q-12 51 -61 84 q-20 14 -96 48q-6 -4 -21.5 -13.5t-25.5 -17.5q-25 -18 -41 -27q-33 -20 -56.5 -35.5t-50.5 -29.5q-29 -20 -54.5 -34.5t-47.5 -29.5v4q0 115 -150 183z" />
<glyph unicode="n" horiz-adv-x="1040" d="M37 805q35 -14 54.5 -27.5t29.5 -27.5q41 -53 41 -152v-618q16 8 43.5 22t59.5 31.5t68 34t68 32.5l2 615q35 25 59.5 44t45.5 34l108 -91v-727q66 47 150 104.5t158 104.5q23 16 47 31.5t35 22.5l-35 69q-61 -28 -79 -28h-1q-31 0 -37 30q0 8 -1 25.5t-1 50.5v248 q0 80 37 108q4 0 8 4l-4 -4q10 6 15 9.5t10 5.5l55 28q-178 113 -240 177q-8 10 -22.5 29.5t-22.5 29.5q-16 -12 -49 -34.5t-67.5 -45t-59.5 -40t-41 -30t-29.5 -21.5t-23.5 -20q-6 -4 -15 -12q-4 49 -12 74h2q-4 16 -17.5 34.5t-37.5 37.5q-16 14 -36.5 27.5t-53.5 31.5 l-62.5 -62.5t-59.5 -61.5t-51.5 -54.5t-37.5 -38.5zM725 971q2 -4 8 -10q0 10 -8 10z" />
<glyph unicode="o" horiz-adv-x="954" d="M35 496q0 -190 149 -334q20 -20 42 -38t46 -38q57 -39 93 -106q125 78 216 133t150 88q145 96 176 229q12 51 13 98q0 96 -44.5 183.5t-111.5 146.5v-2q-16 14 -35.5 29.5t-44.5 32.5q-29 23 -54.5 49t-47.5 55l-29 4q-78 -66 -168 -108q-78 -39 -122 -61.5t-58 -33.5 q-170 -127 -170 -327zM223 647q0 127 135 144h13q92 0 196 -101q98 -94 142 -201q16 -41 16 -86q0 -80 -40 -127t-105 -47q-113 0 -220 119h2q-86 98 -122 197q-8 29 -12.5 53.5t-4.5 48.5z" />
<glyph unicode="p" horiz-adv-x="1024" d="M35 842q82 -29 113.5 -73t31.5 -128v-315l-125 -127l125 -27q0 -53 1 -98t3 -74q6 -104 17.5 -180t27.5 -123q4 -8 11.5 -25.5t25.5 -46.5q70 115 101 254q6 29 14 81t18 130q53 -23 108.5 -46.5t106.5 -45.5q66 59 123.5 117.5t110.5 120.5h-2q23 29 40 52t29 40 q76 125 76 270q0 195 -133 334q-23 23 -58.5 49.5t-82.5 52.5q-74 -78 -149.5 -158.5t-147.5 -150.5v72q-2 123 -47 176v-2q-31 35 -111 71q-23 -23 -46 -43t-36 -34q-4 -4 -8 -7.5t-8 -7.5q-16 -16 -55 -48t-74 -60zM420 604l188 184q21 -6 29 -12q18 0 55 -39 q78 -78 78 -260q0 -61 -8 -111.5t-23 -91.5q-6 -16 -30 -61q-35 16 -55.5 26.5t-35 16.5t-25.5 13t-30 18q-27 12 -58.5 24.5t-72.5 28.5q-4 2 -6 2l-4 2z" />
<glyph unicode="q" horiz-adv-x="956" d="M33 453q0 -180 65 -277q12 -18 28.5 -35.5t33.5 -34.5q55 -41 99 -68.5t75 -43.5q27 31 65.5 68.5t89.5 84.5l111 97q2 -47 3 -72t1 -27q12 -242 53 -389q12 -31 25.5 -59.5t36.5 -67.5l43 107q10 27 18 55.5t13 58.5q23 100 32 203t9 209v197q0 150 6 184q14 61 57 96 q6 4 12 7.5t11 7.5h-2l4 37q-156 41 -252 90q-49 29 -83 48t-57 36q-12 10 -29.5 24.5t-37.5 34.5q-23 -12 -34 -20.5t-21 -14.5h2l-193 -127q-45 -29 -74.5 -53.5t-44.5 -42.5q-57 -74 -57 -166v2q-4 -31 -6 -67.5t-2 -81.5zM274 446v27v68v45q0 23 2 51q2 61 6.5 98 t8.5 51q2 20 12 33q127 -94 297 -168v-295l-162 -133q-23 12 -45 26.5t-43 31.5q-35 27 -52 62.5t-22 78.5q-2 14 -2 24z" />
<glyph unicode="r" horiz-adv-x="851" d="M35 801q53 -20 69.5 -30.5t38.5 -39.5q18 -29 19 -72v-294q0 -51 -12 -76q-16 -35 -103 -88q37 -20 82 -45t93 -51.5t97.5 -55.5t92.5 -55q92 72 175 135.5t161 112.5l-48 73l-168 -114l-133 86v426l90 73l129 -157l199 182q-41 47 -70.5 85t-39.5 50l-60 82l-133 -110 q-35 -29 -63.5 -52.5t-53.5 -44.5q-2 43 -16 74q-27 68 -123 113q-92 -86 -155.5 -144.5t-67.5 -62.5z" />
<glyph unicode="s" horiz-adv-x="854" d="M35 131q78 -4 139.5 -21.5t112.5 -46.5v3q35 -23 62.5 -44.5t43.5 -33.5q117 92 170 127q156 100 203 166q53 66 53 133q0 43 -26.5 92t-73.5 92h-4q-12 10 -29.5 25.5t-46.5 33.5q-6 4 -12 7.5t-11 7.5l203 229l-59 55q-53 -49 -74 -49q-29 0 -94 35q-25 10 -40 20.5 t-20 14.5q-18 14 -34.5 26.5t-30.5 24.5q-47 -41 -91 -74.5t-69 -54.5q-49 -39 -91 -77t-74.5 -75.5t-51 -75.5t-18.5 -75q0 -68 51 -127q6 -6 22.5 -23.5t44.5 -44.5q16 -12 24.5 -21t18.5 -20zM260 727q0 18 19 43q25 31 69 31q51 0 127 -45q18 -10 35.5 -20.5t34.5 -20.5 q-6 -6 -8 -10q-23 -29 -39.5 -47.5t-28.5 -32.5l-57 -62q-120 82 -136 115q-16 29 -16 49zM299 309l137 156q59 -23 95.5 -39.5t56.5 -28.5q49 -39 49 -82q0 -35 -25 -65l2 2q-27 -29 -77 -29q-41 0 -136 41q-68 29 -102 45z" />
<glyph unicode="t" horiz-adv-x="802" d="M33 786h190l-2 -366q0 -84 -12 -117q-8 -12 -29.5 -37.5t-62.5 -62.5q59 -31 102 -54.5t72 -46.5q49 -33 145 -131q37 43 64.5 73t50.5 50h-2q10 6 38.5 29.5t76.5 62.5q18 16 34.5 28.5t30.5 23.5q8 6 21.5 18t19.5 16l-51 68l-158 -123l-102 74v495h266l27 195h-293 v289h-64q-10 -25 -15 -37t-8 -17.5t-5 -9.5l-7 -14q-4 -8 -9 -18.5t-9 -20.5v2q-45 -86 -88 -148.5t-84 -103.5v2q-16 -14 -36.5 -31.5t-40 -35t-36 -31.5t-24.5 -21z" />
<glyph unicode="u" horiz-adv-x="1042" d="M35 850l39 -76l80 35q16 -10 30.5 -38t14.5 -105v-226q0 -115 -39 -159q-10 -12 -29.5 -27.5t-48.5 -34.5q86 -53 154.5 -112.5t125.5 -124.5q63 51 135 107t148 110q8 -100 57 -156q27 -23 51.5 -39t41.5 -24q39 43 92 96t119 117q-90 57 -109 96q-12 27 -12 92v641 q-57 -27 -126 -56.5t-112 -47.5l-2 -615q-4 -2 -8 -6q-10 -8 -18.5 -13t-14.5 -10q-23 -18 -40 -31.5t-32 -23.5l3 2q-2 0 -5 -2l-96 78v463q0 143 -49 215q-18 20 -51 51q-172 -115 -299 -176z" />
<glyph unicode="v" horiz-adv-x="1030" d="M35 848q74 -47 119 -103.5t63 -117.5q18 -66 19 -107q0 -125 -93 -241q-23 -29 -46 -54.5t-44 -44.5q102 -29 196.5 -65.5t180.5 -83.5l-4 2q14 -6 34.5 -18.5t37.5 -22.5q18 14 39.5 29.5t33.5 25.5q10 8 19.5 15.5t17.5 13.5q12 10 25.5 20t23.5 21h-2q6 6 13.5 12 t11.5 10q14 12 23.5 21.5l17.5 17.5q10 8 17 13.5t12 9.5q35 31 60.5 57.5t43.5 46.5q115 121 135 230q4 18 5 38.5t1 42.5q0 143 -88 256q-68 86 -192 148l-19 -2q-74 -55 -141.5 -102.5t-130.5 -86.5q-51 109 -148 199q-18 -16 -46.5 -36.5t-61.5 -45t-67.5 -50.5 t-65.5 -48zM305 356q137 176 144 324v27q0 8 -5 34q4 2 10.5 4.5t14.5 6.5q23 14 61 14q74 0 132 -39q23 -16 36 -27.5t19 -17.5q55 -68 55 -164q0 -106 -53 -188l2 2q-29 -41 -50.5 -68.5t-37.5 -44.5q-150 78 -328 137z" />
<glyph unicode="w" horiz-adv-x="1546" d="M37 817q16 -10 26.5 -17t20.5 -14q8 -4 14 -9t15 -9l-2 2q45 -33 61 -84q8 -27 8 -84v-209q0 -43 -11 -59.5t-19 -26.5q-18 -16 -40 -32.5t-55 -32.5q78 -35 146.5 -74t128.5 -84q18 -12 32.5 -23.5t28.5 -21.5q23 -16 42.5 -30.5t25.5 -18.5q16 16 31.5 28.5t29.5 22.5 q33 29 56.5 48.5t41.5 35.5q29 23 52.5 40t42.5 32q16 12 20 16q147 -102 275 -217q31 10 72.5 36.5t101.5 67.5q162 121 244.5 243t82.5 269q0 111 -45 195q-18 35 -41.5 61.5t-38.5 38.5q-49 43 -91 75t-76 54q-66 -59 -133.5 -118.5t-133.5 -114.5q-25 51 -51 84 q-12 12 -20.5 20t-16.5 15l-16 16q-29 25 -66 49.5t-84 46.5q-82 -68 -153.5 -124t-124.5 -97q-12 86 -76 143q-43 35 -113 62q-8 -8 -26.5 -27.5t-36.5 -36.5q-10 -10 -16.5 -17t-14.5 -17q-29 -29 -56.5 -57.5t-41.5 -45.5zM420 326v385l141 100q78 -39 120 -87t42 -142 v-265l-135 -106zM967 342v367l108 88l35 -15h-2q115 -57 160 -186q25 -68 24 -123q0 -90 -35 -164q-10 -18 -22 -36.5t-31 -36.5q-4 -4 -13 -12.5t-20 -18.5z" />
<glyph unicode="x" horiz-adv-x="827" d="M35 801q109 -41 123 -113q6 -31 6 -72v-303q0 -92 -6 -217q-6 -90 -19.5 -163.5t-32.5 -139.5q-18 -59 -55 -147l74 -35q12 29 26.5 61.5t24.5 55.5q27 59 43.5 96t20.5 53q23 61 39 111.5t28 87.5q0 4 4 12q47 -29 97.5 -54.5t103.5 -49.5q43 51 83 96t67 78q8 10 14 18 t12 17l-2 -3l111 129l-60 58l-141 -156q-35 14 -62.5 25.5t-50.5 25.5l2 -2q-10 6 -19 12.5t-20 12.5q-10 4 -19 9t-19 13v379l86 92q35 -39 62.5 -74.5t53.5 -70.5l185 182q-12 18 -18.5 25.5t-10.5 11.5q-12 14 -21.5 25.5t-17.5 19.5q-35 41 -66.5 83t-48.5 63 q-14 -16 -26.5 -31.5t-16.5 -20.5q-18 -23 -33.5 -38t-21.5 -25v2q-10 -12 -19.5 -23.5t-19.5 -21.5q-20 -20 -36.5 -39.5t-30.5 -36.5q-8 84 -43 127q-66 59 -103 76z" />
<glyph unicode="y" horiz-adv-x="972" d="M25 819q63 -27 75 -37v2q10 -6 22.5 -18t22.5 -25q33 -39 56 -112q12 -45 23.5 -89t23.5 -91q47 -172 83 -299t58 -213l-65 -101q-12 -20 -23.5 -35.5t-21.5 -27.5q-10 -16 -31 -41t-53 -62l86 -63q80 115 147.5 223.5t124.5 212.5q16 29 31.5 55.5t31.5 55.5 q76 133 134.5 234t99.5 173q20 37 35.5 66.5t23.5 52.5q31 74 31 119q0 59 -74 131q-16 16 -41 31q-41 25 -80.5 38t-85.5 13q-63 0 -114 -43q-27 -20 -58 -60q-25 -31 -45 -58.5t-36 -51.5q-14 43 -26.5 74.5t-23.5 54.5q-39 66 -116 100zM434 690q27 53 53.5 81t65.5 28 q20 0 34.5 -2t24.5 -6h-2q57 -23 125 -84q33 -27 41 -37q-35 -84 -90 -194.5t-133 -250.5z" />
<glyph unicode="z" horiz-adv-x="702" d="M35 -205q20 -49 41 -74q63 -63 153 -63q180 0 332 213q106 147 107 303q0 16 -1 32.5t-3 33.5q-8 70 -36 122t-73 89q-57 49 -127 57q20 29 45 60.5t57 72.5q20 25 55.5 67t73.5 85l-69 51l-55 -64q-35 16 -46 29q-47 27 -100 82q-6 6 -12 11t-10 9l49 66l-64 51 q-33 -39 -68.5 -81t-64.5 -77q-53 -57 -101 -104t-77 -76l53 -63l111 104q86 -78 178 -141q-6 -8 -12 -15.5t-11 -15.5q-10 -16 -19 -28.5t-15 -20.5q-12 -16 -22.5 -29.5t-18.5 -25.5q-18 -20 -25 -33l-22 -23q-33 -35 -57.5 -62.5t-43.5 -43.5v2l-51 -45l61 -62 q74 74 136 74q125 0 180 -123q24 -53 24 -120v-5q0 -90 -53 -157q-47 -57 -106 -58q-47 0 -72 41q-6 10 -17.5 34t-25.5 58q-51 -45 -78 -65q-23 -16 -39 -27.5t-28 -19.5q-6 -4 -17.5 -12.5t-15.5 -12.5z" />
<glyph unicode="{" horiz-adv-x="622" d="M33 449q182 -35 182 -183q0 -33 -5 -70.5t-15 -80.5q-16 -59 -22.5 -106.5t-6.5 -82.5q0 -113 84 -207q115 -125 285 -125h53v84q-180 35 -180 175q0 47 22 159q12 53 17.5 95.5t5.5 70.5q0 158 -146 260q-39 33 -112 58q63 25 100 51q156 113 156 268q0 31 -5.5 74 t-17.5 96q-10 55 -16 95t-6 67q0 131 182 166v82q-184 0 -287 -80q-135 -96 -135 -252q0 -33 7 -78t24 -104v2q18 -84 18 -146q0 -158 -182 -192v-96z" />
<glyph unicode="|" horiz-adv-x="264" d="M39 -270h186v1702h-186v-1702z" />
<glyph unicode="}" horiz-adv-x="622" d="M35 -324v-82q94 4 165.5 26t123.5 58q133 98 133 252q0 63 -29 183v-2q-10 41 -14 77.5t-4 67.5q0 160 180 193v94q-180 31 -180 184q0 70 20 152q29 121 29 186q0 115 -84 209q-117 125 -279 125h-10l-51 -4v-80q180 -37 180 -174q0 -27 -5 -68t-17 -94 q-23 -109 -23 -164q0 -160 147 -262q39 -29 113 -57q-61 -20 -102 -50q-156 -106 -156 -270q0 -57 23 -170q12 -57 17 -97t5 -65q0 -131 -182 -168z" />
<glyph unicode="~" horiz-adv-x="1435" d="M37 479l86 -82q180 141 309 142q39 0 91 -11.5t118 -33.5l125 -41q74 -27 132 -38.5t103 -11.5q55 0 107.5 11.5t103.5 40.5q29 10 75 41.5t112 78.5l-82 80q-195 -139 -322 -139q-31 0 -70.5 8t-88.5 25h2l-174 57q-72 25 -129.5 36t-104.5 11q-162 0 -328 -123 q-16 -10 -32.5 -23t-32.5 -28z" />
<glyph unicode="&#xa1;" horiz-adv-x="471" d="M35 201q123 -106 194 -224q96 133 203 224q-16 43 -28.5 74.5t-14.5 35.5q-61 180 -102 504q-2 27 -4 57.5t-7 67.5q-2 10 -3 30.5t-3 33.5h-73q-41 -424 -105 -642h2q-10 -35 -26.5 -77.5t-32.5 -83.5zM35 1219q51 -41 87 -74t58 -60q4 -4 8.5 -11t8.5 -13 q10 -12 15 -17.5t11 -13.5h29q45 57 90 106.5t94 92.5l-74 65q-27 23 -58.5 59t-70.5 89q-90 -123 -198 -223z" />
<glyph unicode="&#xa2;" horiz-adv-x="645" d="M33 125q45 -10 78.5 -16.5t58.5 -16.5l-88 -317h104l78 274q16 -10 41 -22.5t55 -30.5l252 192l-20 82l-113 -84l-155 76l133 492l32 -19l119 185l-92 55l86 307h-102l-72 -256l-92 59q-119 -125 -246 -186v-565q0 -121 -57 -160v-49zM319 627v209l50 -31z" />
<glyph unicode="&#xa3;" horiz-adv-x="1312" d="M33 51l33 -55q295 111 522 110q227 0 563 -110l125 235q-244 94 -451 95q-94 0 -211 -25q78 131 78 258v10h289l78 211h-408q-18 59 -28.5 105.5t-10.5 81.5q0 123 74 227l399 -246l166 199l-379 239l-497 -247q-18 -47 -28.5 -93.5t-10.5 -95.5q0 -84 26 -170h-241 l-72 -211h379q66 -156 66 -264v-14t-2 -21v-4q-250 -80 -459 -215z" />
<glyph unicode="&#xa4;" horiz-adv-x="1323" d="M35 455h207q57 -199 194 -326q158 -143 367 -143q121 0 227.5 41t206.5 123v251q-209 -246 -434 -245q-139 0 -246 94v-2q-92 80 -135 207h600l74 170h-707v24h717l70 170h-756q37 119 135 205q113 98 248 98q225 0 409 -219l74 174q-213 213 -483 213q-207 0 -369 -143 q-139 -131 -192 -328h-133l-74 -170h184v-12v-12h-110z" />
<glyph unicode="&#xa5;" horiz-adv-x="1472" d="M35 1126l53 -57q31 41 53.5 64.5t34.5 33.5q43 27 80 27q55 0 98 -45q12 -10 27.5 -36t38.5 -64q2 -2 3 -5.5t3 -7.5v2q4 -4 6 -8l4 -8l221 -373v-45h-262l-61 -186h323v-240q-145 -68 -213 -106l25 -78q117 35 220.5 53.5t195.5 18.5q33 0 137 -19l90 197 q-35 10 -66.5 15t-56.5 5q-29 0 -50 -2t-44 -6v162h264l62 186h-326v49l199 471l256 -104l88 180l-105 53q-53 27 -109.5 61t-113.5 72l-254 -610l-235 402q-16 25 -35 53.5t-45 56.5q-76 94 -201 94q-102 0 -188 -75q-37 -33 -66 -78t-51 -103z" />
<glyph unicode="&#xa6;" horiz-adv-x="264" d="M39 -270h186v749h-186v-749zM39 680h186v752h-186v-752z" />
<glyph unicode="&#xa7;" horiz-adv-x="677" d="M37 801q0 -123 92 -230q25 -23 42 -40t28 -27q55 -45 97 -78t71 -55l-2 2q84 -80 84 -164q0 -51 -37 -94q-37 -49 -95 -49q-63 0 -88 38q12 10 21 13q63 47 63 123q0 82 -73 122q-25 16 -64 17q-98 0 -129 -100q-6 -18 -6 -48q0 -94 82 -176q76 -74 196 -73q115 0 199 77 q14 16 25.5 29.5t21.5 26.5q63 94 64 192q0 33 -7.5 68t-25.5 69q-10 25 -24.5 46.5t-28.5 41.5q25 31 26 33q55 82 56 180q0 31 -4.5 60t-16.5 55q-39 92 -133 178q-53 43 -92 74t-68 53l2 -2q-59 55 -73 99q-4 10 -6.5 23t-2.5 30q0 86 88 117q35 10 58 10t41 -8.5 t33 -20.5q-70 -55 -70 -129q0 -57 40 -92t89 -35q82 0 117 78q14 31 14 68q0 25 -8 47t-23 51q-53 84 -141 108q-45 14 -88 15q-104 0 -186 -68q-18 -18 -52 -57q-63 -92 -63 -203q0 -84 43 -166q-10 -12 -17.5 -25.5t-15.5 -23.5q-53 -84 -53 -180zM154 913q0 16 18 52 q14 -12 25.5 -21.5t21.5 -17.5q59 -47 99 -81t61 -50q123 -111 123 -160q0 -29 -17 -53l-30 24q-27 20 -52.5 41t-54.5 43q-90 70 -137 119q-57 55 -57 104z" />
<glyph unicode="&#xa8;" horiz-adv-x="456" d="M37 1223q0 -45 8 -86q18 -57 32.5 -96.5t24.5 -61.5h35q70 170 70 248q0 55 -55 82q-8 2 -14.5 3t-14.5 1q-61 0 -82 -58q-4 -10 -4 -32zM244 1231q0 -113 57 -240l33 -2q29 59 47 102.5t27 77.5q12 43 12 58q0 63 -53 82h2q-10 4 -18.5 5t-18.5 1q-45 0 -88 -84z" />
<glyph unicode="&#xa9;" horiz-adv-x="1492" d="M37 678q0 -184 92 -352q94 -166 258 -263q168 -94 358 -94q186 0 351 92q168 90 264 258q96 170 96 359q0 186 -96 356q-47 84 -111.5 147.5t-148.5 110.5q-162 94 -355 94q-182 0 -346 -88q-168 -90 -266 -262q-96 -168 -96 -358zM137 678q0 156 80 307q41 72 96.5 125 t124.5 94q149 84 307 84q78 0 152 -20.5t147 -59.5q72 -39 129.5 -96t97.5 -127t61.5 -147.5t21.5 -159.5q0 -156 -78 -301q-78 -139 -223 -225q-72 -41 -148 -61.5t-160 -20.5q-78 0 -153.5 20.5t-149.5 59.5q-72 39 -128 96t-96 125.5t-60.5 146.5t-20.5 160zM281 674 q0 -199 139 -326q129 -127 330 -127q250 0 401 225l-72 37q-117 -164 -295 -164q-160 0 -235 113q-35 51 -51.5 117.5t-16.5 150.5q0 156 64 246q80 113 229 113q209 0 279 -230h75l-24 314h-70q-18 -45 -35 -45q-10 0 -28 6q-115 39 -187 39q-207 0 -354 -129v2 q-150 -135 -149 -342z" />
<glyph unicode="&#xaa;" horiz-adv-x="1310" d="M35 799h145q6 -356 31 -603t65 -395l58 -170q25 86 39 143.5t20 90.5q16 94 28.5 205.5t18.5 246.5q4 66 6.5 137.5t4.5 149.5q2 63 2 111v82l176 2q8 -178 14 -303t14 -197q14 -166 34 -294t48 -222l6 -16q4 -14 11.5 -36t14.5 -43.5t13.5 -40t8.5 -24.5 q20 82 35.5 142.5t21.5 95.5q12 78 22.5 174t18.5 211q4 57 6 118.5t4 127.5v16q2 76 3 147.5t1 143.5h180v180q-33 -4 -49 -4h-30q-106 0 -156.5 29.5t-69.5 101.5q-6 20 -6 43q0 47 31 74.5t78 27.5q29 0 54.5 -8t53.5 -24q27 -12 55.5 -27.5t67.5 -32.5l92 154h-2 q33 51 53 80q2 2 9.5 14t9.5 16l-72 41l-43 -63q-10 4 -19 9t-18 9q-4 2 -6 2l-4 2q-84 43 -139 43q-90 0 -164 -67q12 16 16 22l-75 41l-41 -59q-4 4 -10.5 5t-12.5 5h2q-6 4 -11 5t-11 5q-88 45 -146 45q-170 0 -258 -208q-10 -27 -16 -46.5t-10 -33.5q0 -2 -9 -19 q-6 -23 -12 -40t-12 -40q-4 -16 -9.5 -31.5t-9.5 -29.5h2q-25 -78 -77 -115q-16 -12 -76 -31v-75zM322 1149q0 102 112 102q29 0 55.5 -9t57.5 -25q25 -14 54.5 -28.5t64.5 -25.5l41 70q-19 -49 -37 -129q-16 -49 -27.5 -80t-17.5 -47q-10 -2 -21 -2h-20q-61 0 -103.5 6 t-64.5 16q-63 31 -86 99h2q-10 37 -10 53z" />
<glyph unicode="&#xab;" horiz-adv-x="917" d="M33 479l350 -352l147 137l-268 271l287 229l-74 74zM367 485l352 -354l149 141l-266 269l279 225l-70 78z" />
<glyph unicode="&#xac;" horiz-adv-x="1984" d="M37 788h121v-110q0 -10 3 -64.5t11 -152.5q6 -86 11 -165t12 -155q2 -23 4 -43t4 -43q10 -117 18 -185.5t15 -90.5q4 -12 11 -31.5t32 -66.5q27 57 40 89.5t17 51.5l-2 -2q6 16 11 50t11 83q0 2 1 4t1 6q37 289 56.5 494t19.5 331q0 100 -24 150q-8 14 -15.5 27.5 t-13.5 23.5v-2q-6 12 -11 22.5t-10 18.5q-47 84 -47 141q0 68 58 88q8 6 30 7q82 0 154 -39q23 -12 55.5 -36t73.5 -52l168 295l-68 41l-43 -66q-102 61 -172 70q-10 2 -22 2h-21q-172 0 -266 -197q-41 -80 -70 -213q-27 -125 -40 -143q-29 -39 -109 -60zM500 485 q0 -246 168 -413l45 -36t37 -28q4 -4 11 -10t21 -21q16 16 37 38t33 32l10 12q43 35 83 64t75 55q147 -72 268 -205q20 20 43 41t33 31h-2q8 4 18.5 12.5t12.5 10.5q14 10 23 19t20 17q31 23 54 40.5t40 31.5q23 18 38 29.5t21 15.5l-53 68l-92 -66q-16 10 -33.5 20.5 t-32.5 20.5l-2 475l66 62q156 -158 194 -207q84 -111 84 -225q0 -156 -147 -340q-4 -4 -7 -9.5t-7 -9.5q-16 -20 -29 -38l-14 -17l-54 -66v2q-55 -66 -105 -121t-81 -89l63 -48q35 33 66 65t47 50l131 129q94 92 161.5 171t115.5 147q25 35 39 61.5t24 48.5q27 66 27 160 q0 123 -54 225q-29 53 -82 115.5t-128 134.5l-111 104l-66.5 -66.5t-50.5 -47.5q-20 -20 -38.5 -36.5t-41.5 -35.5v348q0 98 39 137q31 31 146 84l-37 76q-287 -129 -422 -131q-12 0 -30.5 2t-41.5 6l-12 -34q41 -27 66.5 -45.5t33.5 -30.5q16 -18 17 -84v-268 q-61 35 -124 69.5t-110 63.5q-4 -4 -14 -10.5t-15 -10.5q-20 -16 -36.5 -27.5t-28.5 -21.5q-96 -68 -156.5 -120t-85.5 -91q-33 -53 -50 -124t-17 -161zM748 621q0 78 5 131t15 82q2 8 8 14l236 -150l125 144v-451q0 -41 -3.5 -68.5t-7.5 -46.5l-39 58q-109 -84 -167 -84 q-55 0 -93 61q-80 119 -79 310zM1028 184q20 16 39 30t37 24q-14 -12 -32.5 -25.5t-43.5 -28.5z" />
<glyph unicode="&#xad;" horiz-adv-x="454" d="M33 496l387 200v160l-387 -203v-157zM35 182l387 201v164l-387 -201v-164z" />
<glyph unicode="&#xae;" horiz-adv-x="1492" d="M37 678q0 -184 92 -352q94 -166 258 -263q168 -94 358 -94q186 0 351 92q168 90 264 258q96 170 96 359q0 186 -96 356q-47 84 -111.5 147.5t-148.5 110.5q-162 94 -355 94q-182 0 -346 -88q-168 -90 -266 -262q-96 -168 -96 -358zM137 678q0 156 80 307q41 72 96.5 125 t124.5 94q149 84 307 84q78 0 152 -20.5t147 -59.5q72 -39 129.5 -96t97.5 -127t61.5 -147.5t21.5 -159.5q0 -156 -78 -301q-78 -139 -223 -225q-72 -41 -148 -61.5t-160 -20.5q-78 0 -153.5 20.5t-149.5 59.5q-72 39 -128 96t-96 125.5t-60.5 146.5t-20.5 160zM334 244h395 v71q-106 0 -115 43v277h43l287 -391h209v71q-37 2 -65.5 21.5t-55.5 54.5l-186 264q203 61 203 230q0 121 -105 186v-2q-88 53 -205 53h-395v-75q82 0 88 -31v-588q0 -35 -1 -54.5t-1 -25.5v2q-8 -35 -96 -35v-71zM614 717v313q16 4 31 6t31 2q76 0 126 -46t50 -118 q0 -158 -227 -157h-11z" />
<glyph unicode="&#xaf;" horiz-adv-x="686" d="M39 956h608v136h-608v-136z" />
<glyph unicode="&#xb0;" horiz-adv-x="655" d="M37 1174q0 -119 84 -207q86 -86 207 -86t204 84q86 86 86 206q0 125 -86 205q-83 86 -204 86q-88 0 -160 -47t-107 -127q-14 -29 -19 -57.5t-5 -56.5zM160 1169q0 72 49 120t119 48t119 -47t49 -119t-49.5 -119.5t-116.5 -47.5q-115 0 -156 98q-14 35 -14 67z" />
<glyph unicode="&#xb1;" horiz-adv-x="1175" d="M35 -51h1106v219h-1106v-219zM35 733h444v-446h217v446h445v219h-445v449h-217v-449h-444v-219z" />
<glyph unicode="&#xb2;" horiz-adv-x="1236" d="M33 791h182v-388q0 -92 -35 -139q-16 -20 -78 -63q35 -16 73 -36t54 -30v2q57 -39 96.5 -67.5t61.5 -44.5h-2q10 -10 22.5 -21.5t28.5 -32.5q47 55 96.5 104.5t98.5 92.5h-2q113 98 186 98q90 0 146 -71q61 -78 61 -179q0 -74 -43 -141q-16 -29 -37.5 -44t-44.5 -26 q-23 -6 -39 -6q-23 0 -47.5 16.5t-46.5 51.5q-2 4 -3 9t-3 9v-2q-4 10 -10.5 22.5t-12.5 26.5q-25 -20 -51.5 -40.5t-36.5 -28.5q-16 -14 -41.5 -30.5t-54.5 -33.5q25 -55 45 -75v2q66 -66 160 -66q106 0 223 88q166 131 211 324q6 29 9 54.5t3 55.5q0 106 -39 178 q-25 35 -43 58.5t-28 32.5q-31 23 -63 37t-68 20q16 18 27 35.5t22 31.5q4 8 12 17q18 23 33.5 41t25.5 31v-2q18 23 35 43t31 36v-2q10 12 24.5 28.5t22.5 25.5l-68 51l-51 -56q-90 55 -170 134l43 53l-61 51q-76 -41 -176 -41h-250v283h-70q-10 -25 -23.5 -56.5 t-25.5 -54.5v2q-78 -158 -186 -266q-12 -12 -31 -27.5t-37 -31t-33.5 -26.5t-21.5 -17zM461 283v508h239q35 -35 64.5 -65t58.5 -50l6 -6q16 -12 37 -29.5t52 -40.5q-51 -76 -118 -148.5t-147 -144.5l-8 -10q-29 -25 -52.5 -45.5t-39.5 -32.5z" />
<glyph unicode="&#xb3;" horiz-adv-x="1236" d="M35 797h143q10 -387 25 -547q16 -160 48 -311.5t85 -296.5q4 10 13 44.5t13 45.5q14 49 23.5 86t13.5 59q6 31 11.5 78t11.5 106q10 111 17 231t10 255v43q0 35 2 90q2 35 2 61v54h194v-404q0 -92 -37 -131l-14 -14q-4 -4 -18.5 -16.5t-23.5 -21.5l-11 -11 q66 -31 120 -61t99 -62q51 -37 110 -97l33 35q12 16 19 23v-2q49 43 84.5 74.5t60.5 50.5q14 10 26.5 18t22.5 19h-2q25 20 50.5 41.5t39.5 33.5l-49 68l-160 -123l-106 70v508h270l27 188h-299v291h-66q-41 -86 -82 -159t-82 -132q-20 -4 -39.5 -5t-37.5 -1q-94 0 -138 12 q-68 23 -94 70q-29 51 -28 90q0 61 47 90h-2q33 14 67 14q23 0 49.5 -8t51.5 -22q8 -8 16 -9l47 -22q12 -6 22.5 -9t16.5 -7q4 -4 15 -6l10 -1l81 129l5 8q6 7 14 17q16 27 33.5 55.5t25.5 44.5l-69 41l-43 -61q-7 2 -13 8q-8 2 -17 7t-7 3q-18 8 -31 17l-25 12 q-23 10 -48 15t-48 5q-78 0 -149 -59q-90 -70 -133 -229q-4 -12 -6.5 -29.5t-6.5 -28.5q-4 -14 -12 -35q-10 -39 -20.5 -66.5t-18.5 -45.5q-6 -14 -15 -25.5t-20 -19.5q-31 -33 -104 -60v-73z" />
<glyph unicode="&#xb4;" horiz-adv-x="415" d="M37 1028h82l266 373h-258z" />
<glyph unicode="&#xb6;" horiz-adv-x="1269" d="M33 721q0 -117 28.5 -222.5t84 -191.5t134 -151.5t179.5 -104.5q51 -23 96 -33t86 -14q16 -2 57 -3t109 -1l2 -455h94v453h332v90h-332v1280h334v90h-334v180h-94v-180h-8q-106 0 -192.5 -11t-149.5 -36q-35 -14 -66 -30.5t-57 -32.5q-98 -72 -167 -170.5t-103 -225.5 q-33 -113 -33 -231zM596 719q0 111 5 200t15 160q18 129 39 181q16 39 43 65q35 35 111 41v-1274q-71 2 -102 31q-14 18 -23.5 29.5t-13.5 19.5q-27 47 -41.5 117.5t-22.5 165.5q-4 70 -7 134t-3 130z" />
<glyph unicode="&#xb7;" horiz-adv-x="284" d="M37 522q0 -74 63 -100q18 -10 43 -10q45 0 75 31.5t30 76.5t-30 76t-75 31q-43 0 -74.5 -32t-31.5 -73z" />
<glyph unicode="&#xb8;" horiz-adv-x="487" d="M35 -279q47 -10 85 -14t73 -4q106 0 167 35q90 47 91 145q0 70 -48.5 112t-119.5 42q-35 0 -105 -27l-96 -102q4 0 28.5 1t28.5 1q10 2 17 2h12q41 0 68 -16v2q31 -18 30 -50q0 -33 -37 -53q-41 -20 -75 -20l-22 2l-69 6z" />
<glyph unicode="&#xb9;" horiz-adv-x="1067" d="M37 190q61 -43 94 -68.5t53 -45.5q29 -29 51.5 -52.5t43.5 -46.5q47 55 104 104.5t127 90.5q53 -45 106.5 -92t102.5 -98q31 33 54.5 54t35.5 32h-2q23 14 45 32q53 37 102.5 70t77.5 53l-39 72l-106 -66l-64 58v880q0 111 56 172q16 23 46.5 42.5t71.5 39.5l-26 70 q-29 -10 -64 -21.5t-57 -19.5q-43 -16 -70 -25q-70 -23 -118 -36t-76 -17q-16 -2 -39 -3t-60 -1l-4 -80q51 0 66 -14q37 -31 37 -170v-797q0 -57 -37 -96l-29 -27l-33 72l-53 -31l-55 47v783q0 92 5 149.5t15 79.5q27 66 95 105q10 8 27.5 14t41.5 14l-33 74 q-59 -23 -117.5 -41t-95.5 -31q-66 -23 -131 -34t-131 -13v-82q47 -10 65.5 -36.5t18.5 -92.5l2 -780q0 -94 -22 -121q-6 -4 -12.5 -9t-12.5 -11v2q-12 -10 -30.5 -27.5t-26.5 -24.5z" />
<glyph unicode="&#xba;" horiz-adv-x="1320" d="M37 782h199v-364q0 -66 -11 -103h2q-16 -55 -110 -114q53 -23 91 -41.5t60 -34.5q31 -20 77 -59t108 -95q45 53 97 104.5t116 98.5q10 -4 27.5 -12t43.5 -23q47 -29 99.5 -69.5t109.5 -98.5q31 39 58.5 69t52.5 52q12 10 39.5 32.5t72.5 55.5q12 10 24.5 19.5t23.5 17.5 q16 10 35.5 26.5t29.5 24.5l-49 70l-162 -123l-106 74v493h272l29 195h-301v287h-64q-10 -27 -19.5 -49.5t-19.5 -36.5q-35 -68 -66.5 -117t-58.5 -84h-264v287h-70q-4 -14 -12 -33t-12 -29q-6 -16 -11 -26l-6 -9q-29 -51 -50 -88t-38 -63v2q-37 -49 -66.5 -83t-53.5 -61 q-12 -10 -31 -23t-36 -27.5t-30.5 -26t-19.5 -15.5zM473 289v495h250v-393q0 -25 -2 -41t-4 -28l-139 -107z" />
<glyph unicode="&#xbb;" horiz-adv-x="923" d="M37 193l74 -70l442 350l-352 356l-152 -141l268 -266zM371 199l75 -74l445 356l-354 353l-148 -140l270 -264z" />
<glyph unicode="&#xbc;" horiz-adv-x="1085" d="M35 795h125q2 -84 4 -160t6 -141q10 -141 18.5 -257t18.5 -204q10 -115 18 -178.5t12.5 -78t11.5 -30.5t30 -63q27 59 39 91.5t16 49.5q2 10 7 46t15 99q74 553 74 824q0 98 -18 139q-10 20 -19.5 37.5t-17.5 29.5q-4 4 -6 15q-53 92 -54 155q0 45 31 74q23 20 60 21 q51 0 217 -117l163 287l-71 41l-37 -62q-62 41 -107 53q-16 4 -28.5 7.5t-26.5 3.5q-70 0 -137 -50q-131 -94 -186 -372q-23 -109 -41 -131q-23 -31 -48 -39q-4 -4 -38 -11h2q-2 0 -13.5 -1t-15.5 -1zM459 831q59 -16 90 -34.5t41 -38.5v2q4 -10 6 -32.5t2 -61.5v-357 q0 -33 -6 -45q-14 -29 -23 -41l-14 -12q-25 -25 -70 -47q66 -29 112 -58.5t77 -58.5q2 -2 4 -2t4 -2q16 -14 34.5 -33.5t28.5 -29.5q23 29 50.5 55t58.5 53l18 12q53 39 102.5 74t78.5 53l-43 76l-111 -74l-65 43v402q0 53 10 83.5t33 45.5q20 12 104 12q-184 139 -264 238 q-102 -109 -258 -222zM651 1085l29 -24q61 35 111.5 71.5t91.5 73.5q63 59 63 99v4q0 68 -94 67q-68 0 -115 -67q-12 -20 -26.5 -48t-24.5 -63q-10 -23 -18.5 -53.5t-16.5 -59.5z" />
<glyph unicode="&#xbd;" horiz-adv-x="1228" d="M35 795h119v-45q0 -20 2 -43q4 -86 11 -209t19 -279q8 -80 14.5 -139.5t10.5 -99.5l10 -99q4 -47 19.5 -96t38.5 -102q53 135 75 262q4 35 7.5 66.5t7.5 58.5q6 43 9 75.5t7 59.5q16 145 24.5 259t12.5 198q0 4 1 10t1 16q0 8 1 17.5t1 23.5q2 23 2 41v33q0 80 -25 135 q-6 14 -17 33.5t-28 46.5q-51 78 -51 160v12q0 8 2 16q20 31 21 31q29 29 69 29q82 0 174 -66q18 -10 43 -33q-6 -23 -12 -45t-10 -47q-20 -121 -41 -147l2 2q-43 -43 -70 -51q-6 -2 -17 -3.5t-32 -1.5l-4 -77h129v-62t2 -49v2q6 -152 17.5 -311.5t31.5 -333.5l15 -125 q6 -55 20.5 -116.5t38.5 -127.5q20 43 34.5 80t20.5 62q6 31 10.5 54.5t6.5 43.5q10 92 19 158.5t14 113.5q18 154 27 277t13 221q0 29 1.5 45t1.5 27q0 12 1 22t1 27q0 72 -23 127q-6 14 -18.5 36.5t-30.5 51.5q-12 25 -22.5 48.5t-18.5 47.5v-2q-10 41 -10 62 q0 39 26.5 63.5t63.5 24.5q45 0 108 -45q31 -16 45 -27q18 -10 37 -25.5t37 -31.5l166 295l-68 45l-41 -64q-39 31 -84 45t-94 17q-94 0 -159 -68l-19 -19q-119 82 -229 82q-55 0 -88 -12q-80 -55 -103 -84q-18 -23 -36.5 -54.5t-34.5 -68.5q-10 -25 -16.5 -42t-10.5 -33 q-10 -39 -17.5 -58.5t-7.5 -30.5q-8 -53 -14 -81.5t-10 -38.5q-23 -59 -70 -78q-20 -6 -59 -13v-79z" />
<glyph unicode="&#xbe;" horiz-adv-x="1187" d="M35 795h119l6 -168q2 -74 6 -131q0 -10 1 -19.5t1 -17.5q4 -51 6 -96.5t6 -83.5q4 -61 7 -106.5t8 -74.5q29 -281 36 -317v6q0 -2 1 -3t1 -3q4 -14 14.5 -38t16.5 -40t8 -18q45 88 58 141q4 16 8 55t14 105q6 47 11.5 82.5t9.5 60.5q6 25 6 43q12 104 22.5 195.5 t14.5 171.5q12 166 12 256h174v-408q0 -55 -28.5 -101t-81.5 -87q72 -39 125 -69t90 -54q27 -18 56.5 -44t57.5 -61q47 49 75 78t44 41q57 47 101 84t79 64l2 2q2 0 5 2t9.5 7t20.5 19l-47 66l-160 -123l-106 74v510h272l27 190h-299v283l-64 4q-35 -70 -64.5 -128.5 t-58.5 -105.5v2q-6 -10 -13 -18t-11 -14q-8 -10 -11.5 -18.5t-7.5 -12.5v2q-10 -10 -20 -23.5t-25 -29.5q-45 -45 -141 -109q-2 37 -7 66.5t-15 52.5q-14 27 -23.5 45t-17.5 29q-27 47 -41.5 87t-14.5 70q0 47 31 72q20 23 55 23q31 0 103 -39q35 -20 66.5 -41t62.5 -49 l82 147q10 20 23 43t30 47l-2 -2q6 10 17 28.5t16 28.5l-68 45l-43 -67q-53 35 -97 51t-77 16q-115 0 -199 -108q-43 -53 -62.5 -101.5t-23.5 -70.5h2q-8 -23 -15 -44.5t-11 -39.5q-43 -168 -86 -205q-4 -4 -7 -4l3 2q-23 -10 -38.5 -17.5t-35.5 -11.5v-75z" />
<glyph unicode="&#xbf;" horiz-adv-x="919" d="M33 438q0 -190 157 -276v2q14 -8 30 -16.5t38 -16.5h-2q8 -4 16.5 -6t16.5 -6q29 -10 50 -18.5t40 -16.5h-2q27 -18 47 -35q2 -10 10 -16q8 -14 35 -49q68 86 123 150.5t84 94.5q66 72 122 132.5t91 95.5l-58 61q-10 -10 -24 -23.5t-21 -19.5q-16 -12 -22 -19t-8 -10l2 3 q-45 -35 -89 -54.5t-87 -27.5h2q-43 -6 -58 -7q-98 0 -168 64q-53 53 -53 127q0 82 80 180q92 115 135 279l-76 22q-25 -47 -49 -85t-51 -62q-78 -78 -123 -111q-16 -12 -32.5 -29.5t-32.5 -33.5q-123 -135 -123 -273zM262 1227q98 -68 207 -187h31q45 53 94 105.5t98 99.5 q-53 47 -107.5 100.5t-107.5 110.5q-92 -117 -215 -229z" />
<glyph unicode="&#xc0;" horiz-adv-x="1595" d="M33 1077q0 -70 57 -135l191 74q-39 47 -59.5 83t-26.5 60v-2q-2 4 -2 10q-2 8 -3 17q0 33 58 41q14 2 27.5 3t23.5 1q119 0 199 -80q49 -49 80 -105q27 -53 41 -117.5t14 -140.5q0 -104 -33 -198q-8 -18 -20.5 -41t-30.5 -47q-16 -23 -30.5 -42.5t-29.5 -33.5 q-59 -53 -101 -87t-66.5 -50.5t-54 -32.5t-64.5 -31l8 -35q66 -2 123 -13t104 -30q6 -4 11.5 -5t11.5 -5q16 -6 31.5 -14t29.5 -17v2q63 -41 109.5 -72.5t73.5 -53.5q29 20 61.5 42.5t56.5 38.5q57 41 105.5 73t83.5 59q45 -102 145 -209l406 225l-37 65q-53 -23 -88 -33 t-52 -10q-20 0 -28 7q-29 12 -43 36q-35 51 -35 168v666q0 131 66 221q33 43 57 68.5t37 36.5l-21 34q-94 -51 -169.5 -96t-139.5 -86h2q-29 -18 -44 -30.5t-21 -18.5q-51 -49 -52 -133v-828l-106 -69h-2q-92 59 -170 104t-148 74q53 51 89 88t59 62q186 227 186 446 q0 248 -205 397q-96 70 -215 84l-30 -12q-170 -74 -301 -178q-119 -98 -119 -195zM506 1915l291 -406h90l-99 406h-282z" />
<glyph unicode="&#xc1;" d="M33 1077q0 -70 57 -135l191 74q-39 47 -59.5 83t-26.5 60v-2q-2 4 -2 10q-2 8 -3 17q0 33 58 41q14 2 27.5 3t23.5 1q119 0 199 -80q49 -49 80 -105q27 -53 41 -117.5t14 -140.5q0 -104 -33 -198q-8 -18 -20.5 -41t-30.5 -47q-16 -23 -30.5 -42.5t-29.5 -33.5 q-59 -53 -101 -87t-66.5 -50.5t-54 -32.5t-64.5 -31l8 -35q66 -2 123 -13t104 -30q6 -4 11.5 -5t11.5 -5q16 -6 31.5 -14t29.5 -17v2q63 -41 109.5 -72.5t73.5 -53.5q29 20 61.5 42.5t56.5 38.5q57 41 105.5 73t83.5 59q45 -102 145 -209l406 225l-37 65q-53 -23 -88 -33 t-52 -10q-20 0 -28 7q-29 12 -43 36q-35 51 -35 168v666q0 131 66 221q33 43 57 68.5t37 36.5l-21 34q-94 -51 -169.5 -96t-139.5 -86h2q-29 -18 -44 -30.5t-21 -18.5q-51 -49 -52 -133v-828l-106 -69h-2q-92 59 -170 104t-148 74q53 51 89 88t59 62q186 227 186 446 q0 248 -205 397q-96 70 -215 84l-30 -12q-170 -74 -301 -178q-119 -98 -119 -195zM811 1509h90l291 406h-285z" />
<glyph unicode="&#xc2;" d="M33 1077q0 -70 57 -135l191 74q-39 47 -59.5 83t-26.5 60v-2q-2 4 -2 10q-2 8 -3 17q0 33 58 41q14 2 27.5 3t23.5 1q119 0 199 -80q49 -49 80 -105q27 -53 41 -117.5t14 -140.5q0 -104 -33 -198q-8 -18 -20.5 -41t-30.5 -47q-16 -23 -30.5 -42.5t-29.5 -33.5 q-59 -53 -101 -87t-66.5 -50.5t-54 -32.5t-64.5 -31l8 -35q66 -2 123 -13t104 -30q6 -4 11.5 -5t11.5 -5q16 -6 31.5 -14t29.5 -17v2q63 -41 109.5 -72.5t73.5 -53.5q29 20 61.5 42.5t56.5 38.5q57 41 105.5 73t83.5 59q45 -102 145 -209l406 225l-37 65q-53 -23 -88 -33 t-52 -10q-20 0 -28 7q-29 12 -43 36q-35 51 -35 168v666q0 131 66 221q33 43 57 68.5t37 36.5l-21 34q-94 -51 -169.5 -96t-139.5 -86h2q-29 -18 -44 -30.5t-21 -18.5q-51 -49 -52 -133v-828l-106 -69q-92 59 -171 104t-149 74q53 51 89 88t59 62q186 227 186 446 q0 248 -205 397q-96 70 -215 84l-30 -12q-170 -74 -301 -178q-119 -98 -119 -195zM631 1509h98l223 203l219 -203h99l-201 408h-235z" />
<glyph unicode="&#xc3;" d="M33 1075q0 -70 57 -133l191 74q-39 47 -59.5 83t-26.5 58q-2 2 -2 8q-2 8 -3 17q0 35 58 43q14 2 27.5 3t23.5 1q115 0 199 -80q25 -25 44 -51.5t36 -53.5q27 -53 41 -118.5t14 -139.5q0 -55 -8.5 -104t-24.5 -94q-8 -18 -20.5 -41t-30.5 -47q-16 -23 -30.5 -42.5 t-29.5 -35.5q-59 -53 -101 -86t-66.5 -49.5t-54 -32.5t-64.5 -31l8 -35q66 -2 123 -13t104 -32q6 -4 11 -4q6 0 12 -4q16 -6 31.5 -14t29.5 -17v2q63 -41 109.5 -72.5t73.5 -53.5q29 20 61.5 42.5t56.5 38.5q57 41 105.5 73t83.5 59q45 -102 145 -209l406 225l-37 65 q-53 -23 -88 -33t-52 -10q-23 0 -28 5q-29 16 -43 38q-35 51 -35 168v664q0 131 66 223q33 41 57 67.5t37 37.5l-21 32q-94 -51 -169.5 -95t-139.5 -87h2q-55 -37 -65 -47q-51 -51 -52 -135v-826l-106 -69h-2q-92 59 -170 104t-148 74q53 51 89 88t59 62q186 227 186 444 q0 248 -205 397q-92 68 -215 84l-30 -12q-170 -72 -301 -178q-119 -98 -119 -195zM565 1556h78q29 86 80 86q18 0 50 -10t79 -30q102 -45 160 -46q201 0 225 277h-72q-35 -88 -86 -88q-41 0 -145 47q-57 25 -86 33q-41 10 -64 10q-94 0 -161 -90q-39 -53 -58 -189z" />
<glyph unicode="&#xc4;" d="M33 1077q0 -70 57 -135l191 74q-39 47 -59.5 83t-26.5 60v-2q-2 4 -2 10q-2 8 -3 17q0 33 58 41q14 2 27.5 3t23.5 1q133 0 231 -117q102 -123 103 -311q0 -59 -7.5 -106.5t-19.5 -84.5q-14 -53 -51 -102q-18 -29 -34.5 -50.5t-33.5 -35.5q-113 -117 -284 -199l8 -35h25 q47 0 106 -14q147 -37 363 -197l309 218q55 -119 145 -211l404 225l-37 65q-53 -23 -88 -33t-52 -10q-57 0 -90 86q-16 49 -16 125v664q0 133 66 223q33 41 57 67.5t37 37.5l-21 34q-94 -53 -169.5 -97t-139.5 -87h2q-29 -16 -44 -28.5t-21 -18.5q-51 -51 -52 -135v-826 l-106 -69h-2q-92 59 -169 103t-147 75q66 57 115 112.5t90 116.5q127 182 127 369q0 145 -86 272q-63 90 -150 141.5t-184 65.5l-30 -12q-170 -74 -301 -178q-119 -100 -119 -195zM715 1786q0 -18 6 -62q6 -47 23.5 -99t41.5 -107h37q76 164 76 268q0 92 -92 92 q-41 0 -66.5 -27.5t-25.5 -64.5zM940 1774q0 -82 39 -193l-2 2q0 -8 14 -37v2l4 -8l4 -8l35 -6q10 14 20.5 37.5t26.5 58.5q47 100 47 162q0 98 -94 98q-57 0 -86 -53q-8 -14 -8 -55z" />
<glyph unicode="&#xc5;" d="M33 1077q0 -70 57 -135l191 74q-39 47 -59.5 83t-26.5 60v-2q-2 4 -2 10q-2 6 -3 11v4q0 35 58 43q14 2 27.5 3t23.5 1q115 0 199 -80q49 -49 80 -105q27 -53 41 -117.5t14 -140.5q0 -55 -8.5 -104t-24.5 -94q-8 -18 -20.5 -41t-30.5 -47q-16 -23 -30.5 -42.5 t-29.5 -33.5q-59 -53 -101 -87t-66.5 -50.5t-54 -32.5t-64.5 -31l8 -35q66 -2 123 -13t104 -32q12 -4 23 -8q16 -6 31.5 -14t29.5 -17v2q63 -41 109.5 -72.5t73.5 -53.5q29 20 61.5 42.5t56.5 38.5q57 41 105.5 73t83.5 59q45 -102 145 -209l406 225l-37 65q-53 -23 -88 -33 t-52 -10q-16 0 -28 5q-29 16 -43 38q-35 51 -35 168v664q0 133 66 223q33 41 57 67.5t37 37.5l-21 32q-94 -51 -169.5 -95t-139.5 -87h2q-29 -16 -44 -28.5t-21 -18.5q-51 -51 -52 -135v-826l-106 -69h-2q-92 59 -170 104t-148 74q53 51 89 88t59 62q186 227 186 446 q0 246 -205 395q-96 70 -215 86l-30 -12q-170 -74 -301 -178q-119 -100 -119 -195zM762 1694q0 -76 54 -130.5t130 -54.5t130 54.5t54 130.5q0 78 -54 130t-130 52t-130 -52t-54 -130zM858 1694q0 37 26.5 61.5t61.5 24.5t61.5 -24.5t26.5 -61.5t-26.5 -62.5t-61.5 -25.5 t-61.5 25.5t-26.5 62.5z" />
<glyph unicode="&#xc6;" horiz-adv-x="2291" d="M35 1071q0 -70 57 -135l193 74q-78 96 -86 143v-4q0 2 -1 6l-1 4q-2 8 -2 17q0 35 57 43q14 2 27.5 3t25.5 1q113 0 199 -80q49 -49 80 -105q57 -111 57 -256q0 -106 -35 -198q-8 -16 -20.5 -39t-30.5 -49q-16 -23 -30.5 -41.5t-28.5 -34.5q-59 -53 -102.5 -86t-67.5 -49 q-49 -33 -121 -64l8 -35q70 0 126 -11t103 -32q6 -4 12.5 -5t12.5 -5q16 -6 31.5 -14t29.5 -15v2q66 -41 111 -72.5t74 -53.5q29 20 61.5 42.5t56.5 38.5q57 39 106.5 72t84.5 57q43 -100 147 -206l291 159q88 -51 142.5 -80.5t85.5 -39.5h-2q53 -23 122 -23q84 0 181 43 q129 55 266 174l-41 76q-10 -10 -17.5 -18.5t-11.5 -10.5l-15 -12t-3 -2q-35 -23 -56 -29q-53 -25 -104 -24q-66 0 -135 32q-12 8 -44 27.5t-83 54.5q-180 121 -324 140q-4 0 -8 1t-8 1q23 14 43 24t37 19q72 43 111.5 69.5t50.5 38.5q27 29 34 86q2 10 3.5 24.5t3.5 37.5 h405l109 223h-228q59 41 96 74.5t54 56.5l-2 -2q31 45 30 106q0 37 -18 80q-29 68 -162 156l-280 -146q12 41 24 70v-2q12 20 21.5 38.5t15.5 33.5q4 8 8 12l-20 27q-104 -43 -203.5 -92.5t-198.5 -102.5q2 -2 13.5 -12t13.5 -12q4 -8 12 -11q31 -20 39 -73q2 -10 2 -41v-78 v-361q0 -47 -11 -84t-38 -65q-33 -41 -78 -70v623q0 131 66 221q45 61 117 129l-101 27q-117 -66 -200.5 -122.5t-139.5 -103.5q-25 -61 -28 -139v-838l-109 -69q-186 121 -322 178q53 51 90 87t60 62q186 219 186 443q0 248 -204 395q-96 68 -218 84l-30 -12 q-170 -74 -303 -178q-121 -98 -121 -193zM1688 971v235q10 2 28 2q88 0 144 -47h-2q33 -27 36 -78v-6q0 -45 -51 -106h-155z" />
<glyph unicode="&#xc7;" horiz-adv-x="1261" d="M35 662q0 -223 119 -398q139 -197 370 -256q10 -4 22.5 -5t24.5 -5l-88 -98h56q10 2 19 3t13 1q43 0 74 -19v2q33 -20 33 -53q0 -41 -38 -60.5t-83 -19.5q-2 0 -24.5 2t-69.5 6l-33 -69q98 -18 170 -19q55 0 99 8.5t79 28.5q96 49 96 160q0 86 -59 131q203 45 328 236 q29 47 50 94t34 94l-31 16q-25 -31 -66 -61q-133 -102 -327 -102q-113 0 -199 24v-2q-4 2 -8 3t-8 3h2q-27 10 -35 10q-31 16 -53.5 26.5t-38.5 18.5l211 132q2 16 3 34.5t3 28.5q0 6 1 13.5t1 11.5v10q2 31 3 58.5t1 51.5v476q72 -16 125 -17q53 0 110.5 8.5t120.5 26.5 q10 12 18.5 23.5t14.5 25.5q16 31 21 49l-2 -4l28 72q4 12 7.5 23.5t7.5 19.5q2 8 7 22.5t9 27.5t8 25.5t4 16.5q-74 -23 -132 -38t-99 -19q-47 -6 -86 -6q-76 0 -201 43q-104 -55 -187 -111.5t-151 -112.5q-70 -55 -102 -96q-172 -197 -172 -495zM229 842q0 170 72 272 q43 61 109 115v-660q0 -88 -21 -149q-16 16 -27.5 28.5t-17.5 20.5q-115 150 -115 373z" />
<glyph unicode="&#xc8;" horiz-adv-x="1525" d="M33 397l30 -71q53 23 98.5 44t65.5 31q125 66 199 123q106 82 106 254v434q0 45 5.5 74t13.5 45l-2 -2q6 8 25.5 23.5t50.5 38.5q16 8 22 12h27l-45 84q-117 -68 -204 -126t-142 -108q-27 -66 -27 -198v-406q0 -37 -2 -60.5t-6 -33.5v2q-20 -45 -62 -76l2 2 q-53 -35 -91 -55t-64 -31zM102 244l35 -68q180 90 269 90q39 0 91 -19.5t117 -53.5q12 -8 47 -29t91 -53l-2 2q12 -10 24 -18.5t25 -14.5q80 -47 134 -66.5t118 -19.5q86 0 178 45q123 51 262 174l-39 76l-18.5 -18.5t-12.5 -10.5l-16 -16q-39 -20 -55 -27q-53 -25 -103 -24 q-68 0 -133 32q-14 8 -45 27.5t-84 54.5q-176 121 -317 139q-4 0 -9.5 1.5t-9.5 1.5q25 14 44.5 24t35.5 21q137 80 162 108q25 27 33 86q2 10 3 24.5t3 37.5h403l107 225h-226q121 86 148 131l-2 -2q31 45 31 106q0 39 -19 82q-31 72 -162 156l-276 -148q10 41 24 72v-2 q12 20 20.5 38.5t16.5 33.5q4 8 9 12l-21 29q-104 -45 -202.5 -94.5t-194.5 -102.5q2 -2 13 -12t13 -12q4 -6 11 -11q31 -20 39 -73q2 -10 3 -42t1 -79v-363q0 -94 -50 -151h2q-16 -16 -35.5 -33.5t-41.5 -34.5l2 2q-14 -8 -37 -21.5t-53 -31.5q-111 -59 -203 -106.5 t-148 -73.5zM477 1915l291 -406h90l-96 406h-285zM930 971v235q8 2 28 2q41 0 77 -10t65 -35h-2q33 -29 37 -80v-6q0 -49 -52 -106h-153z" />
<glyph unicode="&#xc9;" horiz-adv-x="1525" d="M33 397l30 -71q53 23 98.5 44t65.5 31q125 66 199 123q106 82 106 254v434q0 45 5.5 74t13.5 45l-2 -2q6 8 25.5 23.5t50.5 38.5q16 8 22 12h27l-45 84q-117 -68 -204 -126t-142 -108q-27 -66 -27 -198v-406q0 -37 -2 -60.5t-6 -33.5v2q-20 -45 -62 -76l2 2 q-53 -35 -91 -55t-64 -31zM102 244l35 -68q180 90 269 90q39 0 91 -19.5t117 -53.5q12 -8 47 -29t91 -53l-2 2q12 -10 24 -18.5t25 -14.5q80 -47 134 -66.5t118 -19.5q86 0 178 45q123 51 262 174l-39 76l-18.5 -18.5t-12.5 -10.5l-16 -16q-39 -20 -55 -27q-53 -25 -103 -24 q-68 0 -133 32q-14 8 -45 27.5t-84 54.5q-176 121 -317 139q-4 0 -9.5 1.5t-9.5 1.5q25 14 44.5 24t35.5 21q137 80 162 108q25 27 33 86q2 10 3 24.5t3 37.5h403l107 225h-226q121 86 148 131l-2 -2q31 45 31 106q0 39 -19 82q-31 72 -162 156l-276 -148q10 41 24 72v-2 q12 20 20.5 38.5t16.5 33.5q4 8 9 12l-21 29q-104 -45 -202.5 -94.5t-194.5 -102.5q2 -2 13 -12t13 -12q4 -6 11 -11q31 -20 39 -73q2 -10 3 -42t1 -79v-363q0 -94 -50 -151h2q-16 -16 -35.5 -33.5t-41.5 -34.5l2 2q-14 -8 -37 -21.5t-53 -31.5q-111 -59 -203 -106.5 t-148 -73.5zM782 1509h90l291 406h-282zM930 971v235q8 2 28 2q41 0 77 -10t65 -35h-2q33 -29 37 -80v-6q0 -49 -52 -106h-153z" />
<glyph unicode="&#xca;" horiz-adv-x="1525" d="M33 397l30 -71q53 23 98.5 44t65.5 31q125 66 199 123q106 82 106 254v434q0 45 5.5 74t13.5 45l-2 -2q6 8 25.5 23.5t50.5 38.5q16 8 22 12h27l-45 84q-117 -68 -204 -126t-142 -108q-27 -66 -27 -198v-406q0 -37 -2 -60.5t-6 -33.5v2q-20 -45 -62 -76l2 2 q-53 -35 -91 -55t-64 -31zM102 244l35 -68q180 90 269 90q39 0 91 -19.5t117 -53.5q12 -8 47 -29t91 -53l-2 2q12 -10 24 -18.5t25 -14.5q80 -47 134 -66.5t118 -19.5q86 0 178 45q123 51 262 174l-39 76l-18.5 -18.5t-12.5 -10.5l-16 -16q-39 -20 -55 -27q-53 -25 -103 -24 q-68 0 -133 32q-14 8 -45 27.5t-84 54.5q-176 121 -317 139q-4 0 -9.5 1.5t-9.5 1.5q25 14 44.5 24t35.5 21q137 80 162 108q25 27 33 86q2 10 3 24.5t3 37.5h403l107 225h-226q121 86 148 131h-2q31 43 31 104q0 39 -19 82q-31 72 -162 156l-276 -148q10 41 24 72v-2 q12 20 20.5 38.5t16.5 33.5q4 8 9 12l-21 29q-104 -45 -202.5 -94.5t-194.5 -102.5q2 -2 13 -12t13 -12q4 -6 11 -11q31 -20 39 -73q2 -10 3 -42t1 -79v-363q0 -94 -50 -151h2q-16 -16 -35.5 -33.5t-41.5 -34.5l2 2q-14 -8 -37 -21.5t-53 -31.5q-111 -59 -203 -106.5 t-148 -73.5zM496 1509h98l223 203l219 -203h97l-199 408h-236zM930 971v235q8 2 28 2q41 0 77 -10t65 -35h-2q33 -29 37 -80v-6q0 -49 -52 -106h-153z" />
<glyph unicode="&#xcb;" horiz-adv-x="1525" d="M33 397l30 -71q53 23 98.5 44t65.5 31q66 35 115 65t84 56q106 86 106 256v434q0 45 5.5 74t13.5 45l-2 -2q12 14 76 60q6 4 12 7t10 7h27l-45 82q-236 -133 -346 -232q-27 -66 -27 -198v-406q0 -37 -2 -60.5t-6 -33.5v2q-18 -45 -62 -76l2 2q-53 -35 -91 -55t-64 -31z M102 244l35 -68q186 90 269 90q39 0 91 -19.5t117 -53.5q12 -8 47 -29t91 -53l-2 2q12 -10 24 -18.5t25 -14.5q80 -47 134 -66.5t118 -19.5q86 0 178 45q123 51 262 174l-39 76l-18.5 -18.5t-12.5 -10.5l-16 -16q-39 -20 -55 -27q-53 -25 -103 -24q-68 0 -133 32 q-14 8 -45 27.5t-84 54.5q-176 121 -317 139q-4 0 -9.5 1.5t-9.5 1.5q25 14 44.5 24t35.5 21q137 80 162 108q23 23 33 86q2 10 3 24.5t3 37.5h403l107 225h-226q121 86 148 131l-2 -2q31 45 31 106q0 39 -19 80q-29 70 -162 158l-276 -148q12 43 24 70v-2q12 23 20.5 41 t16.5 33q4 8 9 12l-21 27q-104 -43 -202.5 -92.5t-194.5 -104.5q2 -2 13 -11t13 -11q4 -6 11 -11q31 -20 39 -73q2 -10 3 -42t1 -79v-363q0 -94 -50 -151h2q-16 -16 -35.5 -33.5t-41.5 -34.5l2 2q-14 -8 -37 -21.5t-53 -31.5q-111 -59 -203 -106.5t-148 -73.5zM623 1786 q0 -23 6 -62q6 -49 23.5 -100t41.5 -106h37q76 164 76 268q0 92 -92 92q-41 0 -66.5 -27.5t-25.5 -64.5zM848 1774q0 -84 39 -193l-2 2q0 -4 5 -15.5t11 -21.5v2l4 -8l4 -8l33 -6q10 14 21.5 37.5t25.5 58.5q47 100 47 162q0 98 -94 98q-57 0 -86 -53q-8 -14 -8 -55z M930 971v235q8 2 28 2q84 0 142 -45h-2q33 -29 37 -80v-6q0 -49 -52 -106h-153z" />
<glyph unicode="&#xcc;" horiz-adv-x="1456" d="M33 258l67 -65q102 90 152 90q31 0 72 -13l-2 2q27 -12 47 -22t41 -21q16 -10 29.5 -17t23.5 -13l-4 2q4 -2 7 -3t5 -3q14 -10 26.5 -16.5t22.5 -14.5l19 -12q6 -6 22 -15q18 -12 34.5 -20t29.5 -17l-2 2q59 -41 107 -72.5t77 -52.5q68 47 130 91.5t105 76.5 q84 59 140.5 104.5t85.5 80.5q106 113 106 237q0 35 -16.5 95.5t-50.5 152.5v-2q-29 86 -45.5 154.5t-16.5 124.5q0 104 88 213q8 8 14.5 15t12.5 15q14 18 31.5 37t29.5 29l-61 63l-107 -112q-57 -59 -101 -113.5t-75 -103.5q-84 -125 -84 -228q0 -80 45 -213 q35 -98 50.5 -170.5t15.5 -122.5q0 -102 -60 -143q-25 -18 -69 -18q-12 0 -22.5 1t-20.5 3q-80 25 -166 84q-61 41 -127 93t-133 116q-16 16 -41 40.5t-45 45.5q-109 -111 -205 -202t-182 -163zM178 1227q0 -51 45 -117l176 109q-47 68 -47 94q0 61 74 61q33 0 131 -49h-2 q20 -10 37.5 -17.5t30.5 -15.5q45 -23 61 -30q211 -115 281 -115q47 0 114 45q16 12 32.5 26.5t35.5 32.5l207 217l-62 60q-37 -37 -62.5 -60.5t-41.5 -33.5q-35 -27 -88 -27q-139 0 -342 160l-92 73q-78 -41 -149 -84t-114 -69q-6 -4 -8 -5t-8 -5q-23 -16 -38 -27.5 t-30 -22.5q-47 -35 -78.5 -65.5t-43.5 -56.5q-18 -37 -19 -78zM672 1915l289 -406h90l-97 406h-282z" />
<glyph unicode="&#xcd;" horiz-adv-x="1456" d="M31 258l67 -65q102 90 152 90q31 0 72 -13l-3 2q27 -12 47.5 -22t41.5 -21q16 -10 29.5 -17t23.5 -13l-4 2q4 -2 7 -3t5 -3q14 -10 26.5 -16.5t22.5 -14.5l19 -12q6 -6 22 -15q18 -12 34.5 -20t29.5 -17l-2 2q59 -41 107 -72.5t77 -52.5q68 47 130 91.5t105 76.5 q84 59 140.5 104.5t85.5 80.5q106 113 106 237q0 35 -16.5 95.5t-50.5 152.5v-2q-29 86 -45.5 154.5t-16.5 124.5q0 104 88 213q8 8 14.5 15t12.5 15q14 18 31.5 37t29.5 29l-61 63l-107 -112q-57 -59 -101 -113.5t-75 -103.5q-84 -125 -84 -228q0 -80 45 -213 q35 -98 50.5 -170.5t15.5 -122.5q0 -102 -60 -143q-25 -18 -69 -18q-12 0 -22.5 1t-20.5 3q-80 25 -166 84q-61 41 -127 93t-133 116q-16 16 -41 40.5t-45 45.5q-109 -111 -205 -202t-182 -163zM176 1227q0 -51 45 -117l176 109q-47 68 -47 94q0 61 74 61q33 0 131 -49h-2 q20 -10 37.5 -17.5t30.5 -15.5q45 -23 61 -30q211 -115 281 -115q47 0 114 45q16 12 32.5 26.5t35.5 32.5l207 217l-62 60q-37 -37 -62.5 -60.5t-41.5 -33.5q-35 -27 -88 -27q-139 0 -342 160l-92 73q-78 -41 -149 -84t-114 -69q-6 -4 -8 -5t-8 -5q-23 -16 -38 -27.5 t-30 -22.5q-47 -35 -78.5 -65.5t-43.5 -56.5q-18 -37 -19 -78zM913 1509h91l290 406h-282z" />
<glyph unicode="&#xce;" horiz-adv-x="1490" d="M31 258l67 -65q102 90 152 90q31 0 72 -13l-3 2q27 -12 47.5 -22t41.5 -21q16 -10 29.5 -17t23.5 -13l-4 2q4 -2 7 -3t5 -3q14 -10 26.5 -16.5t22.5 -14.5l19 -12q4 -4 11 -7.5t11 -7.5q18 -12 34.5 -20t31.5 -17l-2 2q59 -41 106 -72.5t76 -52.5q70 47 131 91.5 t106 76.5q82 59 138.5 104.5t85.5 80.5q109 115 108 237q0 66 -67 248v-2q-61 168 -62 279q0 104 86 215q8 6 14.5 13t12.5 15q16 18 32.5 37t28.5 31l-61 61l-105 -112q-57 -59 -102 -113.5t-76 -103.5q-84 -125 -84 -228q0 -39 11.5 -92t35.5 -121q33 -98 49.5 -170.5 t16.5 -122.5q0 -100 -60 -143q-16 -10 -33.5 -14t-35.5 -4q-12 0 -23.5 1t-21.5 3q-76 25 -164 84q-129 86 -262 209l-86 86q-106 -111 -203.5 -202t-183.5 -163zM176 1227q0 -51 45 -117l176 109q-47 68 -47 94q0 61 74 61q33 0 131 -49q18 -10 35.5 -17.5t32.5 -15.5 q23 -10 37 -18t22 -12q213 -115 283 -115q49 0 112 45q31 23 68 59l207 217l-62 60q-68 -72 -104 -94q-35 -27 -86 -27q-115 0 -266 102h79l224 203l219 -203h98l-199 408h-235l-199 -399q-31 18 -63 49l-94 73q-78 -41 -149 -84t-114 -69q-6 -4 -8 -5t-8 -5 q-23 -16 -38 -27.5t-30 -22.5q-47 -35 -78.5 -65.5t-43.5 -56.5q-18 -37 -19 -78z" />
<glyph unicode="&#xcf;" horiz-adv-x="1456" d="M31 258l67 -65q102 90 152 90q31 0 72 -13l-3 2q27 -12 47.5 -22t41.5 -21q16 -10 29.5 -17t23.5 -13l-4 2q4 -2 7 -3t5 -3q14 -10 26.5 -16.5t22.5 -14.5l19 -12q6 -6 22 -15q18 -12 34.5 -20t29.5 -17l-2 2q59 -41 107 -72.5t77 -52.5q68 47 130 91.5t105 74.5 q84 61 140.5 106.5t85.5 80.5q106 113 106 237q0 35 -16.5 95.5t-50.5 150.5v-2q-29 86 -45.5 155.5t-16.5 125.5q0 104 88 213q8 8 14.5 15t12.5 15q14 18 31.5 36t29.5 30l-61 63l-107 -112q-113 -119 -176 -217q-84 -125 -84 -230q0 -78 45 -211q35 -98 50.5 -170.5 t15.5 -122.5q0 -102 -60 -143q-27 -20 -69 -20q-23 0 -43 6q-80 25 -166 84q-61 41 -127 93t-133 116q-16 16 -41 40.5t-45 43.5q-109 -109 -205 -200t-182 -163zM176 1227q0 -49 45 -119l176 111q-47 68 -47 94q0 61 74 61q33 0 131 -49h-2q20 -10 37.5 -18.5t30.5 -16.5 q23 -10 38 -17t23 -11q211 -115 281 -115q27 0 54 11t60 32q31 25 68 61l207 217l-62 60q-37 -39 -62.5 -61.5t-41.5 -32.5q-35 -27 -88 -27q-139 0 -342 160l-92 73q-78 -43 -149 -85t-114 -70q-6 -4 -8 -5t-8 -5q-23 -14 -38 -25.5t-30 -22.5q-47 -37 -78.5 -66.5 t-43.5 -57.5q-18 -35 -19 -76zM846 1786q0 -18 6 -62q6 -47 23.5 -99t42.5 -107h36q39 84 56.5 149.5t17.5 118.5q0 92 -90 92q-41 0 -66.5 -27.5t-25.5 -64.5zM1071 1774q0 -80 37 -193l-2 2q0 -4 5 -14t11 -23v2l4 -8l4 -8l33 -6q20 31 49 96q45 102 45 162q0 98 -94 98 q-59 0 -84 -53q-8 -14 -8 -55z" />
<glyph unicode="&#xd0;" horiz-adv-x="1673" d="M37 528h262q20 -6 34.5 -12t28.5 -12h-2q70 -37 101 -113v2q4 -16 9 -34.5t9 -39.5q-78 -72 -143.5 -128t-114.5 -97q-14 -12 -34.5 -28.5t-30.5 -26.5l55 -62q86 59 111 72q68 29 198 31h17q86 0 177 -14.5t189 -40.5q33 -10 61.5 -20.5t55.5 -20.5q16 10 36.5 21 t35.5 20q16 10 29.5 16t23.5 12q100 53 168.5 96.5t105.5 71.5q51 43 90 93.5t68 105.5q14 33 25.5 63.5t21.5 63.5q14 55 14 127q0 252 -155 401q-20 20 -43 36.5t-45 31.5q-74 43 -173.5 75.5t-226.5 53.5q-199 27 -344 44t-245 27q-72 10 -120 23.5t-77 32.5l2 -2 q-18 14 -41 30.5t-29 22.5q-12 -29 -29.5 -70t-27.5 -67l-29 -90q-4 -14 -9 -30.5t-9 -27.5q96 -68 156 -84q57 -10 99 -17t79 -9q14 -2 28 -2t27 -2q18 -2 32.5 -3t26.5 -4q-74 -53 -132 -109t-105 -116q-70 -92 -107 -190h-104v-101zM393 762q0 109 185 250q14 12 24 18 q2 2 4 2l121 -10q-16 -14 -29.5 -24.5t-23.5 -18.5q-25 -18 -40.5 -29.5t-19.5 -15.5q-23 -18 -43 -36.5t-43 -41.5q-10 -8 -23 -20.5t-28 -26.5q33 -53 60.5 -99t50.5 -81h-84q-16 14 -49 49q-47 37 -58 59q-4 16 -4 25zM553 528h92q8 -16 13.5 -30.5t7.5 -24.5l-99 -82v27 q0 61 -14 110zM670 362q133 100 272 166h387v101h-411q-3 8 -9 16l2 -2q-4 8 -10 15.5t-10 17.5q-104 172 -111 190q-6 12 -6 37q0 51 68 105q92 -14 157.5 -25.5t112.5 -26.5q53 -14 98 -30.5t78 -38.5q18 -12 35.5 -25.5t26.5 -21.5h-2q74 -61 106 -140q6 -16 13.5 -38.5 t13.5 -51.5q8 -35 8 -82q0 -102 -45 -159q-12 -16 -26.5 -30.5t-35.5 -25.5q-74 -49 -200 -49q-211 0 -512 98z" />
<glyph unicode="&#xd1;" horiz-adv-x="1753" d="M35 334q72 -23 127 -47.5t102 -53.5v3q8 -4 24.5 -16.5t47.5 -35.5q94 -72 215 -209q18 25 39.5 53.5t32.5 45.5q4 8 9 14t9 10q104 141 189 253t139 181l-68 56l-223 -287q-117 68 -187.5 121t-93.5 90q-33 47 -32 141q0 66 22.5 141.5t63.5 157.5q47 90 108 154 q98 102 225 102q90 0 168 -43q123 -68 216.5 -112.5t158.5 -69.5q-20 -25 -33.5 -45t-21.5 -31q-117 -186 -117 -399q0 -135 43 -279q4 -12 10 -23t11 -26q6 -18 13 -36.5t13 -37.5q16 -43 17 -157q166 143 280.5 236.5t175.5 136.5l-49 75q-90 -61 -121 -61q-57 0 -94 92 q-59 147 -59 315q0 72 22.5 146t63.5 145q27 41 70.5 97.5t109.5 125.5l-47 64q-137 -70 -178 -70q-27 0 -156 62q-223 109 -272 121h2q-16 4 -37 6t-43 2q-72 0 -152 -37q-16 -8 -34.5 -17.5t-32.5 -19.5q-51 -33 -101.5 -80t-101.5 -106v2q-16 -16 -33.5 -38t-34.5 -44 l-51 94q-29 51 -45 93t-25 73q-6 27 -6 39l49 63l-59 62q-43 -47 -111.5 -115t-140.5 -133q18 -59 45 -119q23 -45 37 -72.5t27 -50.5q37 -74 62.5 -133t39.5 -106q12 -41 12 -74q0 -162 -124 -295q-47 -49 -115 -94zM557 1556h78q29 86 80 86q18 0 50 -10t81 -30 q102 -45 160 -46q201 0 225 277h-72q-35 -88 -86 -88q-25 0 -59.5 12t-85.5 35q-33 16 -54.5 22.5t-31.5 10.5q-20 4 -35.5 7t-30.5 3q-96 0 -162 -90q-39 -53 -57 -189z" />
<glyph unicode="&#xd2;" horiz-adv-x="1515" d="M37 692q0 -137 53 -266q23 -53 49.5 -99t65.5 -87q47 -53 121 -103q57 -41 96 -59q168 -84 295 -84q57 0 106 18q27 12 43.5 20.5t30.5 14.5q45 27 125 82q170 119 258 217q133 150 182 322q8 29 12.5 58.5t4.5 64.5q0 160 -154 354q-31 41 -57.5 69.5t-42.5 47.5h2 q-80 92 -92 133q-6 20 -10.5 39.5t-8.5 48.5l-299 -281v279q-59 -33 -119.5 -62.5t-93.5 -46.5q-88 -41 -145.5 -69.5t-85.5 -47.5q-162 -106 -244 -237q-66 -104 -86 -223q-6 -35 -6 -103zM283 797q0 168 84 288q61 86 170 152l2 -619q0 -115 -23 -165q-4 -12 -11 -23.5 t-16 -21.5q-16 10 -28 20t-23 21q-156 150 -155 348zM430 1915l291 -406h90l-96 406h-285zM561 354l254 281v448l92 84q23 -35 45 -62t45 -50q10 -14 20.5 -25.5t20.5 -21.5q14 -12 24.5 -24.5t16.5 -22.5q162 -180 162 -334q0 -182 -84 -273q-57 -63 -172 -86 q-39 -8 -88 -8h-18q-6 0 -18.5 1t-29.5 3q-102 8 -202 55q-16 8 -33.5 15.5t-34.5 19.5z" />
<glyph unicode="&#xd3;" horiz-adv-x="1515" d="M37 692q0 -137 53 -266q23 -53 49.5 -99t65.5 -87q47 -53 121 -103q57 -41 96 -59q168 -84 295 -84q57 0 106 18q27 12 43.5 20.5t30.5 14.5q45 27 125 82q170 119 258 217q133 150 182 322q8 29 12.5 58.5t4.5 64.5q0 160 -154 354q-31 41 -57.5 69.5t-42.5 47.5h2 q-80 92 -92 133q-6 20 -10.5 39.5t-8.5 48.5l-299 -281v279q-59 -33 -119.5 -62.5t-93.5 -46.5q-88 -41 -145.5 -69.5t-85.5 -47.5q-162 -106 -244 -237q-66 -104 -86 -223q-6 -35 -6 -103zM283 797q0 168 84 288q61 86 170 152l2 -619q0 -115 -23 -165q-4 -12 -11 -23.5 t-16 -21.5q-16 10 -28 20t-23 21q-156 150 -155 348zM561 354l254 281v448l92 84q23 -35 45 -62t45 -50q10 -14 20.5 -25.5t20.5 -21.5q14 -12 24.5 -24.5t16.5 -22.5q162 -180 162 -334q0 -182 -84 -273q-57 -63 -172 -86q-39 -8 -88 -8h-18q-6 0 -18.5 1t-29.5 3 q-102 8 -202 55q-16 8 -33.5 15.5t-34.5 19.5zM809 1509h90l291 406h-283z" />
<glyph unicode="&#xd4;" horiz-adv-x="1515" d="M37 692q0 -137 53 -266q23 -53 49.5 -99t65.5 -87q47 -53 121 -103q57 -41 96 -59q168 -84 295 -84q57 0 106 18q27 12 43.5 20.5t30.5 14.5q45 27 125 82q170 119 258 217q133 150 182 322q8 29 12.5 58.5t4.5 64.5q0 160 -154 354q-31 41 -57.5 69.5t-42.5 47.5h2 q-80 92 -92 133q-6 20 -10.5 39.5t-8.5 48.5l-299 -281v279q-59 -33 -119.5 -62.5t-93.5 -46.5q-88 -41 -145.5 -69.5t-85.5 -47.5q-80 -53 -141.5 -112.5t-102.5 -124.5q-66 -104 -86 -223q-6 -35 -6 -103zM283 797q0 168 84 288q61 86 170 152l2 -619q0 -115 -23 -165 q-4 -12 -11 -23.5t-16 -21.5q-16 10 -28 20t-23 21q-156 150 -155 348zM477 1509h96l224 203l219 -203h98l-199 408h-235zM561 354l254 281v448l92 84q23 -35 45 -62t45 -50q10 -14 20.5 -24.5l20.5 -20.5q14 -14 24.5 -26.5t16.5 -22.5q162 -180 162 -334q0 -182 -84 -273 q-57 -63 -172 -86q-39 -8 -88 -8h-18q-6 0 -18.5 1t-29.5 3q-102 8 -202 55q-16 8 -33.5 15.5t-34.5 19.5z" />
<glyph unicode="&#xd5;" horiz-adv-x="1515" d="M37 690q0 -137 53 -266q23 -51 49.5 -97t65.5 -87q47 -53 121 -103q57 -41 96 -59q168 -84 295 -84q57 0 106 18q27 12 43.5 20.5t30.5 14.5q45 27 125 82q170 119 258 217q133 150 182 322q16 55 17 120q0 162 -154 357q-31 39 -57.5 68.5t-42.5 46.5h2 q-39 47 -62.5 79.5t-29.5 55.5q-6 20 -10.5 38.5t-8.5 47.5l-299 -279v277q-59 -33 -119.5 -63t-93.5 -46q-178 -82 -231 -117q-80 -53 -141.5 -111.5t-102.5 -123.5q-66 -104 -86 -225q-6 -31 -6 -103zM283 795q0 168 84 288q55 82 170 154l2 -621q0 -113 -23 -163 q-8 -25 -27 -45q-16 10 -28 20t-23 21q-156 150 -155 346zM496 1556h75q31 86 80 86q18 0 50 -10t81 -30q102 -45 158 -46q201 0 225 277h-71q-31 -88 -86 -88q-23 0 -58 12t-88 35q-31 14 -52.5 21.5t-31.5 11.5q-20 4 -35.5 7t-27.5 3q-96 0 -162 -90q-43 -57 -57 -189z M561 354l254 281v446l92 84q43 -63 90 -110q10 -14 20.5 -25.5t20.5 -21.5q14 -14 24.5 -26.5t16.5 -20.5q162 -180 162 -334q0 -186 -84 -273q-57 -63 -172 -86q-39 -8 -88 -8h-18q-6 0 -18.5 1t-29.5 3q-102 8 -202 55q-16 6 -33.5 14.5t-34.5 20.5z" />
<glyph unicode="&#xd6;" horiz-adv-x="1515" d="M37 692q0 -137 53 -268q23 -51 49.5 -97t65.5 -87q47 -53 121 -103q57 -41 96 -59q168 -84 295 -84q57 0 106 18q27 12 43.5 20.5t30.5 14.5q45 27 125 82q170 119 258 217q133 150 182 322q8 29 12.5 58.5t4.5 64.5q0 160 -154 354q-31 39 -57.5 68.5t-42.5 48.5h2 q-80 92 -92 133q-6 20 -10.5 39.5t-8.5 46.5l-299 -279v277q-59 -31 -119.5 -62t-93.5 -47q-172 -78 -231 -115q-80 -53 -141.5 -112.5t-102.5 -124.5q-66 -104 -86 -223q-6 -35 -6 -103zM283 797q0 166 84 288q57 82 170 152l2 -621q0 -113 -23 -163q-4 -12 -11 -23.5 t-16 -21.5q-16 10 -28 20t-23 21q-156 150 -155 348zM561 354l254 281v448l92 84q23 -35 45 -62t45 -50q10 -14 20.5 -25.5t20.5 -21.5q14 -12 24.5 -24.5t16.5 -22.5q162 -180 162 -334q0 -182 -84 -273q-57 -63 -172 -86q-39 -8 -88 -8h-18q-6 0 -18.5 1t-29.5 3 q-102 8 -202 55q-16 8 -33.5 15.5t-34.5 19.5zM571 1780q0 -29 3.5 -59.5t13.5 -65.5q10 -41 23.5 -76t31.5 -70l35 2q29 66 47 118t23 89q6 39 6 62q0 12 -6 37q-27 59 -86 59q-41 0 -72 -35q-18 -16 -19 -61zM793 1776q0 -102 63 -250l35 -2q27 49 45 96t33 90 q14 45 14 76q0 68 -59 88h2q-14 8 -37 8q-72 0 -92 -65q-2 -6 -3 -15.5t-1 -25.5z" />
<glyph unicode="&#xd7;" horiz-adv-x="1122" d="M37 1036l373 -372l-371 -369l151 -152l371 367l369 -367l151 152l-366 369l370 372l-153 154l-371 -375l-373 375z" />
<glyph unicode="&#xd8;" horiz-adv-x="1519" d="M39 688q0 -137 53 -266q23 -51 49.5 -96t65.5 -86h-2q27 -39 65 -64l-141 -158l74 -63l147 164q197 -125 369 -125q57 0 106 18q27 12 43.5 19.5t30.5 15.5q23 12 53.5 31.5t71.5 48.5q170 119 258 217q133 150 182 320q8 29 12.5 57.5t4.5 62.5q0 176 -181 387l160 172 l-74 64l-151 -164l-8 10h2q-80 92 -92 133q-6 20 -10.5 40t-8.5 47l-299 -277v274q-59 -31 -119.5 -61.5t-93.5 -44.5q-88 -41 -145.5 -69.5t-85.5 -47.5q-80 -53 -141.5 -111.5t-102.5 -123.5q-66 -104 -86 -224q-6 -31 -6 -100zM285 791q0 168 84 288q57 82 170 152 l2 -617q0 -113 -23 -163v-2l-35 -39q-12 8 -22.5 17t-20.5 19q-156 150 -155 345zM563 352l531 590q149 -167 149 -317q0 -186 -84 -273q-57 -63 -172 -86q-43 -6 -88 -6h-18q-6 0 -18.5 1t-28.5 1q-102 8 -203 55q-16 8 -33.5 15.5t-34.5 19.5zM817 782v295l92 82 q27 -35 56.5 -71.5t60.5 -71.5z" />
<glyph unicode="&#xd9;" horiz-adv-x="1611" d="M35 1149q53 10 66.5 12t19.5 2q109 0 133 -80q10 -35 10 -88v-557q0 -74 -49 -112q-33 -27 -121 -68q68 -16 110 -28.5t52 -18.5q37 -18 62.5 -33.5t46.5 -25.5q4 -2 8 -4.5t0 2.5q39 -18 65.5 -35t42.5 -27h-2q4 0 8.5 -3t8.5 -5l18 -12q39 -23 75 -44.5t58 -35.5 q37 35 74 70.5t61 60.5q18 16 35 30.5t29 28.5q8 6 15 12.5t16 14.5v-2q55 47 98 86t78 67v-184v-51q0 -20 -2 -36.5t-2 -31.5q0 -12 -2 -24q0 -6 -1.5 -5t-2.5 -3.5t-1 -18.5v-51q49 39 103.5 83t110 89t109.5 91t101 87l-16 33q-12 -4 -18 -4h-11q-18 0 -39 8h2 q-53 25 -53 162v544q0 74 47 121q41 41 201 76q-2 0 -11 5t-20.5 9.5t-20.5 9.5t-11 5q-23 8 -34.5 11t-15.5 5l2 -2q-150 51 -208 133q-8 10 -19.5 34t-26.5 54q-12 -29 -14 -33t-6 -8q-12 -16 -31 -34l2 2q-6 -4 -12 -9.5t-12 -11.5l2 2q-10 -4 -19.5 -11t-7.5 -9 q-86 -61 -311 -140q92 -25 145.5 -45t69.5 -39q33 -33 33 -163v-539l-269 -227l-233 143v657q0 164 -21 226q-43 111 -211 219q-37 -47 -78.5 -96.5t-80.5 -95.5t-72 -84t-53 -60zM416 1915l291 -406h90l-99 406h-282z" />
<glyph unicode="&#xda;" horiz-adv-x="1611" d="M33 1149q53 10 66.5 12t19.5 2q109 0 133 -80q10 -35 10 -88v-557q0 -74 -49 -112q-33 -27 -121 -68q68 -16 110 -28.5t52 -18.5q37 -18 62.5 -33.5t45.5 -25.5q4 -2 8.5 -4.5t0.5 2.5q39 -18 65.5 -35t42.5 -27h-2q4 0 8 -3t9 -5l18 -12q39 -23 75 -44.5t58 -35.5 q37 35 74 70.5t61 60.5q18 16 34.5 30.5t29.5 28.5q8 6 15 12.5t15 14.5v-2q55 47 98.5 86t78.5 67v-184v-51q0 -20 -2 -36.5t-2 -31.5q0 -12 -3 -24q0 -6 -1 -5t-2 -3.5t-1 -18.5v-51q49 39 103.5 83t110 89t109.5 91t101 87l-16 33q-12 -4 -18 -4h-11q-18 0 -39 8h2 q-53 25 -53 162v544q0 74 47 121q41 41 201 76q-2 0 -11.5 5t-20.5 9.5t-20 9.5t-12 5q-23 8 -34 11t-15 5l2 -2q-150 51 -209 133q-8 10 -19 34t-26 54q-12 -29 -14 -33t-6 -8q-12 -16 -31 -34l2 2q-16 -12 -22 -19q-10 -4 -19.5 -11t-7.5 -9q-86 -61 -311 -140 q92 -25 145 -45t70 -39q33 -33 33 -163v-539l-269 -227l-233 143v657q0 164 -21 226q-43 111 -211 219q-37 -47 -78.5 -96.5t-80.5 -95.5t-72 -84t-53 -60zM719 1509h90l291 406h-283z" />
<glyph unicode="&#xdb;" horiz-adv-x="1613" d="M35 1149q53 10 66.5 12t19.5 2q109 0 133 -80q10 -35 10 -88v-557q0 -74 -49 -112q-33 -27 -121 -68q68 -16 110 -28.5t52 -18.5q37 -18 62.5 -33.5t46.5 -25.5q4 -2 8 -4.5t0 2.5q39 -18 65.5 -35t42.5 -27h-2q4 0 8.5 -3t8.5 -5l18 -12q39 -23 75 -44.5t58 -35.5 q37 35 74 70.5t61 60.5q18 16 35 30.5t29 28.5q8 6 15 12.5t16 14.5v-2q55 47 98 86t78 67v-184v-51q0 -20 -2 -36.5t-2 -31.5q0 -12 -2 -24q0 -6 -1.5 -5t-2.5 -3.5t-1 -18.5v-51q49 39 103.5 83t110 89t109.5 91t101 87l-16 33q-12 -4 -18 -4h-11q-18 0 -39 8h2 q-53 25 -53 162v544q0 74 47 121q41 41 201 76q-2 0 -11 5t-20.5 9.5t-20.5 9.5t-11 5q-23 8 -34.5 11t-15.5 5l2 -2q-150 51 -208 133q-8 10 -19.5 34t-26.5 54q-12 -29 -14 -33t-6 -8q-12 -16 -31 -34l2 2q-16 -12 -22 -19q-10 -4 -19.5 -11t-7.5 -9q-86 -61 -311 -140 q92 -25 145.5 -45t69.5 -39q33 -33 33 -163v-539l-269 -227l-233 143v657q0 164 -21 226q-43 111 -211 219q-37 -47 -78.5 -96.5t-80.5 -95.5t-72 -84t-53 -60zM481 1509h99l223 203l219 -203h98l-200 408h-234z" />
<glyph unicode="&#xdc;" horiz-adv-x="1601" d="M35 1161h39q20 0 26 2h17q29 0 55 -10q20 -6 32.5 -17.5t24.5 -31.5q23 -41 23 -109v-557q0 -74 -49 -112q-33 -27 -121 -68q68 -16 109.5 -28.5t52.5 -18.5q37 -18 62.5 -33.5t45.5 -25.5q4 -2 8.5 -4.5t-0.5 2.5q39 -18 66 -35t43 -27h-2q4 0 8 -3t8 -5l19 -12 q39 -23 74.5 -44.5t58.5 -35.5q14 12 35.5 33.5t42.5 39.5q27 27 50 50.5t50 46.5q29 29 55.5 50t46.5 38h-2l17.5 14t15.5 14v-2q29 25 51.5 45.5t42.5 34.5v-47v-100v-76q0 -8 -1 -16.5t-1 -18.5q-2 -31 -4 -51t-4 -37v-53q49 37 103.5 81t109.5 89t109.5 91t101.5 87 l-16 33q-12 -4 -19 -4h-10q-10 0 -20.5 2t-18.5 4h2q-53 27 -53 164v544q0 74 47 121q45 43 201 76q-2 0 -11.5 5t-20.5 9.5t-20.5 9.5t-11.5 5q-23 8 -34 11t-15 5l2 -2q-150 51 -209 133q-8 10 -19 34t-26 52q-12 -27 -14 -31t-6 -8q-12 -16 -29 -32q-16 -12 -23 -19 q-10 -6 -19 -13t-7 -9q-45 -31 -122 -66t-189 -72q184 -49 215 -84q33 -33 32 -165v-537l-268 -229l-233 145v657q0 164 -21 226q-43 113 -211 217q-37 -47 -77 -94.5t-76.5 -90.5t-67.5 -78.5t-51 -58.5zM567 1780q0 -12 3 -35t7.5 -48.5t11.5 -53t15 -52.5v2 q6 -16 15.5 -35.5t19.5 -41.5h35q57 119 71 198q6 45 7 72q0 41 -27 66.5t-61 25.5q-61 0 -86 -51v2q-10 -16 -11 -49zM793 1776q0 -45 28 -170q6 -16 11.5 -29.5t9.5 -24.5q4 -8 6 -13t4 -9l37 -4q29 59 50.5 108t31.5 90q4 20 7 34t3 28q0 96 -92 96q-63 0 -88 -53 q-8 -18 -8 -53z" />
<glyph unicode="&#xdd;" horiz-adv-x="1540" d="M31 1257l35 -73q94 35 151 35q162 0 281 -119q98 -100 133 -256q18 -96 18 -324v-71q0 -35 -2 -74q-27 2 -55.5 4t-56.5 2q-225 0 -324 -86q-86 -74 -90 -191v-6q0 -90 69 -145q23 -23 46 -31q57 -29 137 -28q123 0 295 77q45 20 84 42t69 42q49 35 87 61.5t65 45.5 q70 -27 122 -58.5t89 -66.5q18 -16 25.5 -28.5t11.5 -20.5q-8 -6 -13.5 -13.5t-11.5 -15.5q-25 -29 -25 -76q0 -49 32 -86t81 -37q57 0 102 41q59 47 60 129q0 41 -16.5 74t-63.5 82q-41 41 -86 77t-98 64q-18 10 -39 20.5t-45 20.5l84 84q147 147 211 256q76 127 100 266 q4 29 7 54.5t3 54.5q0 33 -3 65.5t-13 65.5q-14 35 -23.5 57.5t-17.5 36.5h2q-10 23 -23.5 43.5t-27.5 36.5q-16 20 -33.5 39t-36.5 33q-63 59 -180 117q-35 -27 -67.5 -55.5t-57.5 -49.5q-12 -12 -21.5 -20.5t-19.5 -16.5q-8 -4 -12 -8q-35 -29 -80 -62.5t-103 -74.5 q-4 6 -7 11t-7 11q-23 29 -42 54l-19 24q-18 20 -42 40t-53 42q-35 27 -66.5 45.5t-60.5 34.5q-8 4 -21 7t-32 9h2q-8 4 -19 6.5t-22 6.5q-78 -49 -174 -107.5t-192 -116.5zM209 100v4q0 78 100 129q63 31 162 31q47 0 90 -4t84 -12l-2 -168q-174 -90 -278 -90 q-152 0 -156 110zM793 1513h90l291 406h-283zM831 1118q29 23 58 38t51 24q25 8 57 8q66 0 125 -55q98 -92 99 -246q0 -205 -177 -465q-18 -29 -37.5 -54.5t-41.5 -54.5l-45 15l6 250q0 371 -95 540z" />
<glyph unicode="&#xde;" horiz-adv-x="1536" d="M37 227l51 -63q84 45 143 45h11q2 0 7 -1t9 -1q2 -2 8 -2q0 -283 56 -436q14 -43 65 -152q23 43 45.5 89t28.5 61q45 102 67 241q4 16 7.5 48t9.5 79q76 -29 146.5 -66.5t142.5 -84.5q23 25 54.5 48t74.5 48q35 20 66.5 38.5t66.5 35.5q27 16 53.5 31.5t52.5 31.5 q33 18 57.5 38.5t45.5 43.5q100 113 135 168q33 53 48 124t15 134q0 78 -14 119q-6 47 -45 129q-49 94 -150 166q-70 51 -164 88h3q-8 4 -32 11t-63 19q-14 4 -33.5 10.5t-39.5 12.5l-424 -301q0 14 -1 32.5t-5 59.5q-4 63 -8.5 100t-10.5 52q-47 125 -223 247 q-18 -23 -40 -48t-36 -42q-16 -16 -26.5 -30.5t-20.5 -26.5v2q-18 -23 -34.5 -41t-31.5 -35q-10 -10 -24 -27.5t-21 -25.5q12 -10 33 -23.5t29 -17.5t10 -6q18 -14 37.5 -31.5t36.5 -40.5q39 -55 53 -104q8 -27 8 -103v-417q-6 -6 -14 -13.5t-19 -17.5q-12 -12 -18 -16 l-29 -29q-12 -12 -28 -25q-35 -35 -69 -70.5t-52 -54.5zM549 438l2 432q10 10 21.5 20.5t25.5 22.5l-2 -2q31 18 48.5 28.5t27.5 14.5q98 47 174 47q162 0 264 -79q47 -37 66 -72q23 -35 35 -56.5t16 -29.5q16 -43 24.5 -90t8.5 -101v-55q-4 -27 -14.5 -56.5t-31.5 -64.5 q-12 -25 -75 -75q-35 -25 -61.5 -43.5t-45.5 -28.5q-16 -8 -35 -8q-10 0 -29.5 5t-47.5 15l6 -2q-6 4 -13.5 8t-15.5 8h2q-25 14 -86 37h2q-92 41 -158.5 72t-107.5 53z" />
<glyph unicode="&#xdf;" horiz-adv-x="1026" d="M-6 752l168 -4l28 -455q6 -111 12.5 -201t16.5 -162q6 -47 10 -78.5t9 -48.5q4 -12 12 -45.5t31 -99.5q31 70 50 141.5t31 149.5q14 84 23.5 165t15.5 156q82 98 177 99q82 0 129 -66q25 -43 24 -96q0 -35 -7 -65.5t-17 -57.5q-31 -63 -105 -127q-25 -20 -45 -34.5 t-41 -28.5v2q-25 -16 -45 -25.5t-37 -20.5l-47 -24l31 -74q55 23 96 41.5t64 30.5q113 59 194.5 127.5t132.5 146.5v-2q55 86 56 187q0 197 -222 311q90 88 157 159.5t95 102.5q-10 0 -36.5 3t-34.5 5q-14 2 -33 3t-6 1q-41 10 -74 36t-62 67q-14 16 -28.5 49t-34.5 82 l-168 -158l-74 -67q-4 29 -14 55t-27 59q-70 145 -69 199q0 45 30 70q12 10 37 10q47 0 68 -15q55 -29 96 -50t70 -42q59 88 108 163t72 106l-68 53l-43 -62q-102 70 -186 70q-31 0 -61 -8v2q-90 -29 -154 -123v2q-16 -25 -28.5 -54.5t-20.5 -64.5q-4 -20 -10.5 -49 t-14.5 -70q-10 -57 -18 -96t-19 -67q-31 -88 -98 -144q-6 -6 -13 -12t-16 -12q-2 -2 -23.5 -15.5t-43.5 -29.5zM414 397v19q0 10 2 20q10 111 17 192t11 140l80 72q31 -37 72 -80t94 -96l-143 -142q-31 -29 -63.5 -60.5t-69.5 -64.5z" />
<glyph unicode="&#xe0;" horiz-adv-x="927" d="M35 416q0 -172 133 -312q27 -29 61.5 -56.5t79.5 -59.5q59 53 109.5 101t91.5 95q35 -59 75 -111.5t85 -101.5l225 213q-96 53 -121 74q-16 16 -28.5 31.5t-22.5 36.5q-23 31 -31 63.5t-8 69.5q0 137 98 258l-2 -2l54.5 54.5t60.5 53.5q-129 59 -315 224 q-53 -41 -95.5 -72t-58.5 -41q-49 -35 -89 -64.5t-73 -54.5q-29 -23 -49 -41t-33 -31q-147 -160 -147 -327zM131 1454l285 -401h88l-96 401h-277zM225 545q0 25 6 49q14 68 66 121l37 39q29 27 53.5 46t42.5 34l219 -156q-12 -29 -23.5 -54.5t-17.5 -43.5q-8 -27 -16 -48.5 t-14 -42.5h2q-4 -12 -7.5 -23t-7.5 -22v2q-10 -29 -18 -49t-17 -35h2q-8 -12 -14 -22t-10 -18q-2 -2 -2 -5l-2 -2q-31 -49 -68 -88q-88 55 -153 152q-43 61 -52 108q-6 33 -6 58z" />
<glyph unicode="&#xe1;" horiz-adv-x="931" d="M33 416q0 -172 133 -312q29 -29 63.5 -56.5t79.5 -59.5q59 53 109.5 101t91.5 95q35 -59 76 -111.5t86 -101.5l225 213q-47 27 -79 45.5t-42 28.5q-16 16 -28.5 31.5t-22.5 36.5q-23 31 -31 63.5t-8 69.5q0 139 100 258l-2 -2q27 29 52.5 54.5t60.5 53.5 q-129 59 -315 224q-55 -41 -97.5 -72t-58.5 -41q-49 -35 -90 -64.5t-74 -54.5q-29 -23 -48 -41t-32 -31q-150 -158 -149 -327zM225 545q0 25 6 49q16 72 66 121l37 39q29 27 53.5 46t42.5 34l221 -156q-12 -29 -23.5 -54.5t-17.5 -43.5q-10 -27 -17 -48.5t-13 -42.5h2 q-4 -12 -7.5 -23t-7.5 -22v2q-10 -29 -18 -49t-17 -35h3q-8 -12 -15.5 -22t-11.5 -18q-2 -2 -2 -5l-2 -2q-16 -27 -33.5 -48t-34.5 -40q-88 55 -153 152q-43 61 -52 108q-6 33 -6 58zM643 1053h90l287 401h-281z" />
<glyph unicode="&#xe2;" horiz-adv-x="929" d="M35 416q0 -172 133 -312q27 -29 61.5 -56.5t79.5 -59.5q59 53 109.5 101t91.5 95q35 -59 75 -111.5t85 -101.5l225 213q-96 53 -121 74q-16 16 -28.5 31.5t-22.5 36.5q-23 31 -31 63.5t-8 69.5q0 137 98 258l-2 -2l54.5 54.5t60.5 53.5q-129 59 -315 224 q-53 -41 -95.5 -72t-58.5 -41q-100 -70 -162 -119q-29 -23 -49 -41t-33 -31q-147 -160 -147 -327zM225 545q0 25 6 49q14 68 66 121l37 39q29 27 53.5 46t42.5 34l219 -156q-12 -29 -23.5 -54.5t-17.5 -43.5q-8 -27 -16 -48.5t-14 -42.5h2q-4 -12 -7.5 -23t-7.5 -22v2 q-10 -29 -18 -49t-17 -35h2q-8 -12 -14 -22t-10 -18q-2 -2 -2 -5l-2 -2q-31 -49 -68 -88q-88 55 -153 152q-43 61 -52 108q-6 33 -6 58zM233 1053h97l219 200l215 -200h94l-194 403h-230z" />
<glyph unicode="&#xe3;" horiz-adv-x="931" d="M35 416q0 -172 133 -312q27 -29 61.5 -56.5t79.5 -59.5q59 53 109.5 101t91.5 93q35 -57 75 -110.5t85 -100.5l225 211q-100 57 -121 76q-16 16 -28.5 31.5t-22.5 34.5q-23 33 -31 65.5t-8 67.5q0 139 98 260l-2 -2l54.5 54.5t60.5 51.5q-129 61 -315 223 q-53 -41 -95.5 -70.5t-58.5 -39.5q-49 -35 -89 -64.5t-73 -56.5q-29 -23 -49 -41t-33 -31q-147 -158 -147 -325zM213 1110h76q31 86 78 86q33 0 127 -41q102 -45 155 -45q199 0 221 274h-69q-35 -86 -84 -86q-45 0 -144 45q-31 16 -51 22.5t-33 10.5q-41 10 -61 10 q-96 0 -160 -88q-20 -29 -32.5 -75.5t-22.5 -112.5zM225 543q0 27 6 51q14 63 66 121l37 37q29 29 53.5 47t42.5 32l219 -155q-12 -29 -23.5 -54.5t-17.5 -41.5q-8 -29 -16 -49.5t-14 -41.5h2q-4 -14 -7.5 -24t-7.5 -21v2q-10 -29 -18 -49t-17 -35h2q-8 -12 -14 -23t-10 -20 l-4 -4q-16 -27 -33.5 -49t-34.5 -39q-88 55 -153 152q-43 61 -52 108q-6 33 -6 56z" />
<glyph unicode="&#xe4;" horiz-adv-x="929" d="M35 416q0 -172 133 -312q27 -29 61.5 -56.5t79.5 -59.5q59 53 109.5 101t91.5 93q70 -111 160 -211l225 211q-100 57 -121 76q-16 16 -28.5 31.5t-22.5 36.5q-23 31 -31 63.5t-8 69.5q0 137 98 258l-2 -2l54.5 54.5t60.5 53.5q-129 59 -315 224q-53 -41 -95.5 -72 t-58.5 -41q-49 -35 -89 -64.5t-73 -54.5q-29 -23 -49 -41t-33 -31q-147 -160 -147 -327zM225 543q0 27 6 51q14 68 66 121l37 39q29 27 53.5 46t42.5 34l219 -156q-12 -29 -23.5 -54.5t-17.5 -43.5q-8 -29 -16 -49.5t-14 -41.5h2q-4 -14 -7.5 -24t-7.5 -21v2 q-10 -29 -18 -49t-17 -35h2q-8 -12 -14 -23t-10 -17q-2 -2 -2 -5l-2 -2q-31 -49 -68 -88q-88 55 -153 152q-43 61 -52 108q-6 33 -6 56zM338 1329q0 -23 2 -46t8 -48q18 -61 33.5 -104.5t26.5 -67.5h34q76 188 76 272q0 59 -59 86q-20 4 -29 4q-68 0 -88 -61q-4 -10 -4 -18 v-17zM557 1339q0 -125 59 -262l35 -2q63 129 80 195q4 25 7 41t3 24q0 68 -55 86h2q-18 8 -39 9q-49 0 -92 -91z" />
<glyph unicode="&#xe5;" horiz-adv-x="929" d="M35 416q0 -172 133 -312q27 -29 61.5 -56.5t79.5 -59.5q59 53 109.5 101t91.5 93q70 -111 160 -211l225 211q-100 57 -121 76q-16 16 -28.5 31.5t-22.5 34.5q-23 33 -31 65.5t-8 69.5q0 137 98 258l-2 -2l54.5 54.5t60.5 53.5q-127 57 -315 221q-53 -41 -95.5 -70.5 t-58.5 -39.5q-49 -35 -89 -64.5t-73 -54.5q-29 -23 -49 -42t-33 -30q-147 -160 -147 -327zM225 543q0 27 6 51q14 68 66 121l37 39q59 53 96 77l219 -153q-12 -29 -23.5 -54.5t-17.5 -43.5q-8 -29 -16 -49.5t-14 -41.5h2q-4 -14 -7.5 -24t-7.5 -21v2q-10 -29 -18 -49 t-17 -35h2q-8 -12 -14 -23t-10 -17q-2 -2 -2 -5l-2 -2q-31 -49 -68 -88q-88 55 -153 152q-43 61 -52 108q-6 33 -6 56zM272 1235q0 -37 14.5 -71t39 -59.5t57.5 -39.5t70 -14t69.5 14t57 39.5t39 59.5t14.5 71q0 76 -53 128t-127 52t-127.5 -52t-53.5 -128zM367 1235 q0 35 25.5 60.5t60.5 25.5t60.5 -25.5t25.5 -60.5q0 -39 -26 -63.5t-60 -24.5q-35 0 -60.5 24.5t-25.5 63.5z" />
<glyph unicode="&#xe6;" horiz-adv-x="1327" d="M37 412q0 -168 135 -310q29 -27 63.5 -55.5t81.5 -58.5q59 55 111.5 104t93.5 92q47 -43 82 -74.5t51 -48.5l105 -61h119l387 231l-54 72q-35 -25 -71 -45h2q-78 -31 -111 -31q-72 0 -119 90v-4q-27 80 -36 131l415 246q-88 115 -146.5 196t-84.5 132 q-68 -35 -128.5 -65.5t-94.5 -49.5l-47 -29q-33 23 -82.5 62t-118.5 98q-53 -41 -96 -70.5t-60 -39.5q-49 -35 -90 -64t-74 -55q-29 -23 -49 -41.5t-33 -28.5q-152 -158 -151 -323zM231 539q0 25 7 49q14 66 65 119l37 38q31 27 55.5 45.5t42.5 32.5l221 -155 q-10 -25 -21 -51t-17 -44q-10 -27 -18.5 -48t-14.5 -40h2q-8 -33 -12 -45q-20 -51 -37 -82h2q-8 -12 -14.5 -22t-10.5 -19q-2 -2 -2 -4l-2 -2q-37 -53 -70 -86q-88 55 -155 150q-20 29 -33.5 55.5t-17.5 52.5q-6 31 -7 56zM866 571v17q0 16 1 34.5t3 36.5q6 70 19 138 q10 -16 21.5 -30.5t21.5 -27.5q8 -10 15 -19t14 -20q39 -45 59 -71l-152 -86v6q-2 14 -2 22z" />
<glyph unicode="&#xe7;" horiz-adv-x="716" d="M35 481q0 -86 18 -162q37 -137 135 -237q31 -35 56 -53q-4 -4 -10.5 -5t-12.5 -6l-100 -112h55q10 2 19.5 3t13.5 1q37 0 70 -16v2q31 -20 30 -56q0 -39 -36.5 -58.5t-79.5 -19.5q-2 0 -24 1t-67 6l-32 -68q94 -18 166 -18q106 0 172 36q96 49 96 160q0 63 -38 106.5 t-95 55.5q41 43 78 72q6 6 59 47l-2 -2q14 6 33 20q66 53 127 86l-54 78q-78 -61 -127 -82q-16 -6 -28.5 -10t-20.5 -4h-4q-18 0 -39.5 15t-40.5 44q-80 113 -80 311q0 150 25 215q0 6 2 11l240 -156l166 197q-84 47 -163 90t-120 69l-111 -79q-78 -57 -133 -107.5 t-67 -71.5q-31 -41 -50 -98q-12 -43 -19 -94t-7 -111z" />
<glyph unicode="&#xe8;" horiz-adv-x="714" d="M37 453q0 -205 88 -324q55 -66 89 -93.5t56 -41.5l385 250l-49 71q-16 -12 -32.5 -24t-36.5 -23h2q-37 -14 -63.5 -22t-43.5 -8q-72 0 -117 90v-2q-29 88 -34 133l403 246q-170 221 -223 331q-47 -23 -104.5 -52.5t-108.5 -58t-84 -51t-47 -36.5q-66 -68 -72 -195 q-4 -72 -6 -120t-2 -70zM51 1454l281 -401h86l-94 401h-273zM270 586v16q0 16 1 34.5t3 39.5q4 33 7.5 67.5t9.5 69.5q12 -16 22.5 -30.5t20.5 -26.5q8 -10 14 -19.5t14 -19.5q16 -23 31 -40.5t25 -33.5l-146 -88v8q-2 14 -2 23z" />
<glyph unicode="&#xe9;" horiz-adv-x="718" d="M33 453q0 -201 88 -324q57 -66 91 -92.5t56 -42.5l387 250l-49 71q-16 -12 -33.5 -24t-37.5 -23h2q-37 -14 -64 -22t-43 -8q-72 0 -117 90v-2q-27 82 -37 133l408 246q-174 227 -225 331q-47 -23 -105.5 -52.5t-109.5 -58t-83 -51t-48 -36.5q-66 -68 -72 -195 q-4 -72 -6 -120t-2 -70zM268 586v16q0 16 1 34.5t3 39.5q2 33 6.5 67.5t10.5 69.5q12 -16 22.5 -30.5t20.5 -26.5q8 -10 14 -19.5t14 -19.5q16 -23 31 -40.5t25 -33.5l-146 -88v8q-2 14 -2 23zM379 1053h88l283 401h-275z" />
<glyph unicode="&#xea;" horiz-adv-x="720" d="M37 453q0 -205 88 -324q55 -66 89 -93.5t56 -41.5l385 250l-49 71q-16 -12 -32.5 -24t-36.5 -23h2q-37 -14 -63.5 -22t-43.5 -8q-72 0 -117 90v-2q-29 88 -34 133l403 246q-170 221 -223 331q-47 -23 -104.5 -52.5t-108.5 -58t-84 -51t-47 -36.5q-66 -68 -72 -195 q-4 -72 -6 -120t-2 -70zM70 1053h94l215 200l213 -200h94l-192 403h-228zM270 586v16q0 16 1 34.5t3 39.5q4 33 7.5 67.5t9.5 69.5q12 -16 22.5 -30.5t20.5 -26.5q8 -10 14 -19.5t14 -19.5q16 -23 31 -40.5t25 -33.5l-146 -88v8q-2 14 -2 23z" />
<glyph unicode="&#xeb;" horiz-adv-x="716" d="M35 453q0 -205 88 -324q55 -66 89 -93.5t56 -41.5l385 250l-49 71q-16 -12 -32.5 -24t-36.5 -23h2q-37 -14 -64 -22t-43 -8q-72 0 -117 90v-4q-14 43 -22 76.5t-12 58.5l403 246q-170 221 -223 331q-47 -23 -104.5 -52.5t-108.5 -58t-84 -51t-47 -38.5q-66 -66 -72 -193 q-4 -74 -6 -121t-2 -69zM217 1327q0 -23 2 -45t8 -47q18 -61 33.5 -104.5t26.5 -67.5h35q39 94 56 161.5t17 108.5q0 57 -57 88q-20 4 -29 4q-63 0 -88 -61q-4 -10 -4 -18v-19zM268 586v16q0 16 1 34.5t3 39.5q4 33 7.5 66.5t9.5 70.5q12 -16 22.5 -30.5t20.5 -28.5 q8 -10 14 -18.5t14 -18.5q16 -23 31 -40.5t25 -33.5l-146 -88v8q-2 14 -2 23zM434 1337q0 -123 60 -260l34 -2q29 63 48.5 111.5t27.5 83.5q12 49 12 63q0 68 -55 88h2q-18 8 -37 9q-47 0 -92 -93z" />
<glyph unicode="&#xec;" horiz-adv-x="636" d="M-207 1454l283 -401h88l-94 401h-277zM20 827q115 -27 132 -71q4 -20 4 -92v-355q0 -18 -1 -30.5t-1 -18.5q-12 -39 -99 -100q59 -31 121 -74t127 -100q35 39 77 73.5t95 73.5l131 94l-45 72l-104 -70l-66 37v406q0 100 43 127q10 6 38 9t65 3q-182 133 -265 238 q-88 -100 -252 -222z" />
<glyph unicode="&#xed;" horiz-adv-x="634" d="M33 827q113 -27 129 -71q6 -16 6 -92v-355q0 -33 -4 -49q-12 -39 -96 -100q59 -31 119.5 -74t125.5 -100q35 39 77 73.5t95 73.5l129 94l-43 72l-104 -70l-68 37v406q0 100 45 127q10 6 38 9t63 3q-184 137 -260 238q-45 -49 -107.5 -105.5t-144.5 -116.5zM410 1053h88 l282 401h-276z" />
<glyph unicode="&#xee;" horiz-adv-x="636" d="M-33 1053h94l215 200l211 -200h95l-193 403h-225zM33 827q113 -27 129 -71q6 -16 6 -92v-355q0 -33 -4 -49q-12 -39 -96 -100q115 -59 243 -174q35 39 77 73.5t95 73.5l127 94l-43 72l-104 -70l-66 37v406q0 100 45 127q10 6 37 9t64 3q-180 133 -260 238 q-86 -98 -250 -222z" />
<glyph unicode="&#xef;" horiz-adv-x="641" d="M35 825q111 -25 127 -71q6 -12 6 -90v-355q0 -33 -4 -49q-14 -41 -94 -100q59 -31 117.5 -74t123.5 -100q33 39 74 73.5t94 73.5l129 94l-45 72l-102 -70l-66 37v406q0 100 45 127q10 6 37 9t62 3q-176 131 -256 236q-43 -49 -105.5 -105.5t-142.5 -116.5zM90 1327 q0 -23 2 -45t6 -47q20 -61 34.5 -104.5t25.5 -67.5h35q37 94 54 161.5t17 108.5q0 59 -57 88q-16 4 -27 4q-66 0 -86 -61q-4 -10 -4 -18v-19zM303 1337q0 -123 59 -260l33 -2q31 63 49.5 111.5t28.5 83.5q4 25 7 41t3 22q0 68 -55 88h2q-16 8 -35 9q-49 0 -92 -93z" />
<glyph unicode="&#xf0;" horiz-adv-x="946" d="M35 475q0 -59 20.5 -112.5t75.5 -126.5q45 -61 108.5 -123t143.5 -125q29 20 74 39.5t104 42.5h-2q100 35 137 61q88 70 111 100q18 18 29.5 36t21.5 34q53 96 53 205q0 31 -7 66.5t-21 78.5q-49 135 -172 236q-23 16 -41.5 31.5t-38.5 29.5q-41 31 -75 55.5t-62 47.5 l145 75l-51 99l-176 -92q-14 29 -15 61q0 59 54 94v-2q33 18 65 25l-18 84q-162 -45 -219 -76q-129 -74 -129 -191q0 -59 30 -116l-145 -76l51 -98l158 84q10 -12 20 -21.5t21 -17.5l51 -39q-37 -20 -65.5 -36.5t-47.5 -31.5q-51 -35 -96 -86q-92 -102 -92 -215zM285 571 q0 84 51 154q29 35 76 61q51 -35 86.5 -62t58.5 -50q25 -23 43 -42.5t35 -37.5q88 -113 88 -236q0 -158 -133 -161q-47 0 -113 41l2 -2q-37 23 -71 57q-82 88 -113 209q-10 41 -10 69z" />
<glyph unicode="&#xf1;" horiz-adv-x="1038" d="M35 813q35 -14 54.5 -27.5t29.5 -27.5q41 -53 41 -154v-624q16 8 43.5 22t59.5 31.5t68 35t68 33.5l2 621q35 25 59.5 44t45.5 34l108 -90v-736q66 47 150 105.5t158 105.5q23 16 47 31.5t35 24.5l-35 69q-68 -31 -80 -30q-31 0 -37 32q0 6 -1 24.5t-1 51.5v250 q0 84 37 109q2 2 4 3t4 3l-4 -4l15 9t9 5l56 29q-182 117 -240 178q-8 10 -22.5 29.5t-22.5 29.5q-16 -12 -49 -35.5t-68 -46.5q-66 -41 -100 -69q-31 -20 -53 -41q-6 -4 -15 -13q-4 49 -12 74h2q-10 37 -55 74q-16 14 -36.5 28.5t-53.5 30.5q-61 -63 -122 -124.5t-89 -94.5 zM215 1110h76q31 86 80 86q31 0 127 -43q104 -43 157 -43q197 0 222 274h-72q-31 -88 -84 -88q-23 0 -57.5 12.5t-85.5 34.5q-59 27 -84 33q-41 10 -64 10q-94 0 -158 -90q-23 -29 -35 -74.5t-22 -111.5zM723 981q2 -4 8 -10q0 10 -8 10z" />
<glyph unicode="&#xf2;" horiz-adv-x="952" d="M35 500q0 -193 149 -336q39 -39 88 -76q57 -43 93 -108q250 160 366 223q145 96 176 231q12 55 13 101q0 98 -44.5 185t-111.5 146v-2q-16 16 -35.5 31.5t-44.5 32.5q-53 43 -102 106l-29 4q-74 -66 -168 -110q-156 -78 -180 -94q-170 -129 -170 -334zM131 1454l285 -401 h88l-94 401h-279zM223 653q0 68 34 103t101 43h13q96 0 196 -103q98 -96 142 -202q16 -39 16 -86q0 -80 -40 -128.5t-105 -48.5q-113 0 -220 121h2q-86 98 -122 197q-16 61 -17 104z" />
<glyph unicode="&#xf3;" horiz-adv-x="952" d="M33 500q0 -193 149 -336q20 -20 43 -39t45 -37q29 -23 52.5 -48.5t39.5 -59.5q127 80 218.5 135t150.5 88q143 94 178 231q4 29 7.5 52.5t3.5 48.5q0 98 -43 185t-113 146v-2q-16 16 -35.5 31.5t-44.5 32.5q-53 43 -102 106l-29 4q-39 -35 -82 -61.5t-86 -48.5 l-123 -61.5t-59 -32.5q-170 -129 -170 -334zM221 653q0 68 34 103t101 43h15q94 0 196 -103q47 -47 83 -98t59 -104q18 -43 18 -86q0 -80 -41 -128.5t-106 -48.5q-113 0 -222 121h2q-88 100 -120 197q-18 57 -19 104zM629 1053h88l287 401h-279z" />
<glyph unicode="&#xf4;" horiz-adv-x="954" d="M35 500q0 -193 149 -336q39 -39 88 -76q57 -43 93 -108q250 160 366 223q145 96 176 231q12 55 13 101q0 98 -44.5 185t-111.5 146v-2q-16 16 -35.5 31.5t-44.5 32.5q-53 43 -102 106l-29 4q-74 -66 -168 -110q-156 -78 -180 -94q-170 -129 -170 -334zM195 1053h96 l219 200l215 -200h96l-194 403h-232zM223 653q0 68 34 103t101 43h13q96 0 196 -101q98 -98 142 -204q16 -39 16 -86q0 -80 -40 -128.5t-105 -48.5q-113 0 -220 121h2q-86 98 -122 199q-16 59 -17 102z" />
<glyph unicode="&#xf5;" horiz-adv-x="954" d="M35 500q0 -193 149 -336q39 -39 88 -76q57 -43 93 -108q250 160 366 223q145 96 176 231q12 51 13 98q0 98 -44.5 186.5t-111.5 147.5v-2q-16 14 -35.5 29.5t-44.5 34.5q-29 20 -54.5 48t-47.5 56l-29 4q-39 -33 -81 -60.5t-87 -47.5q-78 -41 -122 -63.5t-58 -33.5 q-170 -129 -170 -331zM182 1110h76q31 86 78 86q35 0 127 -43q104 -43 158 -43q197 0 221 274h-72q-31 -88 -84 -88q-41 0 -141 47q-33 16 -53.5 22.5t-32.5 10.5q-41 10 -62 10q-96 0 -159 -90q-41 -55 -56 -186zM223 653q0 129 135 146h13q94 0 196 -103q98 -96 142 -202 q16 -41 16 -86q0 -80 -40 -128.5t-105 -48.5q-113 0 -220 121h2q-86 98 -122 197q-8 29 -12.5 54.5t-4.5 49.5z" />
<glyph unicode="&#xf6;" horiz-adv-x="954" d="M35 500q0 -193 149 -336q39 -39 88 -76q57 -43 93 -108q250 160 366 223q145 96 176 231q12 51 13 101q0 98 -44.5 185t-111.5 146v-2q-16 16 -35.5 30.5t-44.5 33.5q-53 43 -102 106l-29 4q-74 -66 -168 -110q-78 -39 -122 -62.5t-58 -34.5q-170 -127 -170 -331z M223 653q0 68 34 103t101 43h13q94 0 196 -103q98 -96 142 -202q16 -39 16 -86q0 -80 -40 -128.5t-105 -48.5q-113 0 -220 121h2q-86 98 -122 197q-8 29 -12.5 54.5t-4.5 49.5zM287 1313q0 -10 2 -21q0 -4 1 -8t1 -8q12 -86 65 -215h35q55 111 68 190q4 23 6 43.5t2 36.5 q0 61 -51 82h2q-12 10 -39 10q-61 0 -82 -51q-10 -16 -10 -41v-18zM506 1317q0 -86 61 -240l33 -4q14 18 25.5 44t25.5 61q41 113 41 151q0 98 -90 98q-63 0 -88 -65q-8 -23 -8 -45z" />
<glyph unicode="&#xf7;" horiz-adv-x="1167" d="M31 561h1106v209h-1106v-209zM453 270q0 -55 36.5 -92t92.5 -37q53 0 91 37t38 92q0 53 -38 90t-91 37q-55 0 -92 -36.5t-37 -90.5zM453 1069q0 -55 36.5 -91t92.5 -36q51 0 88 38t37 89q0 53 -36 90t-89 37q-57 0 -93 -37t-36 -90z" />
<glyph unicode="&#xf8;" horiz-adv-x="1005" d="M35 41l74 -66l141 166q18 -16 35.5 -29.5t33.5 -25.5q57 -39 93 -106q248 156 368 221q145 96 176 229q12 51 13 98q0 96 -45 185q-18 35 -38 62.5t-44 51.5l125 146l-74 65l-129 -147q0 2 -2 2v2l-29 23q-55 45 -117 120q-98 -80 -184 -120q-76 -39 -121 -61.5 t-59 -33.5q-170 -127 -170 -327q0 -162 100 -283zM270 647q0 127 136 144h14q43 0 88 -23t96 -63l-250 -291q-49 68 -65 131q-18 55 -19 102zM418 336l252 291q29 -35 51.5 -70t34.5 -68q18 -47 18 -86q0 -80 -41 -127t-106 -47q-109 0 -209 107z" />
<glyph unicode="&#xf9;" horiz-adv-x="1040" d="M35 858l39 -76l80 37q14 -10 29.5 -39.5t15.5 -105.5v-230q0 -115 -39 -161q-10 -12 -29.5 -26.5t-48.5 -35.5q86 -53 154.5 -113.5t125.5 -125.5q63 51 135 108t148 111q8 -102 57 -158q27 -23 51.5 -39t41.5 -24q39 43 92 97t119 118q-92 57 -109 98q-12 27 -12 92v649 q-57 -29 -126 -58.5t-112 -47.5l-2 -621q-4 -2 -8 -6q-10 -8 -18.5 -14t-14.5 -11q-23 -16 -40 -30.5t-32 -24.5h-2l-96 80v469q0 74 -13 128t-36 89l-51 51q-86 -59 -160 -103t-139 -77zM180 1454l287 -401h88l-96 401h-279z" />
<glyph unicode="&#xfa;" horiz-adv-x="1038" d="M33 858l39 -76l80 37q14 -10 29.5 -39.5t15.5 -105.5v-230q0 -115 -39 -161q-10 -12 -29.5 -26.5t-48.5 -35.5q86 -53 154.5 -113.5t125.5 -125.5q63 51 135 108t148 111q8 -102 57 -158q27 -23 51.5 -39t41.5 -24q39 43 92 97t119 118q-92 57 -109 98q-12 27 -12 92v649 q-57 -29 -126 -58.5t-112 -47.5l-2 -621q-4 -2 -8 -6q-10 -8 -18.5 -14t-14.5 -11q-23 -16 -40 -30.5t-32 -24.5h-2h2h-2l-96 80v469q0 74 -13 128t-36 89l-51 51q-86 -59 -160 -103t-139 -77zM512 1053h88l287 401h-279z" />
<glyph unicode="&#xfb;" horiz-adv-x="1040" d="M35 858l39 -76l80 37q14 -10 29.5 -38.5t15.5 -106.5v-230q0 -115 -39 -161q-10 -12 -29.5 -26.5t-48.5 -35.5q86 -53 154.5 -113.5t125.5 -125.5q63 51 135 108t148 111q8 -102 57 -158q27 -23 51.5 -39t41.5 -24q39 43 92 97t119 118q-92 57 -109 98q-12 27 -12 92v649 q-57 -29 -126 -58.5t-112 -47.5l-2 -621q-4 -2 -8 -6q-10 -8 -18.5 -14t-14.5 -11q-23 -16 -40 -30.5t-32 -24.5h-2l-96 80v469q0 74 -13 128t-36 89l-51 51q-86 -59 -160 -103t-139 -77zM205 1053h96l219 200l215 -200h96l-196 403h-232z" />
<glyph unicode="&#xfc;" horiz-adv-x="1040" d="M35 858l39 -76l80 37q14 -10 29.5 -38.5t15.5 -106.5v-230q0 -115 -39 -161q-10 -12 -29.5 -26.5t-48.5 -35.5q86 -53 154.5 -113.5t125.5 -125.5q63 51 135 108t148 111q8 -102 57 -158q27 -23 51.5 -39t41.5 -24q39 43 92 96l119 119q-92 57 -109 98q-12 27 -12 92v649 q-57 -29 -126 -58.5t-112 -47.5l-2 -621q-4 -2 -8 -6q-10 -8 -18.5 -14t-14.5 -11q-23 -16 -40 -30.5t-32 -24.5h-2l-96 80v467q0 145 -49 217q-10 10 -22.5 23.5t-28.5 29.5q-86 -59 -160 -103t-139 -77zM375 1325q0 -10 7 -22.5t15.5 -22.5t15.5 -18l7 -9l-37 -6 q18 -66 34.5 -111.5t26.5 -74.5h37q57 123 70 217q2 16 3 27.5t3 21.5q0 39 -25.5 67.5t-64.5 28.5q-59 0 -84 -53q-4 -10 -6 -22.5t-2 -22.5zM596 1321q0 -29 10 -86q8 -41 20.5 -82t30.5 -76l35 -2q53 104 80 195q4 23 7 38t3 25q0 61 -53 86q-8 4 -17.5 6t-21.5 5 q-94 0 -94 -109z" />
<glyph unicode="&#xfd;" horiz-adv-x="966" d="M18 825q29 -14 48.5 -23t27.5 -16v2q10 -4 22.5 -16t22.5 -27v3q35 -45 56 -115q12 -45 23 -90t24 -92q47 -172 82.5 -300t58.5 -214l-66 -101q-12 -23 -23 -38t-22 -27q-18 -27 -84 -103l86 -65q80 117 147.5 226.5t125.5 215.5q16 29 31.5 55.5t31.5 53.5 q150 266 234 411q20 37 35.5 68t23.5 53q31 70 31 117q0 61 -74 133q-8 8 -19.5 16.5t-21.5 16.5q-41 23 -81 36t-85 13q-63 0 -114 -43q-20 -12 -58 -60q-25 -31 -45 -58.5t-37 -53.5q-14 45 -26.5 76.5t-22.5 54.5q-18 31 -47 56.5t-70 45.5zM428 694q27 55 53.5 82 t65.5 27q20 0 34.5 -2t24.5 -6h-2q57 -18 125 -84q16 -12 26.5 -20.5t14.5 -14.5q-35 -86 -90 -196.5t-133 -252.5zM518 1059h88l287 403h-279z" />
<glyph unicode="&#xfe;" horiz-adv-x="1015" d="M35 1204q86 -33 110 -78q29 -47 29 -481v-317l-125 -127l125 -29q0 -53 1 -97t3 -75q6 -104 17.5 -181t27.5 -124q4 -8 11.5 -25.5t25.5 -46.5q70 115 100 254q6 29 14.5 82t18.5 131q53 -23 108.5 -46.5t104.5 -45.5q66 59 123 117.5t111 120.5q23 29 40 53t29 41 q76 125 76 272q0 195 -133 334q-23 25 -58.5 51.5t-82.5 52.5q-74 -80 -149 -159.5t-146 -151.5v426q0 109 -27 154q-23 47 -127 98q-23 -23 -47.5 -43.5t-36.5 -34.5q-4 -4 -8 -7t-8 -7q-16 -16 -54 -49t-73 -62zM414 608l188 185q21 -7 29 -13q18 0 55 -37q78 -80 78 -262 q0 -63 -8 -113.5t-23 -91.5q-4 -8 -11 -23t-22 -38q-35 16 -54 26.5t-33.5 16.5t-26 13.5t-29.5 17.5q-27 12 -58.5 24.5t-72.5 28.5q-4 2 -6 2l-4 2z" />
<glyph unicode="&#xff;" horiz-adv-x="970" d="M23 825q29 -14 48 -23t27 -16v2q20 -12 45 -43v3q35 -45 56 -115q12 -45 23 -90t24 -92q47 -172 83 -300t58 -214l-65 -101q-12 -23 -23.5 -38t-22.5 -27q-18 -27 -83 -103l86 -65q80 117 147.5 226.5t124.5 215.5q16 29 31.5 55.5t31.5 53.5q150 266 234 411 q20 37 35.5 67t23.5 52q31 74 31 119q0 61 -74 133q-16 16 -41 31q-41 25 -81 38t-85 13q-63 0 -114 -43q-27 -20 -58 -60q-25 -33 -45 -59.5t-37 -52.5q-14 45 -26 76.5t-23 54.5q-18 31 -46.5 56.5t-69.5 45.5zM373 1335q0 -23 2 -45t8 -49q39 -123 61 -172h35 q39 96 56.5 163.5t17.5 108.5q0 61 -57 89q-20 4 -31 4q-66 0 -88 -62q-4 -10 -4 -18v-19zM432 694q27 55 53.5 82t65.5 27q20 0 34.5 -2t24.5 -6h-2q29 -10 59.5 -31t65.5 -53q16 -12 26.5 -20.5t14.5 -14.5q-35 -86 -90 -197.5t-133 -251.5zM592 1346q0 -121 61 -263 l35 -2q61 125 80 197q4 25 7 40t3 23q0 68 -55 89q-16 8 -37 8q-49 0 -94 -92z" />
<glyph unicode="&#x152;" horiz-adv-x="2414" d="M37 688q0 -141 55 -266q23 -51 49.5 -96t65.5 -86q47 -53 123 -105q29 -18 52.5 -32.5t43.5 -24.5q172 -84 299 -84q59 0 109 18q25 12 42 19.5t31 15.5q23 12 53.5 31.5t73.5 48.5q41 29 84 62.5t86 70.5q23 4 41.5 7t36.5 3q76 0 209 -73q14 -8 48 -27.5t91 -54.5l-2 2 q12 -8 24.5 -16.5t24.5 -14.5q80 -47 135.5 -66.5t118.5 -19.5q84 0 183 43q129 57 264 174l-39 76l-18.5 -18.5t-12.5 -10.5l-15 -12t-3 -2q-35 -23 -56 -29q-53 -25 -104 -24q-68 0 -133 32q-14 8 -46 27.5t-83 54.5q-180 121 -324 140q-4 0 -8 1t-8 1q23 14 43 23t37 20 q72 43 111.5 69.5t49.5 38.5q27 29 35 86q2 10 3 24.5t3 37.5h408l109 223h-228q121 86 148 131l-2 -2q31 45 30 106q0 37 -18 80q-29 68 -162 156l-280 -148q10 41 24 72v-2q12 20 21.5 38.5t17.5 33.5q2 4 4 6t2 4l-20 29q-104 -43 -203.5 -92.5t-198.5 -102.5 q2 -2 13.5 -12t13.5 -12q4 -8 12 -11q31 -20 37 -73q2 -10 3 -41t1 -78v-361q0 -98 -49 -149h2q-35 -37 -92 -76q-6 -6 -19 -12q59 92 95 205q8 29 12 57.5t4 62.5q0 158 -156 355q-31 39 -57.5 67.5t-42.5 46.5h2q-82 90 -94 133q-6 20 -10 40t-9 47l-301 -277v274 q-61 -31 -121.5 -61.5t-95.5 -44.5q-90 -41 -147 -69.5t-86 -47.5q-166 -106 -246 -235q-68 -109 -88 -224q-6 -31 -6 -100zM285 791q0 166 86 286q55 82 172 152l2 -615q0 -113 -23 -163q-10 -27 -28 -45q-25 16 -50 40q-160 150 -159 345zM567 352l258 279v446l93 82 q25 -35 46 -61.5t44 -48.5q12 -14 22 -25.5t21 -22.5q12 -12 22 -24t19 -23q164 -180 163 -329q0 -213 -108 -293l-127 -62l2 2q-27 -8 -54.5 -10t-60.5 -2h-18h-21q-12 0 -28 2q-100 8 -205 55q-16 8 -32.5 15.5t-35.5 19.5zM1810 971v235q11 2 29 2q88 0 143 -47h-2 q33 -29 37 -80v-4q0 -49 -51 -106h-156z" />
<glyph unicode="&#x153;" horiz-adv-x="1437" d="M37 496q0 -188 151 -334q23 -20 44.5 -38t46.5 -38q29 -20 52 -47t40 -62q31 23 60.5 42.5t60.5 37.5l153 82q41 23 73 41.5t56 38.5q10 -27 23.5 -48t27.5 -40q59 -66 94 -91.5t58 -41.5l397 246l-51 71q-16 -12 -33.5 -23t-40.5 -22h2q-37 -16 -63.5 -24t-44.5 -8 q-74 0 -119 92v-4q-16 41 -25.5 74.5t-13.5 56.5l418 245q-88 111 -145.5 192t-83.5 134q-47 -23 -107.5 -51.5t-114.5 -56.5q-100 -53 -135 -89l-10 -10q-35 33 -62.5 58.5t-46.5 38.5q-31 23 -60.5 53t-59.5 67q-98 -80 -185 -120l-123 -61.5t-59 -33.5 q-174 -127 -174 -327zM229 647q0 129 138 144h12q92 0 199 -101q49 -47 85.5 -97t57.5 -104q10 -20 14 -47v2v-36t2 -31q-8 -68 -47 -108t-100 -40q-113 0 -223 119h2q-86 98 -123 197q-10 29 -13.5 53.5t-3.5 48.5zM977 553v8v39v35q0 18 2 37q6 63 18 135 q12 -14 23.5 -28.5t21.5 -26.5q6 -10 13.5 -19.5t15.5 -19.5q18 -23 32.5 -40.5t24.5 -31.5z" />
<glyph unicode="&#x178;" horiz-adv-x="1542" d="M33 1257l35 -73q94 35 151 35q162 0 281 -119q98 -100 133 -256q18 -96 18 -324v-71q0 -35 -2 -76q-27 4 -55.5 6t-56.5 2q-225 0 -324 -86q-86 -74 -90 -191v-6q0 -90 70 -145q23 -23 45 -31q57 -29 137 -28q123 0 295 77q45 20 84 42t69 42q49 35 87 61.5t65 45.5 q70 -27 122 -58.5t89 -66.5q18 -16 25.5 -28.5t11.5 -20.5q-8 -6 -13.5 -13.5t-11.5 -15.5q-25 -29 -24 -76q0 -49 31.5 -86t80.5 -37q57 0 103 41q59 47 59 129q0 41 -16.5 74t-63.5 82q-41 41 -86 77t-98 64q-18 10 -39 20.5t-45 18.5l84 86q147 147 211 256 q76 123 100 266q4 29 7 54.5t3 54.5q0 33 -3 65.5t-13 65.5q-14 35 -23.5 57.5t-17.5 36.5h2q-23 45 -51 80q-16 20 -33.5 37.5t-36.5 34.5q-31 29 -76 57.5t-104 59.5q-35 -29 -67.5 -56.5t-57.5 -48.5l-21.5 -21.5t-19.5 -17.5q-4 -2 -7 -3t-5 -3q-35 -29 -80 -62.5 t-103 -74.5q-4 6 -7 11t-7 11q-23 29 -42 54l-19 24q-18 20 -42 40t-53 42q-35 27 -66.5 45.5t-59.5 32.5q-8 4 -21.5 8t-32.5 10h2q-8 4 -19 6.5t-22 6.5q-78 -49 -174 -108.5t-192 -115.5zM211 100v4q0 78 100 129q63 31 162 31q47 0 90 -4t84 -12l-2 -168 q-174 -90 -278 -90q-152 0 -156 110zM700 1790q0 -23 7 -61q6 -49 22 -100.5t43 -106.5h35q41 84 58.5 149.5t17.5 118.5q0 92 -92 92q-41 0 -66 -27.5t-25 -64.5zM834 1116q29 25 57.5 40t50.5 24q25 8 57 8q66 0 125 -55q98 -92 99 -246q0 -205 -176 -465 q-18 -29 -38 -54.5t-42 -54.5l-45 15l6 250q0 373 -94 538zM926 1778q0 -41 8 -89.5t29 -103.5l-2 2q0 -4 5 -15t11 -24v2q2 -4 4 -7t4 -7l33 -6q16 23 49 96q45 102 45 162q0 98 -94 98q-59 0 -84 -53q-8 -14 -8 -55z" />
<glyph unicode="&#x2c6;" horiz-adv-x="681" d="M35 975h94l213 186l211 -186h94l-190 375h-228z" />
<glyph unicode="&#x2dc;" horiz-adv-x="722" d="M37 979h76q27 76 77 76q33 0 125 -37q98 -39 154 -39q197 0 217 242h-70q-31 -78 -81 -78q-41 0 -142 41q-66 27 -82 28q-41 10 -61 11q-94 0 -158 -80q-37 -45 -55 -164z" />
<glyph unicode="&#x2000;" horiz-adv-x="959" />
<glyph unicode="&#x2001;" horiz-adv-x="1919" />
<glyph unicode="&#x2002;" horiz-adv-x="959" />
<glyph unicode="&#x2003;" horiz-adv-x="1919" />
<glyph unicode="&#x2004;" horiz-adv-x="639" />
<glyph unicode="&#x2005;" horiz-adv-x="479" />
<glyph unicode="&#x2006;" horiz-adv-x="319" />
<glyph unicode="&#x2007;" horiz-adv-x="319" />
<glyph unicode="&#x2008;" horiz-adv-x="239" />
<glyph unicode="&#x2009;" horiz-adv-x="383" />
<glyph unicode="&#x200a;" horiz-adv-x="106" />
<glyph unicode="&#x2010;" horiz-adv-x="454" d="M33 496l387 200v160l-387 -203v-157zM35 182l387 201v164l-387 -201v-164z" />
<glyph unicode="&#x2011;" horiz-adv-x="454" d="M33 496l387 200v160l-387 -203v-157zM35 182l387 201v164l-387 -201v-164z" />
<glyph unicode="&#x2012;" horiz-adv-x="454" d="M33 496l387 200v160l-387 -203v-157zM35 182l387 201v164l-387 -201v-164z" />
<glyph unicode="&#x2013;" horiz-adv-x="874" d="M37 338h721l80 170h-713z" />
<glyph unicode="&#x2014;" horiz-adv-x="1443" d="M39 383h1366v94h-1366v-94z" />
<glyph unicode="&#x2018;" horiz-adv-x="378" d="M33 825q2 -100 104 -100q29 0 57.5 17.5t43.5 45.5v-2q8 16 14 63.5t12 80.5t10 51l70 434l-88 10l-141 -372q-6 -18 -14.5 -37t-12.5 -35v2q-10 -29 -19.5 -52.5t-15.5 -39.5q-16 -49 -18 -57q0 -2 -1 -4.5t-1 -4.5z" />
<glyph unicode="&#x2019;" horiz-adv-x="376" d="M35 733l88 -10l141 375q6 18 13.5 36.5t13.5 34.5v-2q10 29 18 52.5t17 40.5q16 45 16 55q0 2 1 4t1 4q-2 100 -104 100q-29 0 -57.5 -16t-41.5 -47v2q-12 -23 -14 -64v2q-8 -47 -13 -79.5t-10 -51.5z" />
<glyph unicode="&#x201a;" horiz-adv-x="378" d="M35 -301l88 -10l139 364q12 35 23.5 61.5t21.5 49.5q2 10 15 41v-2q14 35 19 55.5t5 30.5q0 43 -32.5 70.5t-71.5 27.5q-33 0 -60 -18q-45 -29 -57 -115q-8 -51 -13.5 -88t-9.5 -62q-16 -102 -29.5 -182t-25.5 -143q-2 -16 -5 -42t-7 -38z" />
<glyph unicode="&#x201c;" horiz-adv-x="681" d="M35 823q0 -47 41 -75q33 -23 71 -23q78 0 109 76q6 23 10 42t8 36q10 57 17.5 97t11.5 64q10 61 22.5 135t28.5 162q4 14 7.5 39t5.5 39l-93 6q-72 -174 -128 -309t-91 -221q-20 -47 -20 -68zM315 821q0 -47 35 -72.5t78 -25.5q33 0 64 20q51 33 59 113q29 164 48 287 t36 209q2 10 5 30.5t5 30.5l-92 8q-47 -111 -94 -228.5t-92 -231.5l-25 -60q-27 -66 -27 -80z" />
<glyph unicode="&#x201d;" horiz-adv-x="679" d="M37 733l90 -10q47 111 95 228.5t93 234.5l25 57q27 66 27 82q0 45 -36 70.5t-79 25.5q-37 0 -64 -18q-47 -31 -59 -113q-27 -166 -46.5 -289.5t-35.5 -209.5q-2 -10 -6 -29t-4 -29zM313 729l95 -6q72 176 128 311t91 221q10 23 14 39.5t4 26.5q0 47 -39 78q-33 20 -71 20 q-78 0 -109 -76q-12 -49 -18 -75q-10 -57 -17.5 -98.5t-11.5 -65.5q-10 -59 -22.5 -133t-28.5 -162q-4 -16 -7.5 -40t-7.5 -40z" />
<glyph unicode="&#x201e;" horiz-adv-x="681" d="M37 -301l92 -10l150 364q14 35 25 61.5t22 49.5q4 8 7 16t7 25v-2q29 63 29 86q0 43 -36 70.5t-77 27.5q-33 0 -63 -18q-45 -27 -62 -115q-6 -51 -12 -88t-10 -62q-16 -102 -31 -182t-27 -143q-4 -16 -7 -42t-7 -38zM315 -305l93 -10q25 57 45 107t32 79q45 111 77 190.5 t54 133.5q16 41 23.5 63.5t7.5 28.5q0 37 -26 63q-33 33 -86 33q-74 0 -105 -64q-16 -47 -18 -81v2z" />
<glyph unicode="&#x2022;" horiz-adv-x="643" d="M37 649q0 -119 84 -203t201 -84q61 0 110 22t90 62q84 84 84 203q0 121 -82 203q-83 84 -202 84q-117 0 -201 -84t-84 -203z" />
<glyph unicode="&#x2026;" horiz-adv-x="1509" d="M37 180q10 -10 28.5 -25.5t32.5 -27.5q2 -2 5 -3t8 -5q47 -45 82.5 -80t64.5 -70q47 55 101.5 107.5t117.5 103.5q-66 45 -115 90t-83 92l-33 3q-53 -57 -106.5 -103.5t-102.5 -81.5zM535 180q10 -10 28.5 -25.5t30.5 -27.5q4 -2 7 -3t7 -5q47 -45 83 -80t65 -70 q47 55 101 107.5t118 103.5q-66 45 -115 90t-84 92l-33 3q-53 -57 -106 -103.5t-102 -81.5zM1032 180q10 -10 28.5 -25.5t31.5 -27.5q4 -2 7 -3t7 -5q47 -45 83 -80t64 -70q47 55 101.5 107.5t118.5 103.5q-66 45 -115 90t-84 92l-33 3q-53 -57 -106.5 -103.5t-102.5 -81.5z " />
<glyph unicode="&#x202f;" horiz-adv-x="383" />
<glyph unicode="&#x2039;" horiz-adv-x="569" d="M31 479l340 -352l141 137l-258 271l278 229l-71 74z" />
<glyph unicode="&#x203a;" horiz-adv-x="567" d="M37 193l69 -72l431 352l-342 356l-146 -141l258 -266z" />
<glyph unicode="&#x205f;" horiz-adv-x="479" />
<glyph unicode="&#x2122;" horiz-adv-x="2019" d="M37 1100h69q16 78 54.5 105.5t115.5 27.5h56v-531q0 -61 -15.5 -81.5t-83.5 -26.5v-72h406v74q-35 0 -55.5 6t-30.5 18.5t-13 32t-3 49.5v531h53q152 0 172 -133h72l-25 229h-750zM860 522h340v74h-55q-57 0 -68 33q-4 16 -4 73v371l270 -551h56l268 557v-379 q0 -61 -6 -75v2q-12 -18 -34.5 -24.5t-76.5 -6.5v-74h430v72q-37 2 -58 7t-32.5 17.5t-14.5 32t-3 51.5v445q0 63 18.5 84.5t89.5 23.5v74h-305l-248 -518l-256 518h-311v-74q82 0 98 -22q12 -12 13 -88v-443q0 -66 -6 -77q-12 -29 -105 -29v-74z" />
<glyph unicode="&#x25fc;" horiz-adv-x="1054" d="M0 0v1055h1055v-1055h-1055z" />
</font>
</defs>
</svg>
