<?xml version="1.0" encoding="utf-8"?>
<!-- Generator: Adobe Illustrator 16.0.0, SVG Export Plug-In . SVG Version: 6.00 Build 0)  -->
<!DOCTYPE svg PUBLIC "-//W3C//DTD SVG 1.1//EN" "http://www.w3.org/Graphics/SVG/1.1/DTD/svg11.dtd">
<svg version="1.1" xmlns="http://www.w3.org/2000/svg" xmlns:xlink="http://www.w3.org/1999/xlink" x="0px" y="0px" width="512px"
	 height="512px" viewBox="0 0 512 512" enable-background="new 0 0 512 512" xml:space="preserve">
<g id="Layer_1">
</g>
<g id="Layer_2">
	<path d="M456.311,97.86H55.69C33.77,97.86,16,115.629,16,137.55v236.899c0,21.92,17.77,39.69,39.69,39.69h400.621
		c21.919,0,39.689-17.771,39.689-39.69V137.55C496,115.629,478.23,97.86,456.311,97.86z M471.815,171.038l-90.521,68.993
		l90.521,139.379h-40.931l-85.535-111.983L256,335.527V336l-0.31-0.236L255.38,336v-0.473l-89.349-68.1L80.496,379.411h-40.93
		l90.521-139.379l-90.521-68.993v-42.17L255.69,271.3l216.125-142.432V171.038z"/>
</g>
</svg>
