<?xml version="1.0" encoding="utf-8"?>
<!-- Svg Vector Icons : http://www.onlinewebfonts.com/icon -->
<!DOCTYPE svg PUBLIC "-//W3C//DTD SVG 1.1//EN" "http://www.w3.org/Graphics/SVG/1.1/DTD/svg11.dtd">
<svg version="1.1" xmlns="http://www.w3.org/2000/svg" xmlns:xlink="http://www.w3.org/1999/xlink" x="0px" y="0px" viewBox="0 0 1000 1000" enable-background="new 0 0 1000 1000" xml:space="preserve">
<metadata> Svg Vector Icons : http://www.onlinewebfonts.com/icon </metadata>
<g><path d="M500,10C229.4,10,10,229.4,10,500s219.4,490,490,490s490-219.4,490-490C990,229.3,770.6,10,500,10z M801,609.7c-3.3,40.8-34.2,92.9-77.6,100.4c-138.6,10.7-303.1,9.4-446.8,0c-44.8-5.6-74.3-59.7-77.6-100.4c-7-85.6-7-134.4,0-220c3.3-40.7,33.5-94.4,77.6-99.3c142-11.9,307.4-9.4,446.8,0c50,1.8,74.3,53.2,77.6,94C808,470,808,524.1,801,609.7z M438.8,622.5L622.5,500L438.8,377.5V622.5z"/></g>
</svg>