<?xml version="1.0" encoding="utf-8"?>
<!-- Svg Vector Icons : http://www.onlinewebfonts.com/icon -->
<!DOCTYPE svg PUBLIC "-//W3C//DTD SVG 1.1//EN" "http://www.w3.org/Graphics/SVG/1.1/DTD/svg11.dtd">
<svg version="1.1" xmlns="http://www.w3.org/2000/svg" xmlns:xlink="http://www.w3.org/1999/xlink" x="0px" y="0px" viewBox="0 0 1000 1000" enable-background="new 0 0 1000 1000" xml:space="preserve">
<metadata> Svg Vector Icons : http://www.onlinewebfonts.com/icon </metadata>
<g><g><path d="M653.1,500c0,84.6-68.5,153.1-153.1,153.1c-84.6,0-153.1-68.5-153.1-153.1c0-8.7,0.9-17.3,2.5-25.5h-53.5v204c0,14.2,11.5,25.7,25.7,25.7h357c14.1,0,25.6-11.5,25.6-25.7v-204h-53.5C652.2,482.7,653.1,491.3,653.1,500L653.1,500z M500,602.1c56.4,0,102.1-45.7,102.1-102.1c0-56.4-45.7-102.1-102.1-102.1c-56.4,0-102.1,45.7-102.1,102.1C397.9,556.4,443.6,602.1,500,602.1z M622.5,392.8h61.2c8.5,0,15.4-6.9,15.4-15.3v-61.2c0-8.5-6.9-15.4-15.4-15.4h-61.2c-8.5,0-15.4,6.9-15.4,15.4v61.2C607.2,385.9,614.1,392.8,622.5,392.8z M500,10C229.4,10,10,229.4,10,500c0,270.6,219.4,490,490,490c270.6,0,490-219.4,490-490C990,229.4,770.6,10,500,10z M755.2,698.5c0,31.2-25.5,56.7-56.7,56.7h-397c-31.2,0-56.7-25.5-56.7-56.7v-397c0-31.2,25.5-56.7,56.7-56.7h397c31.2,0,56.7,25.5,56.7,56.7V698.5z"/></g></g>
</svg>